<?xml version="1.0" standalone="no"?>
<!DOCTYPE svg PUBLIC "-//W3C//DTD SVG 1.1//EN" "http://www.w3.org/Graphics/SVG/1.1/DTD/svg11.dtd" >
<svg>
<metadata>
Created by FontForge 20090622 at Mon Feb  1 05:49:27 2016
 By deploy user
Generated by Fontographer 3.5
</metadata>
<defs>
<font id="Izhitsa" horiz-adv-x="0" >
  <font-face 
    font-family="Izhitsa"
    font-weight="400"
    font-stretch="normal"
    units-per-em="1000"
    panose-1="0 0 0 0 0 0 0 0 0 0"
    ascent="800"
    descent="-200"
    x-height="467"
    cap-height="700"
    bbox="-30 -272 1234 903"
    underline-thickness="20"
    underline-position="-123"
    unicode-range="U+0020-U+2122"
  />
<missing-glyph horiz-adv-x="800" 
d="M50 0v800h700v-800h-700zM700 50v700h-600v-700h600z" />
    <glyph glyph-name=".notdef" horiz-adv-x="800" 
d="M50 0v800h700v-800h-700zM700 50v700h-600v-700h600z" />
    <glyph glyph-name=".null" 
 />
    <glyph glyph-name="nonmarkingreturn" horiz-adv-x="351" 
 />
    <glyph glyph-name="space" unicode=" " horiz-adv-x="351" 
 />
    <glyph glyph-name="exclam" unicode="!" horiz-adv-x="277" 
d="M167 239h-58q0 81 -12 157q-8 54 -32 155q-7 32 -11 60.5t-4 58.5q0 58 34 96q28 31 54 31q27 0 55 -33q34 -40 34 -94q0 -29 -8 -73.5t-15 -70.5q-19 -75 -24 -104q-13 -76 -13 -183zM79 63q0 42 4.5 51.5t18.5 9.5l34 -1l42 2h11q13 -2 13 -15l-1 -48l1 -47
q0 -13 -13 -15h-11l-42 2l-34 -1q-15 0 -19 8.5t-4 53.5z" />
    <glyph glyph-name="quotedbl" unicode="&#x22;" horiz-adv-x="690" 
d="M427 465h83h19q11 0 12 -6l1 -5q3 -26 8.5 -46.5l8.5 -32.5l14 -60t18 -64q5 -20 25 -86.5t29 -93t16 -43t7 -19.5q0 -6 -7 -7.5t-13 -1.5h-102q-7 0 -11 16l-13 52l-12 38l-13 45q-7 -25 -19 -48q-21 -46 -46 -72q-40 -42 -93 -42q-40 0 -67 30.5t-32 68.5v31
q4 42 25 80t80 105l78 94h-238q-3 -27 -6 -66.5t-3 -65.5q0 -24 4 -63q11 -106 11 -167q0 -24 -4 -28q-8 -8 -47 -8h-47q-25 0 -31.5 42t-6.5 224q0 134 10 173q7 27 28 27l30 -1l46 2h10q13 -1 13 -16q0 -3 -2 -15h223q-3 8 -3 21q0 5 5 6.5t12 1.5zM435 366
q-38 -49 -64 -100q-29 -57 -29 -97q0 -20 13.5 -37t38.5 -17q39 0 64 29q21 25 21 52q0 13 -6 36q-1 3 -12 41l-13 47z" />
    <glyph glyph-name="numbersign" unicode="#" horiz-adv-x="665" 
d="M305 465h69h10t7.5 -16.5t23.5 -47.5q18 -26 94 -119q53 -64 79 -108q45 -76 52 -146v-13q-3 -18 -26 -18l-45 3l-43 -1q-12 0 -17.5 9t-10 46t-23.5 81t-45 70q-13 -8 -22.5 -11.5t-23.5 -6.5q0 -88 10 -158q1 -4 1 -10q0 -10 -10.5 -14.5t-41.5 -4.5h-40
q-23 0 -29.5 20.5t-6.5 64.5q0 37 6 102q-25 4 -37 8.5t-23 11.5q-25 -40 -34 -77t-9 -78q0 -33 -6.5 -43t-18.5 -10l-44 1q-23 0 -35 -1.5t-17 -1.5q-17 0 -20.5 3.5t-3.5 14.5v12q0 46 27 101q40 81 126 146q53 40 78 70.5t31 68.5l-7 17t-2 15q0 12 3.5 16t23.5 4z
M310 370q-25 -51 -45 -81l-36 -52q16 -9 29 -13q28 -9 65 -9q35 0 55 6.5t33 15.5l-26 31q-28 32 -43 53t-32 49z" />
    <glyph glyph-name="dollar" unicode="$" 
 />
    <glyph glyph-name="percent" unicode="%" 
 />
    <glyph glyph-name="ampersand" unicode="&#x26;" 
 />
    <glyph glyph-name="quotesingle" unicode="'" 
 />
    <glyph glyph-name="parenleft" unicode="(" horiz-adv-x="553" 
d="M415 -177l-23 -33q-118 86 -189 209q-80 139 -80 297v36q0 165 87 308q68 112 182 198l23 -33q-60 -69 -89 -168q-37 -125 -37 -323q0 -200 36 -322q29 -98 90 -169z" />
    <glyph glyph-name="parenright" unicode=")" horiz-adv-x="553" 
d="M146 -210l-23 33q60 69 89 168q37 125 37 323q0 200 -36 322q-29 98 -90 169l23 33q114 -86 182 -197q87 -142 87 -309v-36q0 -158 -80 -297q-71 -123 -189 -209z" />
    <glyph glyph-name="asterisk" unicode="*" horiz-adv-x="554" 
d="M269 575q0 12 -4 22q-9 17 -15 30l-12 26q-9 20 -9 34q0 27 17.5 41t38.5 14t38.5 -14.5t17.5 -40.5q0 -10 -4.5 -22.5t-15 -33.5l-13.5 -27q-7 -15 -7 -29q11 -3 19 -12q9 4 14.5 8.5t13.5 13.5q27 29 38 38q22 18 44 18q23 0 36 -20.5t13 -39.5q0 -24 -15 -41t-43 -17
q-21 0 -45 5t-31 5q-5 0 -15 -2q3 -11 -5 -22q10 -12 53 -35q26 -14 33 -19q18 -14 18 -33q0 -29 -15.5 -50t-41.5 -21q-31 0 -45 28q-9 18 -13.5 49.5t-6 40.5t-7.5 20q-12 -5 -23 -2q-5 -9 -6.5 -17.5l-4.5 -26.5q-6 -45 -13 -61q-14 -33 -48 -33q-23 0 -40 21t-17 50
t36 44q50 21 68 42q-8 11 -9 22q-4 1 -8 1h-6q-8 0 -35.5 -5t-42.5 -5q-26 0 -41.5 15.5t-15.5 42.5q0 26 15 43t33 17q16 0 30 -7t33 -28t26 -27q11 -10 22 -16q7 11 16 16z" />
    <glyph glyph-name="plus" unicode="+" 
 />
    <glyph glyph-name="comma" unicode="," horiz-adv-x="249" 
d="M69 -160l-19 21q26 22 40 42q22 30 22 54q0 11 -0.5 22t-3.5 22q-6 -1 -16 -1q-17 0 -22 6t-5 22v16t1 19q0 42 4.5 51.5t18.5 9.5l34 -1l19 1l22 1h10q13 -2 13 -15l-3 -63q0 -52 -15 -92q-27 -71 -100 -115z" />
    <glyph glyph-name="hyphen" unicode="-" horiz-adv-x="360" 
d="M35 246h290v-58h-290v58z" />
    <glyph glyph-name="period" unicode="." horiz-adv-x="249" 
d="M63 63q0 44 4.5 52.5t19.5 8.5l34 -1l42 2h10q13 -2 13 -15l-1 -48l1 -47q0 -13 -13 -15h-10l-42 2l-34 -1q-18 0 -19 6q-5 10 -5 56z" />
    <glyph glyph-name="slash" unicode="/" 
 />
    <glyph glyph-name="zero" unicode="0" horiz-adv-x="553" 
d="M295 -14q-32 0 -90 51q-65 57 -108 135q-53 96 -53 188q0 96 56 178q27 39 88 96l27 25l30 28q26 22 42 22q60 0 141 -138.5t81 -234.5q0 -112 -80 -234q-76 -116 -134 -116zM361 107q24 0 50.5 36.5t26.5 73.5q0 87 -98 226q-94 133 -138 133q-27 0 -58 -41
q-34 -45 -34 -96q0 -91 103 -215q97 -117 148 -117z" />
    <glyph glyph-name="one" unicode="1" horiz-adv-x="442" 
d="M371 0h-294v31h75v489q0 36 -6 49q-9 19 -35 19q-5 0 -21.5 -3t-29.5 -6l-6 36q70 13 125.5 35t117.5 64v-683h74v-31z" />
    <glyph glyph-name="two" unicode="2" horiz-adv-x="553" 
d="M468 152l23 -20l-68 -143l-81 10q-22 4 -74 10t-81 6q-44 0 -76 -10q-20 -6 -35 -16l-27 29l47 50q22 22 41 43q14 16 51 62q90 112 128 192q24 51 24 83q0 58 -27.5 91.5t-78.5 33.5q-41 0 -71 -22q-15 -11 -55 -55l-60 58q46 85 111 123q55 32 123 32q72 0 123 -41
q56 -45 56 -116q0 -69 -54 -164q-64 -113 -214 -285q35 18 78 18q12 0 28.5 -2t36 -5t35 -4t33.5 -1q20 0 34 10.5t30 32.5z" />
    <glyph glyph-name="three" unicode="3" horiz-adv-x="553" 
d="M85 514l-51 35q50 93 137 133q58 27 123 27q69 0 117 -33.5t48 -90.5q0 -44 -32 -91q-24 -36 -69 -77l4 -7q76 -8 111 -53q25 -32 25 -77q0 -96 -104 -191q-115 -105 -287 -136l-22 53q143 37 207 102q50 50 50 113q0 40 -18 68q-26 41 -83 41q-23 0 -40.5 -5t-50.5 -19
l-20 37q80 29 132 85t52 108q0 22 -15 40q-24 28 -72 28q-42 0 -81.5 -25.5t-60.5 -64.5z" />
    <glyph glyph-name="four" unicode="4" horiz-adv-x="609" 
d="M339 31v165l-86 2q-85 0 -134 -9t-83 -24l-17 68l54 75q56 79 77 106q48 61 104 118q67 68 146 129q22 17 36 29.5t24 23.5l47 -21q-22 -45 -29.5 -81t-7.5 -90v-230q28 0 54.5 5t59.5 21l-34 -134l-36 7l-16 2l-28 3v-165h70v-31h-281v31h80zM339 289v254
q-29 -23 -48 -43l-40 -45q-61 -72 -95 -118q-24 -33 -36 -56l98 5q32 0 74.5 1.5t46.5 1.5z" />
    <glyph glyph-name="five" unicode="5" horiz-adv-x="553" 
d="M443 714l26 -7q-12 -25 -26 -61l-25 -66q-15 0 -51 -2.5t-45 -2.5q-49 0 -94 6q-41 8 -65 11q-8 -14 -10 -18q-5 -11 -5 -22q0 -33 17.5 -51t88.5 -28t118 -36q84 -46 84 -139q0 -114 -96 -214q-100 -104 -240 -121l-17 48q95 18 159 78t64 132q0 51 -38 82
q-25 21 -89 45.5t-87 42.5q-40 30 -40 79q0 59 85 220l117 -11q27 -3 46 -5.5t36 -2.5q30 0 45 5q27 9 42 38z" />
    <glyph glyph-name="six" unicode="6" horiz-adv-x="554" 
d="M378 736l29 -27l-56 -57q-50 -50 -81 -86q-49 -56 -75 -107q-33 -63 -33 -118q0 -62 28 -109q24 -40 74 -79l101 -69q38 34 51 52q22 30 22 64q0 56 -61.5 119.5t-112.5 63.5h-20t-14 -2l-20 16q17 27 57 62q47 41 70 41q44 0 107 -71q70 -79 70 -155q0 -80 -97 -188
q-90 -100 -137 -100q-57 0 -144 93q-94 101 -94 192q0 96 81.5 209t254.5 256z" />
    <glyph glyph-name="seven" unicode="7" horiz-adv-x="506" 
d="M470 714l36 -30q-32 -44 -68 -115q-43 -85 -112 -244q-48 -109 -55 -129q-39 -107 -39 -181q0 -9 -0.5 -17.5t-0.5 -16.5q0 -30 6 -69q-64 24 -126 24q16 87 63 209q41 106 96 222q43 90 93 181h-19h-162q-42 0 -57.5 -4t-21.5 -27l-48 17l13.5 42t18.5 63q4 16 8.5 30.5
t11.5 32.5q60 -12 122 -12h79q69 0 100.5 5.5t61.5 18.5z" />
    <glyph glyph-name="eight" unicode="8" horiz-adv-x="554" 
d="M154 365q-51 34 -75 74q-17 29 -17 57q0 75 83 147q76 66 138 66q50 0 122 -59q79 -65 79 -126q0 -50 -50 -97q-21 -20 -58 -48q77 -47 105 -81q34 -42 34 -108q0 -64 -104 -137q-95 -67 -148 -67t-134 71q-90 79 -90 154q0 41 19 71q27 43 96 83zM344 402q21 8 35 23
q19 20 19 45q0 53 -82 108q-73 49 -116 49q-18 0 -37 -18t-19 -40q0 -58 98 -115q35 -21 102 -52zM357 72q24 11 42 31.5t18 44.5q0 55 -68 103q-19 14 -80 49q-70 41 -87 41q-18 0 -36 -20t-18 -45q0 -34 25 -66t83 -67l43 -29l35 -23q17 -9 43 -19z" />
    <glyph glyph-name="nine" unicode="9" horiz-adv-x="553" 
d="M175 -39l-32 38q93 78 162 170q84 113 84 196q0 60 -28 106q-23 37 -73 76q-17 13 -100 69q-36 -32 -53 -57q-20 -30 -20 -60q0 -58 61.5 -120.5t112.5 -62.5q25 0 34 3l20 -16q-21 -32 -58 -64q-43 -38 -68 -38q-44 0 -107 71q-70 79 -70 154q0 71 59 144q22 27 83 80
q40 35 49 41q25 18 43 18q50 0 136 -82q101 -96 101 -198q0 -81 -52 -167q-44 -72 -128 -157q-38 -38 -156 -144z" />
    <glyph glyph-name="colon" unicode=":" horiz-adv-x="277" 
d="M77 413q0 42 5 51.5t19 9.5l34 -1l41 2h11q13 -2 13 -15l-1 -48l1 -47q0 -13 -13 -15h-11l-41 2l-34 -1q-18 0 -20 7t-3 25t-1 30zM77 63q0 42 5 51.5t19 9.5l34 -1l41 2h11q13 -2 13 -15l-1 -48l1 -47q0 -13 -13 -15h-11l-41 2l-34 -1q-18 0 -20 7t-3 25t-1 30z" />
    <glyph glyph-name="semicolon" unicode=";" horiz-adv-x="276" 
d="M78 413q0 42 5 51.5t19 9.5l34 -1l42 2h11q12 -2 12 -15l-1 -48l1 -47q0 -13 -12 -15h-11l-42 2l-34 -1q-14 0 -19 8t-5 54zM82 -160l-19 21q26 22 40 42q22 30 22 54q0 11 -0.5 22t-3.5 22q-30 0 -36.5 6.5t-6.5 33.5v22q0 42 5 51.5t19 9.5l34 -1l41 2h10q13 -2 13 -15
l-3 -63q0 -52 -15 -92q-27 -71 -100 -115z" />
    <glyph glyph-name="less" unicode="&#x3c;" horiz-adv-x="637" 
d="M297 465h71h10h5q5 -1 9 -21.5t10 -32t26 -35.5q16 -20 51 -59q67 -76 99 -133q45 -80 45 -156q0 -19 -3 -24t-12 -5l-33 1h-547q-14 0 -14 15v12q0 61 36 121q33 56 130 141q52 46 71.5 76.5t19.5 64.5l-1 15q-1 11 3 15.5t24 4.5zM319 36l67 226q-35 43 -53 68t-37 55
q-9 -28 -21 -51q-18 -35 -46 -72zM148 38h114l-73 181q-26 -39 -33.5 -79t-7.5 -102zM370 38h118q1 7 1 21q0 46 -30 99q-12 22 -37 58z" />
    <glyph glyph-name="equal" unicode="=" 
 />
    <glyph glyph-name="greater" unicode="&#x3e;" horiz-adv-x="858" 
d="M174 259h186q55 35 90 75q42 48 42 79q0 11 -3 14q-7 6 -7 18t3.5 16t23.5 4h69q13 0 14.5 -1.5t1.5 -10.5q0 -25 69 -108q79 -96 113 -147q68 -103 68 -170q0 -21 -5 -26t-21 -5l-24 2l-21 1l-43 -1q-13 0 -17 8t-10 45q-10 59 -33 103q-15 29 -36 50
q-13 -8 -22.5 -11.5t-23.5 -6.5q0 -88 10 -158q2 -16 -6 -22.5t-45 -6.5h-16h-23q-23 0 -27 25t-4 162q-25 4 -37 8.5t-23 11.5q-17 -26 -27 -60.5t-14.5 -83t-8 -56.5t-18.5 -8l-43 1l-53 -3q-11 0 -17.5 3t-6.5 14q0 21 7 49q22 87 88 158h-150q0 -27 3 -73t12 -119
q2 -16 -6 -22.5t-45 -6.5h-23h-24q-27 0 -32.5 39t-5.5 227q0 135 7.5 167.5t30.5 32.5l30 -1h17h15q10 2 14 2h11q12 -3 12 -16q0 -9 -5.5 -44t-8 -68.5t-2.5 -79.5zM514 370q-25 -51 -45 -81l-36 -52q16 -9 29 -13q28 -9 65 -9q35 0 60 8q12 4 29 14q-36 40 -56 66
q-25 33 -46 67z" />
    <glyph glyph-name="question" unicode="?" horiz-adv-x="526" 
d="M245 195h-46q0 38 15 84t40 85q39 60 43 67q19 39 19 91q0 81 -44 139q-40 53 -84 53q-24 0 -51.5 -37t-38.5 -88h-54q13 88 83 162q65 69 116 69q59 0 140 -85q85 -90 85 -168q0 -68 -18 -113q-33 -82 -127 -148q-39 -27 -51 -40q-27 -30 -27 -71zM162 49q0 42 4.5 51.5
t18.5 9.5h34l42 1h11q13 -2 13 -15l-2 -48l2 -46q0 -14 -13 -16h-11l-42 2l-34 -1q-15 0 -19 8t-4 54z" />
    <glyph glyph-name="at" unicode="@" horiz-adv-x="720" 
d="M269 278l-125 129q-11 10 -16 14q-10 9 -10 18q0 11 10 18.5t30 7.5l21 -1h371h19q23 0 32 -5.5t9 -18.5q0 -15 -11 -28q-6 -7 -24 -22l-136 -110q108 -17 185 -102q67 -74 74 -150v-13q-2 -18 -25 -18l-29 2l-24 1h-19l-24 -1q-15 0 -20 13t-5 40q0 58 -25 112
q-35 75 -106 84q0 -94 2 -133t8 -86q2 -16 -6 -22.5t-45 -6.5h-23h-24q-22 0 -27 12.5t-5 63.5l-1 75l-2 97q-65 -8 -100 -69q-30 -53 -30 -127q0 -33 -6.5 -43t-18.5 -10l-44 1q-16 0 -32.5 -1.5t-20.5 -1.5q-13 0 -19 5t-6 26q0 54 58 130q75 98 190 120zM388 292l118 97
q18 14 18 20q0 13 -9.5 17t-25.5 4h-18h-208z" />
    <glyph glyph-name="A" unicode="A" horiz-adv-x="691" 
d="M276 672h-77v42h311v-42h-79l184 -630h69v-42h-300v42h76l-75 259q-24 -115 -85 -207q-71 -108 -152 -108q-47 0 -77 27q-35 32 -35 93q0 54 25 122q22 59 63 132q29 50 81 130l43 64q31 48 31 89q0 12 -3 29zM356 396l-45 159q-33 -45 -58 -86q-21 -34 -38 -65
q-28 -49 -41 -81q-25 -59 -30 -107v-26q4 -27 19.5 -38t37.5 -11q55 0 104 98q41 82 51 157z" />
    <glyph glyph-name="B" unicode="B" horiz-adv-x="650" 
d="M111 42v317q0 181 51 260q61 95 218 95q96 0 154 -49q54 -46 54 -112q0 -75 -51 -112q-41 -30 -105 -30q-24 0 -45.5 8t-45.5 24l-44 -55q52 -42 101.5 -60t109.5 -18h9q45 0 60 -15q11 -11 11 -38v-17v-159l-1 -27q0 -31 -8 -39q-15 -15 -69 -15h-482v42h83zM266 42h123
q25 0 34.5 13t9.5 54v113q0 23 -6 32.5t-37 26.5q-48 26 -70 41q-32 22 -54 47v-327zM266 404l58 79q13 -7 26.5 -12t19.5 -5q21 0 38 19q25 28 25 84q0 53 -22.5 78t-56.5 25q-55 0 -75 -69q-14 -47 -14 -140v-30.5t1 -28.5z" />
    <glyph glyph-name="C" unicode="C" horiz-adv-x="693" 
d="M665 452h-262v42h43q0 99 -35 144q-27 34 -73 34q-50 0 -81 -43q-39 -54 -39 -172q0 -62 9 -120q6 -38 27.5 -126t21.5 -145q0 -12 -3.5 -25t-4.5 -17l-4 -14q9 -6 24 -6q56 0 107.5 77t51.5 168q0 17 -1 25h-43v42h262v-42h-41q0 -122 -113 -212q-105 -84 -226 -84
q-30 0 -42.5 2.5t-30.5 9.5v14q0 41 -8 64q-14 40 -67 108q-61 78 -81 134q-14 39 -14 94q0 142 91 228q86 82 215 82q141 0 214 -83q48 -54 62 -137h41v-42z" />
    <glyph glyph-name="D" unicode="D" horiz-adv-x="719" 
d="M469 0h-84q-9 -5 -17 -11q-13 -7 -21 -7q-14 0 -30.5 5t-27.5 13h-39q-61 0 -83.5 -23.5t-42.5 -102.5l-10 -41q-9 -30 -29 -30q-19 0 -23.5 13t-4.5 34q0 19 -6 45q-9 38 -28 77q-5 10 -10 21.5t-5 23.5q0 37 44 37q9 0 24 -3.5t25.5 -5t26 -2.5t20.5 -1h90
q-71 67 -105.5 138t-34.5 144q0 139 91 278q85 129 151 129q72 0 154 -87q97 -102 97 -236q0 -78 -30 -159q-41 -110 -130 -207h140q36 0 52 6t44 6q21 0 32.5 -10.5t11.5 -26.5q0 -31 -32 -88q-16 -29 -16 -79q0 -26 -7 -36.5t-22 -10.5q-12 0 -17 6.5t-9 20.5
q-23 90 -34 114q-25 56 -105 56zM237 588q-20 -23 -29.5 -55.5t-9.5 -65.5q0 -115 68 -215.5t153 -100.5q14 0 28 3q9 25 13 46t4 51q0 123 -51 222q-60 116 -159 116q-11 0 -17 -1z" />
    <glyph glyph-name="E" unicode="E" horiz-adv-x="723" 
d="M362 350h37q-9 29 -27.5 44.5t-35.5 15.5q-32 0 -62.5 -11.5t-50.5 -34.5q6 -39 10.5 -60.5t14.5 -53.5q17 -57 21 -76q8 -38 8 -86q0 -20 -1.5 -28t-8.5 -25q14 -7 37 -7q86 0 136 52q37 39 50 98h-50v41h262v-41l-37 -1q-47 -83 -122 -135q-82 -56 -170 -56
q-42 0 -87.5 4.5t-76.5 14.5q2 7 2 14.5v11.5q0 35 -18 70q-14 27 -43 62q-68 84 -88 127.5t-20 101.5q0 170 116 255q92 67 226 67q84 0 149 -28q93 -40 128 -129h48v-42h-248v42h31q-8 45 -34 74q-36 41 -98 41q-73 0 -111 -72q-32 -61 -32 -148q0 -26 3 -49
q38 33 80.5 48t86.5 15q59 0 111 -31t71 -85h41v-42h-248v42z" />
    <glyph glyph-name="F" unicode="F" horiz-adv-x="940" 
d="M713 375h19l22 -1q35 0 67.5 4t66.5 9q21 0 32.5 -10.5t11.5 -25.5q0 -12 -12 -38.5t-18 -43.5q-9 -23 -13.5 -44t-4.5 -42q0 -19 -4 -29q-7 -17 -25 -17q-15 0 -22 13q-3 5 -10 37q-22 84 -36 106q-25 40 -80 40q-20 -122 -107 -241q-80 -110 -129 -110q-61 0 -149 103
q-100 118 -100 248q-37 0 -58 -23t-47 -123q-6 -27 -7 -29q-7 -21 -25 -21q-17 0 -23 14t-6 32q0 21 -4.5 42t-13.5 44q-3 8 -22 52q-8 19 -8 30q0 15 11 25.5t33 10.5q10 0 58 -8q30 -5 61 -5h17l16 1h21q0 103 92 232q88 124 147 124q66 0 150 -83q101 -100 101 -233v-15
v-12q-2 -9 -2 -13zM332 375h243q-16 71 -53 127q-58 87 -143 87q-12 0 -18 -1q-17 -20 -26 -43q-12 -32 -12 -78q0 -22 0.5 -44t8.5 -48zM583 333h-238q25 -67 71 -118q59 -65 124 -65h18q9 3 13 4q10 27 13.5 53.5t3.5 58.5q0 23 -1 36.5t-4 30.5z" />
    <glyph glyph-name="G" unicode="G" 
 />
    <glyph glyph-name="H" unicode="H" horiz-adv-x="775" 
d="M277 485v-443h69v-42h-307v42h83v616h-83v42h307v-42h-69v-106l221 -271v377h-69v42h307v-42h-83v-616h83v-42h-307v42h69v173z" />
    <glyph glyph-name="I" unicode="I" horiz-adv-x="415" 
d="M130 42v616h-83v42h321v-42h-83v-616h83v-42h-321v42h83z" />
    <glyph glyph-name="J" unicode="J" horiz-adv-x="948" 
d="M571 199h33l18 68l18 64q41 152 48 172q31 96 70 148q47 63 109 63q22 0 44.5 -4.5t36.5 -15.5q-2 -8 -3.5 -12.5l-6.5 -19t-8.5 -34.5t-3.5 -65l-15 -1q-15 8 -30 13t-30 5q-54 0 -94 -64q-31 -50 -60 -150l-44 -167h37v-42h-119v-115h83v-42h-307v42h83v115h-186
l-162 512h-68v31h299v-31h-69l147 -470h39v621l141 32v-653z" />
    <glyph glyph-name="K" unicode="K" horiz-adv-x="719" 
d="M706 -223l-32 -26q-43 20 -91.5 33.5t-87.5 13.5h-27.5t-31.5 -3t-100 -22q-69 -16 -119 -16q-79 0 -128.5 41.5t-49.5 104.5q0 47 38 86t82 39t82.5 -8t82.5 -24q28 -10 53 -15.5t47 -5.5q30 0 45 38q12 30 12 74v38q0 109 -39 150q-31 32 -103 32q-60 0 -88 -35
q-23 -29 -23 -78v-13q2 -10 2 -14h-176q0 113 83 157q56 30 154 30q63 0 98 23q58 38 58 138q0 58 -18 91q-27 51 -94 51q-71 0 -101 -55q-26 -47 -26 -141h-154q0 90 47 155q56 78 156 78l-97 128h144l39 -107q31 85 53.5 107t56.5 22q23 0 47.5 -8t40.5 -27
q-7 -10 -17 -20q-19 -23 -25 -37t-6 -31q0 -8 1 -13h-29q-4 14 -14.5 20t-20.5 6q-14 0 -28.5 -10t-22.5 -30q102 0 169 -49.5t67 -119.5q0 -79 -48 -123q-35 -33 -122 -62v-12q119 -36 168 -92q44 -51 44 -137q0 -101 -56 -152q-43 -39 -98 -39q-43 0 -80.5 7t-67.5 15.5
t-55 17.5q-35 12 -60 19t-48 7q-47 0 -71.5 -23.5t-24.5 -54.5q0 -35 34 -63t83 -28q31 0 64 3t54.5 9.5t63.5 25.5q65 29 115 29q38 0 73 -12q65 -22 123 -83z" />
    <glyph glyph-name="L" unicode="L" 
 />
    <glyph glyph-name="M" unicode="M" horiz-adv-x="1079" 
d="M434 42l-109 508q-59 -92 -85 -161q-29 -78 -29 -159q0 -28 7 -85t7 -81v-19t1 -18q0 -9 -1 -16t-3 -10.5t-11 -7.5t-22 -4q-9 0 -19.5 1.5t-22.5 3t-21 1.5h-15q-11 -2 -20.5 -3t-15.5 -1q-19 0 -27.5 14t-8.5 58q0 75 21 137q18 52 57 113q21 32 78 108.5t76 111.5
q30 54 30 100q0 9 -2 25h-74v42h286v-42h-56l127 -587l111 587h-44v42h269v-42h-65l134 -616h69v-42h-268v42h44l-113 526l-98 -526h53v-42h-292v42h52z" />
    <glyph glyph-name="N" unicode="N" 
 />
    <glyph glyph-name="O" unicode="O" horiz-adv-x="637" 
d="M325 727q8 0 19 -10q3 -2 23 -24l35 -34.5t60 -53.5q66 -57 94 -103q40 -64 40 -147q0 -71 -27 -127q-22 -46 -75 -102l-107 -104q-49 -49 -67 -49q-11 0 -29 13t-73 60q-66 56 -81 72q-44 44 -67 92q-29 59 -29 129q0 107 71 204q44 61 125 124l29 24q7 6 14 13
q11 12 23 17.5t22 5.5zM259 595q-53 -7 -87 -51.5t-34 -95.5q0 -47 39 -104q35 -52 112 -127q49 -48 63.5 -68t17.5 -47q45 17 81.5 55.5t43.5 82.5q2 10 2 17q0 5 -2 17q-7 42 -65 111q-8 10 -68 77l-62 68.5t-41 64.5z" />
    <glyph glyph-name="P" unicode="P" horiz-adv-x="663" 
d="M277 267v-225h83v-42h-321v42h83v366q0 40 1 78l2 74q29 71 95 112.5t146 41.5q119 0 188 -58q65 -55 65 -142q0 -83 -48.5 -138.5t-120.5 -55.5q-26 0 -45 7q-5 2 -37 19l-22 11zM277 327l64 81q21 -17 37 -17q24 0 40 20q25 32 25 105t-15 109q-20 47 -69 47
q-66 0 -78 -102q-4 -35 -4 -108v-135z" />
    <glyph glyph-name="Q" unicode="Q" horiz-adv-x="1112" 
d="M0 324q0 141 89 278q84 129 152 129q29 0 83 -32q69 -41 112 -104q56 -82 56 -187q0 -142 -95 -290q-88 -136 -148 -136q-71 0 -158 112q-91 117 -91 230zM138 588q-17 -21 -26 -46q-12 -33 -12 -75q0 -116 66 -216t153 -100q15 0 30 3q9 25 13 46t4 51q0 124 -51 222
q-60 116 -160 116q-11 0 -17 -1zM867 0h-52q-5 -42 -5 -77v-45q0 -31 3 -52.5t9 -50.5q2 -10 2 -14q0 -3 -2 -11l-93 -7q0 41 4 94.5t10 97.5l8 65h-91l-159 658h-41v42h269v-42h-69l125 -533q30 141 60.5 265.5t50.5 187t41 90.5q34 46 89 46q20 0 49 -8t37 -20
q-2 -10 -3 -13.5t-6 -16.5q-7 -14 -9.5 -34t-2.5 -73h-15l-18 9q-16 9 -19 10q-11 5 -22 5q-47 0 -85 -76q-27 -54 -52 -162q-1 -2 -30 -144l-15.5 -71l-17.5 -78h50v-42z" />
    <glyph glyph-name="R" unicode="R" horiz-adv-x="1143" 
d="M548 700v-42h-83v-247q40 -34 102.5 -56.5t115.5 -22.5l41 2q43 0 55 -22q6 -11 6 -43v-199q0 -46 -17 -60q-12 -10 -43 -10h-498v42h83v616h-66q-64 0 -98 -47q-20 -27 -36 -86l-6 -22q-7 -19 -26 -19q-14 0 -20.5 11t-11 58.5t-20 54t-15.5 65.5q0 16 9 28t24 12
q4 0 12.5 -2.5t24 -5t26.5 -4t21 -1.5h420zM465 42h90q33 0 48 7q27 12 27 49v119l-1 24q0 26 -7 34.5t-41.5 19.5t-58.5 23q-30 15 -57 38v-314zM869 42v616h-69v42h307v-42h-83v-616h83v-42h-293v42h55z" />
    <glyph glyph-name="S" unicode="S" horiz-adv-x="636" 
d="M567 499l-135 1q-13 0 -13 20q0 90 -30 129q-21 27 -52 27q-50 0 -71 -53q-13 -33 -13 -81l-3 -57q0 -85 47 -114q22 -14 97 -25q111 -17 162 -76q38 -45 38 -102q0 -74 -30 -123q-46 -76 -154 -76q-34 0 -59 4t-57 15.5t-58 20t-41 8.5q-44 0 -44 -69q0 -14 1 -22t2 -15
q0 -6 -14 -6q-4 0 -18 1t-22 1q-9 0 -20 -2t-33 -11q-12 -5 -14 -5q-8 0 -15 18.5t-7 43.5q0 55 32 91t91 36q47 0 153 -37q23 -8 31.5 -10.5t21.5 -2.5q47 0 66 58q12 37 12 102q0 56 -24 86q-32 40 -117 48.5t-123 28.5q-80 41 -80 145q0 109 85 168q72 50 173 50
q113 0 185 -66q63 -57 63 -128q0 -21 -13 -21z" />
    <glyph glyph-name="T" unicode="T" horiz-adv-x="775" 
d="M310 42v616h-43q-60 0 -76 -14q-29 -24 -56 -132q-4 -15 -7 -29q-7 -21 -26 -21q-17 0 -23 14t-6 32q0 20 -5 42.5t-11.5 40t-21.5 51.5q-10 22 -10 34q0 14 11 26t33 12q26 -6 58.5 -10.5t75.5 -4.5l36 1h297l36 -1q48 0 76.5 4.5t57.5 10.5q21 0 32.5 -11.5t11.5 -26.5
q0 -9 -6 -24l-24 -57q-8 -21 -13.5 -45.5t-5.5 -41.5q0 -22 -2 -28q-6 -18 -26 -18q-19 0 -28 31q-4 13 -14 52q-20 72 -47 96q-19 17 -57 17h-19h-43v-616h83v-42h-321v42h83z" />
    <glyph glyph-name="U" unicode="U" horiz-adv-x="691" 
d="M167 733l36 -29q-29 -21 -47 -49t-18 -54q0 -41 47 -86q25 -24 80 -61l56 -39.5t46 -36.5q89 44 135 104t46 127q0 36 -13 63.5t-40 60.5l25 31q51 -15 100 -15q22 0 43 3q-9 -68 -26 -123q-27 -87 -75 -153q-62 -85 -156 -129v-4q148 -70 148 -160q0 -74 -45 -129
q-56 -68 -161 -68q-93 0 -144 44.5t-51 120.5q0 45 22.5 83.5t65.5 65.5q-81 19 -135 62q-71 57 -71 139q0 45 19 84q28 57 113 148zM284 282q-35 -21 -54 -55t-19 -72q0 -49 31 -82q35 -37 96 -37q50 0 79 32q26 28 26 65q0 39 -31 73q-40 45 -128 76z" />
    <glyph glyph-name="V" unicode="V" horiz-adv-x="750" 
d="M265 658l134 -543q26 80 35 110t22 84l55 213q29 100 59 142q37 51 93 51q17 0 33 -4.5l26 -7.5l21 -6q7 -4 7 -10q-5 -8 -11 -29t-8 -41.5t-2.5 -30t-0.5 -18.5q0 -11 1 -18h-16l-23 12q-18 9 -36 9q-46 0 -70 -38q-18 -29 -39 -111q-16 -62 -31 -114q-19 -58 -29 -94
l-22 -74l-29 -98h47v-42h-209l-168 658h-83v42h314v-42h-70z" />
    <glyph glyph-name="W" unicode="W" horiz-adv-x="996" 
d="M516 205q-64 -98 -98 -141q-45 -57 -94 -92q-114 81 -185 202q-57 96 -83 210q-19 83 -19 160q0 56 4.5 103t12.5 52q4 2 21 0q5 -1 13 -1q14 1 21 1h27l47 1q14 0 17.5 -2t3.5 -16q0 -8 -2.5 -34t-2.5 -48q0 -74 8 -132q14 -98 48 -178q44 -101 123 -174q19 18 31.5 33
t26.5 34.5l28 40.5t23 39q-71 141 -71 316v47l3 55q0 13 1.5 16t12.5 3q8 0 14 -1h33h21h10l36 1q20 0 26.5 -3.5t6.5 -21.5l-2 -44v-35q0 -157 48 -280.5t131 -187.5q46 67 65 114q24 59 24 125q0 49 -8 86q-11 51 -48 141q-23 55 -23 80q0 16 8 20.5t24 4.5h120
q19 0 25 -2q16 -6 16 -34v-12q-1 -6 -1 -9q-2 -43 -3 -69q-4 -91 -18 -163q-25 -130 -87 -237q-51 -88 -154 -201q-58 52 -102 108.5t-79 124.5z" />
    <glyph glyph-name="X" unicode="X" horiz-adv-x="720" 
d="M254 658l105 -170l24 54l17 38q34 75 61 99q39 35 113 35q27 0 62.5 -9.5t35.5 -21.5q0 -8 -8 -21l-9 -19l-8 -16q-6 -14 -7 -18q-5 -14 -5 -26v-8q1 -13 -3 -25h-29q-30 22 -45 28t-36 6q-30 0 -48.5 -13t-49.5 -74l-13 -26l-18 -37l228 -392h85v-42h-357v42h95
l-155 264l-58 -111q-14 -27 -29.5 -70t-15.5 -60q0 -14 12.5 -19t33.5 -5h16q6 1 9 1v-42h-243v42q10 -1 15 -1q54 0 90 45q22 28 64 119l14 30l60 124l-175 299h-66v42h312v-42h-74z" />
    <glyph glyph-name="Y" unicode="Y" horiz-adv-x="858" 
d="M506 42h55v-42h-266v42h56v320q-114 28 -179 96q-71 75 -84 200h-61v42h284v-42h-47q0 -141 59 -209q44 -50 105 -50q70 0 118.5 64.5t48.5 160.5l-2 34h-46v42h284v-42h-61q-13 -115 -73 -187q-67 -80 -191 -109v-320z" />
    <glyph glyph-name="Z" unicode="Z" horiz-adv-x="609" 
d="M32 34l359 624l-45 -1l-35 -1q-93 0 -126 -24q-23 -17 -37.5 -71t-16.5 -59q-12 -30 -31 -30q-14 0 -20 12t-8.5 35.5t-9.5 52.5t-20 60q-8 17 -11 26t-3 20q0 14 9 21t31 7q19 0 35.5 -2t40.5 -4h420l-2 -28l-372 -630h39q16 0 52 -1t63 -1q103 0 159 -20
q98 -35 98 -130q0 -58 -42 -98q-51 -48 -144 -48q-24 0 -38 1.5t-39 7.5l10 26h9q45 0 66 33q16 25 16 60q0 87 -77 113q-45 15 -179 15h-151v34z" />
    <glyph glyph-name="bracketleft" unicode="[" horiz-adv-x="554" 
d="M158 783h307v-42h-152v-898h152v-42h-307v982z" />
    <glyph glyph-name="backslash" unicode="\" horiz-adv-x="885" 
d="M174 274q0 -63 3.5 -123.5t11.5 -121.5q2 -16 -6 -22.5t-45 -6.5h-23h-24q-27 0 -32.5 39t-5.5 227q0 134 7.5 167t30.5 33l30 -1h17h15q10 2 14 2h11q12 -3 12 -16l-5 -33q-6 -30 -7.5 -40.5t-1.5 -25.5l-2 -40h255l-102 96q-11 8 -16 13q-10 9 -10 19q0 12 9.5 19
t31.5 7l21 -1h370q26 0 38 -3.5t12 -20.5q0 -14 -8.5 -24t-29.5 -27l-136 -110q105 -20 180 -96q71 -72 78 -156v-13q-2 -18 -25 -18l-27 2l-25 1l-44 -1q-14 0 -18.5 10t-4.5 43q0 75 -28.5 121.5t-89.5 74.5v-65v-43q0 -24 5 -60t5 -51q0 -17 -5 -21q-9 -8 -47 -8h-23h-24
q-21 0 -27 12t-6 62v59q0 15 -1 51t-1 64q-69 -33 -96 -90q-20 -42 -20 -106q0 -33 -6.5 -43t-18.5 -10l-44 1q-16 0 -32.5 -1.5t-20.5 -1.5q-12 0 -17.5 3t-6.5 15v13q5 65 46 119q60 81 188 126zM571 292l118 97q15 13 18 20v9q-3 7 -12 9.5t-25 2.5h-16h-208z" />
    <glyph glyph-name="bracketright" unicode="]" horiz-adv-x="554" 
d="M396 783v-982h-307v42h152v898h-152v42h307z" />
    <glyph glyph-name="asciicircum" unicode="^" horiz-adv-x="747" 
d="M325 629h-57q-69 0 -94 -12q-35 -17 -41 -71q-2 -17 -6 -22.5t-13 -5.5q-12 0 -16 9t-5.5 23.5t-10.5 34t-20 36.5q-4 6 -7 12q-6 13 -6 25q0 9 7 10.5t18 1.5l97 -5l66 -2h282l67 2l96 5q19 0 24 -12q3 -9 0 -17q-21 -33 -30.5 -50t-11.5 -37.5t-5 -28t-17 -7.5
q-13 0 -15.5 9t-3.5 19q-6 53 -39 71q-22 12 -70 12h-28h-56q-3 -26 -3 -57q0 -20 2.5 -51t2.5 -33q1 -6 1 -10q0 -9 -9 -13.5t-39 -4.5h-10h-23q-20 0 -25.5 9t-5.5 30v50zM371 137q-46 -87 -131 -156q-104 70 -157 188q-42 95 -42 193q0 39 2 68.5t10 34.5q3 2 14 0h26h15
h5l36 1q15 1 15 -12q0 -6 -2 -24t-2 -31q0 -84 20 -152q31 -105 105 -170q32 40 41 53q15 22 24 45q-14 34 -19.5 66t-5.5 72q0 12 4 17.5t21 5.5l28 -1l49 2h8q9 -1 10.5 -6t2.5 -9q8 -60 31 -116q32 -78 83 -121q32 35 49 83q14 40 14 75q0 39 -14 83q-7 22 -28 69
q-8 19 -12.5 33t-4.5 20q0 17 27 17h18h9h10h22h22h14q8 -1 12 -8.5t4 -29.5l-3 -46q0 -99 -29 -178q-43 -118 -155 -222q-47 31 -86 72.5t-60 83.5z" />
    <glyph glyph-name="underscore" unicode="_" horiz-adv-x="360" 
d="M55 266q0 132 8 166t31 34l30 -1l46 2h10q13 -2 13 -16q0 -6 -2.5 -23.5l-4.5 -31.5q-5 -34 -7.5 -58.5t-2.5 -67.5v-87q0 -73 2 -104t30 -31q40 0 66 19t61 19q14 0 14 -14q0 -39 -76 -63q-63 -20 -139 -20q-66 0 -74 53q-3 20 -3 102v48z" />
    <glyph glyph-name="grave" unicode="`" 
 />
    <glyph glyph-name="a" unicode="a" horiz-adv-x="498" 
d="M235 465h102q10 0 12 -6q0 -7 0.5 -15t6.5 -32l15 -57l8 -30q32 -130 61 -216l36 -100q0 -6 -7 -7.5t-13 -1.5h-102q-7 0 -11 16l-13 52l-12 38l-13 45q-22 -73 -55 -112q-42 -50 -103 -50q-56 0 -85 47q-22 36 -22 83q0 50 48 118q19 28 77 93l43 47q17 18 17 28
q0 6 -2 15t-5 19t-3 20q0 5 8.5 5.5t11.5 0.5zM243 366q-59 -64 -84 -121q-16 -36 -16 -62q0 -25 14.5 -46.5t44.5 -21.5q39 0 64 29q21 24 21 52q0 18 -16 73l-13 44q-5 25 -15 53z" />
    <glyph glyph-name="b" unicode="b" 
 />
    <glyph glyph-name="c" unicode="c" horiz-adv-x="416" 
d="M341 164l33 -26q-33 -70 -81 -121t-79 -51q-48 0 -110 96.5t-62 178.5q0 85 62 175q58 84 100 84q20 0 90.5 -34.5t70.5 -58.5q0 -10 -28 -39q-18 -19 -30 -37t-14 -18q-5 0 -21 22q-21 28 -39 41q-32 24 -79 34q-7 -15 -12 -40t-5 -47q0 -70 44.5 -141.5t102.5 -93.5
q15 15 22 24t21 31z" />
    <glyph glyph-name="d" unicode="d" horiz-adv-x="671" 
d="M420 34h86q43 0 77.5 1.5t39.5 1.5q24 0 36 -4t12 -19q0 -13 -8 -28.5t-21 -32.5q-25 -35 -38 -58t-40 -83l-52 7q8 18 18 52.5t10 50.5q0 29 -11 47q-19 31 -63 31h-79q-10 -11 -26 -22.5t-28 -11.5q-36 0 -72 34h-63q-32 0 -51 -26q-15 -20 -15 -51q0 -19 7.5 -46.5
t19.5 -56.5l-52 -7q-21 50 -43 88q-18 30 -38 57q-8 12 -17 30t-9 28t10.5 15.5t37.5 5.5l39 -1l38 -2h98q-44 43 -64 97q-15 41 -15 83q0 100 69 197q63 89 114 89q28 0 75 -31q116 -76 116 -208q0 -41 -17 -91q-25 -74 -81 -136zM252 388q-9 -13 -17 -33t-8 -47
q0 -87 51 -154q55 -73 137 -73q5 18 8 36.5t3 39.5q0 85 -46 151q-50 71 -128 80z" />
    <glyph glyph-name="e" unicode="e" horiz-adv-x="498" 
d="M462 420l26 -31q-24 -16 -48 -25.5t-45 -9.5q-19 0 -35 8q-24 12 -52 44q-15 17 -23 24q-15 13 -29 13q-56 0 -71 -107q-6 -43 -6 -98q23 18 62 36q45 21 71 21q19 0 37 -6.5t42 -21.5q16 -10 26 -10q20 0 38 16l20 -27q-16 -18 -30 -31q-9 -8 -24 -19t-26.5 -17
t-26.5 -6q-16 0 -23 3t-24 14q-24 16 -40.5 23.5t-33.5 7.5q-21 0 -43 -12q-12 -7 -24 -17q0 -76 36.5 -128t102.5 -52q28 0 58.5 11.5t70.5 40.5l19 -21q-32 -34 -77.5 -55.5t-102.5 -21.5q-91 0 -156 44q-92 62 -92 193v34q0 81 50 153q62 89 164 89q46 0 92 -19
q24 -10 58 -31q12 -9 20.5 -13t16.5 -4q13 0 22 8z" />
    <glyph glyph-name="f" unicode="f" horiz-adv-x="782" 
d="M582 237h110q9 0 22.5 2.5t18.5 2.5q22 0 35.5 -4.5t13.5 -18.5t-7 -28t-19 -30q-19 -24 -35 -52q-25 -43 -46 -94l-52 7q13 30 20 56.5t7 46.5q0 41 -21.5 59.5t-52.5 18.5q-20 -81 -79.5 -159t-97.5 -78q-55 0 -121 82t-66 155q-34 0 -57 -17.5t-23 -58.5
q0 -14 4 -28.5t6.5 -25t6.5 -22.5t10 -27l-52 -7q-27 61 -44 91q-13 22 -37 55q-8 12 -17 30t-9 28t10.5 15.5t37.5 5.5q17 0 30.5 -2.5t18.5 -2.5h114q15 110 82 192q58 71 100 71q48 0 109 -54q81 -71 81 -180v-18q-1 -7 -1 -11zM300 237h181q-17 57 -60 99
q-47 46 -103 52q-13 -18 -19.5 -42t-6.5 -38q0 -36 8 -71zM488 203h-175q21 -54 64 -88t93 -34h11q11 43 11 80q0 12 -1.5 24.5t-2.5 17.5z" />
    <glyph glyph-name="g" unicode="g" horiz-adv-x="387" 
d="M118 30q-21 56 -39 126q-22 87 -22 135q0 114 106 163q67 31 159 31q19 0 19 -14q0 -20 -4 -31q-10 -27 -10 -45q0 -13 -2 -15q-5 -6 -28 -6h-6q-67 0 -96.5 -18t-29.5 -57q0 -11 2 -31t4 -29q20 13 61 32q49 23 66 23q10 0 12 -8v-20q0 -17 3 -30t6 -23q0 -11 -11 -11
q-27 0 -63.5 -13.5t-54.5 -37.5q3 -27 11.5 -52t21.5 -25q23 0 52 12q19 8 35 16.5t22 8.5q9 0 11 -7v-6v-22l1 -24q0 -26 -56 -45q-41 -14 -104 -21q-6 -1 -17 -1q-6 0 -15 2t-17.5 13t-16.5 30z" />
    <glyph glyph-name="h" unicode="h" horiz-adv-x="692" 
d="M379 430q0 -100 -2.5 -128t-3.5 -45q125 0 201 -60q45 -36 65 -85q14 -35 14 -73q0 -29 -20 -37q-10 -4 -37 -4h-17l-17 1l-23 1h-254q-21 0 -28 12.5t-7 61.5q0 4 5 145q2 56 2 106l6 105h-23q-47 0 -73 -12q-44 -20 -44 -75q0 -13 2.5 -24.5t9.5 -32.5l-52 -9
q-7 25 -18.5 51t-32.5 57q-11 18 -17.5 32.5t-6.5 23.5q0 12 9.5 24.5t19.5 12.5q8 0 25 -3t36 -6t63.5 -4t66.5 -1h37q0 190 8.5 234t37.5 44h76q24 0 24 -15q0 -44 -8 -66q-20 -55 -20 -197h150q19 0 32 1l26 2q20 0 20 -21q0 -9 -2.5 -16t-14.5 -28t-24 -51t-22 -62
l-43 4q2 7 4.5 22t2.5 29q0 53 -22 69.5t-66 16.5h-45zM374 34h114l17 1l1 32q0 47 -20 80q-34 55 -113 65q-1 -9 -1.5 -19t-0.5 -17v-17q0 -36 1.5 -79t1.5 -46z" />
    <glyph glyph-name="i" unicode="i" horiz-adv-x="262" 
d="M154 0h-47q-19 0 -26 13t-7 61q0 46 -1 74q-4 111 -4 119q0 133 8 166t30 33l34 -1l41 2h11q13 -2 13 -16q-6 -29 -11 -75.5t-5 -104.5q0 -98 2.5 -133t12.5 -109q1 -4 1 -10q0 -10 -10.5 -14.5t-41.5 -4.5zM107 650h34l52 1q13 0 13 -15l-1 -48l1 -46q0 -14 -13 -16h-11
l-41 2l-34 -1q-16 0 -20 9t-4 53q0 42 7 54q4 7 17 7z" />
    <glyph glyph-name="j" unicode="j" horiz-adv-x="664" 
d="M351 -1v-255h-82v255h-141q-15 0 -17 1.5t-2 17.5v22q0 53 -16 147q-19 114 -53 211q-11 31 -13 39.5t-2 17.5q0 8 8 12q4 2 14 0l50 -2h50q11 0 17.5 -17t17.5 -88l11 -69l9.5 -55t10.5 -70l13 -97l4 -36h39l-8 506q0 5 -2.5 32.5t-2.5 44.5q0 50 -3.5 59t-3.5 33
q0 22 7 28t20 6l29 -1l46 1h11q12 -2 12 -6l-3 -26t-2 -45l-5 -126l-12 -506h47q5 24 6.5 34.5t1.5 37.5q0 206 64 301q47 70 120 70q27 0 37.5 -5.5t10.5 -14.5t-6.5 -21.5l-12.5 -23.5q-2 -5 -3.5 -14.5t-1.5 -19.5v-11l-2 -40l-23 -1q-7 26 -39 26q-42 0 -65 -52
q-12 -27 -20.5 -72.5t-11.5 -63.5q-11 -60 -11 -94q0 -37 -2.5 -52t-7.5 -18h-11h-71z" />
    <glyph glyph-name="k" unicode="k" horiz-adv-x="525" 
d="M113 582h103l33 -83q5 19 6 22q5 13 8 20q9 25 18 36q16 20 42 20q20 0 35 -5.5t23 -18.5l-12 -18q-10 -14 -14 -23q-7 -17 -5 -37h-19q-3 10 -10.5 14t-13.5 4q-10 0 -20.5 -9.5t-13.5 -27.5q62 0 106 -28q52 -33 52 -96q0 -48 -22 -77q-31 -42 -104 -53q91 -22 128 -64
q30 -35 30 -93q0 -67 -30.5 -100.5t-77.5 -33.5q-27 0 -50 3t-61 17q-24 10 -50 19.5t-47 9.5q-36 0 -50.5 -20t-14.5 -49q0 -37 45 -58q38 -18 87 -18q17 0 37 11.5t27 14.5q30 16 48.5 21t34.5 5q41 0 78 -26q27 -19 71 -69l-20 -28q-34 27 -82.5 40.5t-93.5 13.5
q-12 0 -26 -2t-24 -4t-28.5 -6.5t-29.5 -4.5q-75 0 -121 35t-46 96q0 29 19 51q26 30 76 30q28 0 55 -8q31 -12 44 -16q32 -10 45 -12t25 -2q29 0 36 54q3 23 3 51q0 65 -20 96q-23 35 -75 35q-41 0 -60 -34q-14 -25 -14 -63q0 -13 1 -18h-117q0 78 57 112q33 20 90.5 27
t76.5 21q37 27 37 97q0 42 -11 63q-18 34 -63 34q-38 0 -57 -23q-28 -33 -28 -119h-102q0 63 30 110q37 58 105 58z" />
    <glyph glyph-name="l" unicode="l" 
 />
    <glyph glyph-name="m" unicode="m" horiz-adv-x="803" 
d="M463 34h156q-4 48 -7 117.5t-3 115.5q0 134 7.5 166.5t30.5 32.5l30 -1h17h15q10 2 14 2h11q13 -2 13 -16q0 -9 -2 -18q-7 -30 -9 -47.5t-4 -46.5t-2 -68q0 -84 5 -135.5t11 -106.5q0 -18 -6.5 -23.5t-45.5 -5.5h-236q0 -61 2 -86.5t13 -106.5q2 -14 -2 -21t-27 -7h-47
q-25 0 -35 26q-18 47 -18 195h-250q-25 0 -31.5 41.5t-6.5 225.5q0 134 7.5 166.5t30.5 32.5l30 -1h17h15q10 2 14 2h11q13 -2 13 -16q0 -9 -2 -18q-7 -30 -8 -37.5t-4 -46t-3 -78.5q0 -47 2 -84q7 -128 7 -153h156q-4 32 -6.5 81.5t-2.5 151.5q0 135 11 174q7 25 28 25
l30 -1l46 2h10q13 -2 13 -16q0 -9 -5.5 -44.5t-8.5 -64t-3 -71.5q0 -29 2.5 -78.5t2.5 -61.5z" />
    <glyph glyph-name="n" unicode="n" 
 />
    <glyph glyph-name="o" unicode="o" horiz-adv-x="443" 
d="M39 203q0 115 72 213q62 84 107 84q50 0 109 -56q77 -73 77 -183q0 -91 -64.5 -193t-116.5 -102t-116 77q-68 82 -68 160zM141 388q-31 -39 -31 -80q0 -69 41 -135q52 -84 134 -84q13 0 20 1q9 17 13 35.5t4 37.5q0 84 -48 148q-51 68 -133 77z" />
    <glyph glyph-name="p" unicode="p" horiz-adv-x="471" 
d="M147 72l4 -34q2 -13 5.5 -58t3.5 -102q0 -75 -16.5 -104.5t-46.5 -29.5q-20 0 -23 10v6q1 7 1 23.5v28.5v30v26v21q0 16 -1 37t-4 49l-14 148.5t-4 87.5q0 119 76 211q64 77 112 77q52 0 112 -92q67 -102 67 -220q0 -89 -39.5 -145.5t-100.5 -56.5q-38 0 -75 25.5
t-57 61.5zM175 405q-24 -35 -33 -70t-9 -85q0 -88 45 -150q39 -54 80 -54q20 0 33 13q21 20 21 64v37q0 59 -39 135q-43 83 -98 110z" />
    <glyph glyph-name="q" unicode="q" horiz-adv-x="899" 
d="M42 203q0 115 72 213q62 84 107 84q50 0 109 -56q77 -73 77 -183q0 -91 -64.5 -193t-116.5 -102t-116 77q-68 82 -68 160zM144 388q-31 -39 -31 -80q0 -69 41 -135q52 -84 134 -84q13 0 20 1q9 17 13 35.5t4 37.5q0 84 -48 148q-51 68 -133 77zM873 326l-23 -1
q-8 26 -38 26q-41 0 -68 -61q-39 -89 -39 -292q0 -127 13 -180q7 -29 7 -67q0 -11 -15.5 -17t-70.5 -6q-13 0 -15.5 5.5t-2.5 17.5q0 48 3 81.5t16 117.5l7 50h-58q-42 0 -56.5 -1t-26.5 -2q-10 0 -11 10q1 8 1 11v22q0 71 -22 181.5t-51 189.5q-5 13 -8 25.5t-3 18.5
q0 12 19 12q13 -1 17 -1q6 -1 15.5 -1h15.5h13h25h15q10 0 14 -6.5t8 -33.5l7 -34l17 -90q11 -57 22 -128q15 -95 15 -123l2 -17h40q7 80 19 150q8 48 20 100q18 77 41 117q43 76 115 76q22 0 34.5 -3.5t12.5 -16.5q0 -11 -6.5 -23.5l-11 -21.5t-5.5 -15.5t-1 -16.5v-13v-21
q0 -12 -2 -19z" />
    <glyph glyph-name="r" unicode="r" horiz-adv-x="930" 
d="M183 286l-52 -9q-12 37 -23.5 61.5t-34.5 57.5q-7 11 -12 21.5t-5 23.5q0 15 9 26t20 11q8 0 25.5 -3t35 -5t55.5 -3.5t75 -1.5h93l57 1q13 0 13 -16q0 -8 -4 -21q-10 -32 -10 -77q-3 -39 -3 -75v-21q68 0 123 -20q39 -14 71 -39q38 -29 58.5 -71t20.5 -87q0 -26 -14 -35
q-9 -6 -31 -6h-12l-34 1l-23 1h-248q-18 0 -26 10t-8 29v132q0 105 2 152.5t9 107.5h-22q-73 0 -99 -29q-18 -20 -18 -59q0 -17 4 -32t8 -25zM423 34h114l17 1l1 32q0 47 -20 80q-34 55 -113 65q-1 -9 -1.5 -19t-0.5 -17v-17q0 -36 1.5 -79t1.5 -46zM822 0h-47q-19 0 -26 13
t-7 61q0 46 -1 74q-4 110 -4 118q0 133 8 166t30 33l34 -1l41 2h11q13 -2 13 -16q-6 -29 -11 -75t-5 -105q0 -110 5 -165q1 -9 10 -76q1 -4 1 -10q0 -10 -10.5 -14.5t-41.5 -4.5z" />
    <glyph glyph-name="s" unicode="s" horiz-adv-x="582" 
d="M38 -90l-26 22q50 82 100 111q30 17 70 17q22 0 40 -5q24 -9 36.5 -12.5t26.5 -6.5t24 -3q48 0 72 42q19 33 19 77q0 33 -24.5 55.5t-69.5 22.5q-12 0 -26 -3t-21 -4q-67 -13 -109 -13q-43 0 -75 23q-45 32 -45 97q0 85 83 122q54 24 126 24q79 0 148 -35q61 -31 61 -54
q0 -9 -44 -29t-61 -20q-3 0 -6 6t-8 19q-16 39 -32.5 54t-40.5 15q-41 0 -65.5 -22.5t-24.5 -58.5q0 -37 28.5 -61.5t76.5 -24.5q18 0 33 3q22 6 33 8l39 10q24 6 37 6q69 0 103 -51q24 -37 24 -82q0 -62 -37 -109q-55 -70 -172 -70q-15 0 -37 4t-42 7l-43 3q-52 0 -87 -17
q-24 -11 -54 -40z" />
    <glyph glyph-name="t" unicode="t" 
 />
    <glyph glyph-name="u" unicode="u" horiz-adv-x="525" 
d="M113 647l23 -24q-19 -18 -31 -38q-15 -25 -15 -48q0 -30 21 -57q18 -23 86 -68l35 -23q19 -14 46 -36l47 36q78 58 104 87q42 47 42 100q0 42 -11 66.5t-42 60.5l22 34q40 -12 44 -13q24 -6 45 -6h11q8 2 12 2h8q4 -7 4 -9v-10q0 -108 -31 -164q-47 -85 -218 -214
q57 -49 80 -83q30 -44 30 -96q0 -66 -47.5 -110.5t-124.5 -44.5q-78 0 -123 39.5t-45 102.5q0 44 25 81q15 22 46 49l22 20l-45 32q-55 37 -78 64q-38 44 -38 99q0 50 30 98q25 41 66 73zM219 256q-43 -30 -64 -66q-17 -29 -17 -58q0 -41 32 -71t84 -30q43 0 68 25t25 57
q0 34 -30.5 69.5t-76.5 60.5z" />
    <glyph glyph-name="v" unicode="v" horiz-adv-x="501" 
d="M476 326h-25q-8 25 -38 25q-42 0 -65 -52q-12 -26 -22 -82q-15 -85 -16 -93q-5 -33 -5 -55t-1.5 -37.5t-4.5 -24t-16 -8.5h-155q-15 0 -17 1.5t-2 17.5v22q0 58 -21 170t-48 188q-10 29 -12.5 39t-2.5 18t8 12q4 2 14 0l50 -2h33q21 0 24.5 -1t7.5 -12t12.5 -56.5
t19.5 -112.5l11 -67q8 -46 12 -75.5t8 -70.5l5 -37h31q7 84 9 99q9 80 27 151q25 103 64.5 148.5t91.5 45.5q21 0 34.5 -5t13.5 -16q0 -25 -12.5 -35.5t-12.5 -54.5v-40z" />
    <glyph glyph-name="w" unicode="w" horiz-adv-x="691" 
d="M358 137q-20 -43 -61.5 -89.5t-76.5 -66.5q-115 83 -165 205q-34 84 -34 176q0 30 1.5 47.5t5 38.5t20.5 18l25 -1h21l36 1q15 1 15 -12q0 -4 -2 -18t-2 -37q0 -84 21 -153q30 -100 103 -169q24 22 40 43.5t33 54.5q-23 44 -36 102t-13 130l1 46q0 14 13 14q5 -1 8 -1
l24 -1h23l29 1q14 0 18 -3t4 -14l-2 -53q0 -105 34 -190q31 -78 87 -121q30 30 46.5 74.5t16.5 83.5q0 53 -30 123q-2 4 -11 28q-18 47 -18 54q0 10 7.5 13.5t21.5 3.5h17h20h12h8h23h13q9 0 12.5 -8t3.5 -30l-3 -58q0 -93 -27 -167q-42 -115 -156 -221q-41 36 -70.5 72
t-55.5 84z" />
    <glyph glyph-name="x" unicode="x" horiz-adv-x="470" 
d="M41 465h65q8 0 13.5 1l11.5 2q7 0 12 -5.5t9.5 -17l11.5 -28.5l33.5 -83.5t24.5 -56.5l18 -41q42 144 72.5 192t77.5 48q21 0 45 -11t24 -21q0 -13 -12 -25t-12 -59q-1 -16 -1 -25l2 -16l-19 -12q-16 17 -28 22.5t-24 5.5q-29 0 -49.5 -33t-49.5 -120l38 -89
q31 -71 46.5 -103.5l33.5 -69.5l26.5 -54.5t35.5 -62.5q13 -21 13 -34q0 -14 -13 -14h-93q-13 0 -21.5 9.5t-20.5 40.5q-5 14 -15 36q-6 14 -20 42l-46 102l-30 69q-57 -198 -96 -261q-24 -38 -53 -38q-21 0 -29 6.5t-8 16.5q0 8 7 20l15 23q35 48 77 141t58 158l-30 68
l-13.5 27.5t-14.5 33.5l-33 70l-27 58q-10 23 -19 39q-12 23 -12 29q0 14 4 17t15 3z" />
    <glyph glyph-name="y" unicode="y" horiz-adv-x="506" 
d="M224 34h40q8 92 18 151q7 41 21 98q18 77 41 117q43 76 115 76q22 0 34.5 -3.5t12.5 -16.5q0 -9 -6 -21l-11 -22.5t-6 -17t-1 -16.5v-13v-21q0 -12 -2 -19l-23 -1q-8 26 -38 26q-41 0 -68 -61q-39 -89 -39 -292q0 -127 13 -180q7 -29 7 -67q0 -11 -15.5 -17t-70.5 -6
q-13 0 -15.5 5.5t-2.5 17.5q0 48 3 81.5t16 117.5l7 50h-58q-42 0 -56.5 -1t-26.5 -2q-10 0 -11 10q1 8 1 11v22q0 71 -22 181.5t-51 189.5q-5 13 -8 25.5t-3 18.5q0 12 19 12q13 -1 17 -1q6 -1 15.5 -1h15.5h13h25h15q10 0 14 -6.5t8 -33.5l7 -34l17 -90q10 -53 23.5 -137
t13.5 -113z" />
    <glyph glyph-name="z" unicode="z" horiz-adv-x="526" 
d="M202 294h-59q-6 23 -17.5 49t-24 45t-16.5 27q-9 17 -9 29q0 11 7 18.5t24 7.5q31 0 58 -2.5t65 -2.5h170l17 1h15q34 0 52 -6.5t18 -25.5q0 -14 -9 -28.5t-35 -38.5l-35 -32l-46 -41q-83 -71 -110 -96q-48 -44 -76.5 -79t-28.5 -56q0 -13 10.5 -18t27.5 -5h17l62 2
q97 0 140 -13q87 -26 87 -107q0 -64 -66 -119q-51 -42 -122 -66l-14 26q31 22 51.5 55t20.5 60q0 75 -56 105q-35 19 -82 19h-71l-85 -2q-37 0 -51.5 16.5t-14.5 46.5q0 25 31 54q23 19 32 27q66 55 169 124l135 90q55 40 55 60q0 9 -6.5 11.5t-14.5 2.5h-8l-9 -1h-85
q-57 0 -77 -4q-52 -11 -52 -58q0 -34 16 -75z" />
    <glyph glyph-name="braceleft" unicode="{" horiz-adv-x="526" 
d="M343 -92v109q-19 -10 -52 -18.5t-72 -8.5q-88 0 -137 69q-43 61 -43 149q0 150 82 218q60 50 147 50q82 0 147 -37q72 -41 72 -104q0 -25 -18 -25q-5 0 -11.5 1t-10.5 1l-38 2l-26 -1q-13 -2 -18 0q-5 3 -7.5 10.5t-5.5 24.5q-8 35 -17 51q-18 32 -53 32q-47 0 -74 -36
q-35 -46 -35 -147q0 -79 16 -120q28 -71 104 -71q21 0 50 6q0 71 5.5 89.5t24.5 18.5l29 -1l44 1h11q13 -2 13 -15q0 -12 -3 -32q-7 -48 -7 -120q0 -31 1.5 -65.5t6.5 -74.5q1 -14 -1 -18q-6 -11 -30 -11h-63q-18 0 -24.5 12.5t-6.5 60.5zM147 640h215q7 4 7 6q-1 4 -1 7v4
q2 4 2 13q0 6 -3 27q-2 15 3.5 22t29.5 7h44q14 0 20 -5q10 -9 10 -35q0 -52 -11.5 -66.5t-38.5 -14.5q-15 1 -23 1h-208h-5q-5 0 -9 -6v-8v-9q0 -23 2 -35q3 -21 -5.5 -25t-26.5 -4h-45q-14 0 -20 5q-10 8 -10 34q0 53 14 70q11 13 37 13q14 -1 22 -1z" />
    <glyph glyph-name="bar" unicode="|" horiz-adv-x="996" 
d="M141 286l-52 -9q-12 37 -23.5 61.5t-34.5 57.5q-7 11 -12 21.5t-5 23.5q0 15 9 26t20 11q8 0 25.5 -3t35 -5t55.5 -3.5t75 -1.5h93l57 1q13 0 13 -16q0 -8 -4 -21q-10 -32 -10 -77q-3 -39 -3 -75v-21q68 0 123 -20q39 -14 71 -39q49 -38 68 -93q11 -32 11 -65
q0 -26 -14 -35q-9 -6 -31 -6h-12l-34 1l-23 1h-248q-18 0 -26 10t-8 29v132q0 105 2 152.5t9 107.5h-22q-73 0 -99 -29q-18 -20 -18 -59q0 -17 4 -32t8 -25zM381 34h114l17 1l1 32q0 47 -20 80q-34 55 -113 65q-1 -9 -1.5 -19t-0.5 -17v-17q0 -36 1.5 -79t1.5 -46zM692 266
q0 135 7.5 167.5t30.5 32.5l30 -1h17h15q10 2 14 2h11q12 -3 12 -16q0 -9 -6 -47t-8.5 -79.5t-2.5 -141.5q0 -15 -0.5 -29.5t-0.5 -28.5q0 -41 6 -59t27 -18q40 0 69 19t58 19q14 0 14 -14l-1 -19q0 -16 -17 -23q-38 -16 -75 -25q-62 -16 -122 -16q-51 0 -65 26.5t-14 108.5
v66.5t1 75.5z" />
    <glyph glyph-name="braceright" unicode="}" horiz-adv-x="498" 
d="M268 39v121q-17 -4 -34 -6t-36 -2q-69 0 -112 32q-50 38 -50 111q0 99 68 145q54 36 144 36q78 0 148 -36q61 -31 61 -53q0 -9 -44 -29t-61 -20q-3 0 -7.5 8.5t-9.5 21.5q-12 34 -29 49t-41 15q-44 0 -71 -31.5t-27 -92.5q0 -60 40 -87q26 -18 60 -18q-1 8 -1 12
q0 22 10 29.5t21 7.5l29 -1l46 1h11q13 -2 13 -15q-3 -18 -5 -37t-2 -51q0 -26 2 -59t6 -61q2 -15 -2 -20q-7 -9 -35 -9h-61q-9 0 -14 2q-17 7 -17 37zM123 640l216 -1h6q9 0 8 5v21q0 6 -1 20t-1 20q0 17 2 20q6 8 32 8h46q15 0 21 -5q10 -9 10 -35q0 -58 -12 -73t-52 -15
h-26t-29 1h-10h-163h-5l-3 -1q-4 0 -5 -2l-1 -3q-2 -4 -2 -11q0 -3 2 -18.5t2 -27.5q0 -22 -11 -28q-6 -3 -23 -3h-46q-15 0 -21 5q-10 8 -10 34q0 58 14 76q10 13 40 13h22z" />
    <glyph glyph-name="asciitilde" unicode="~" horiz-adv-x="554" 
d="M177 251h68q0 99 82 164.5t191 65.5v-29q-72 -27 -102 -74.5t-30 -126.5h124v-38h-124q0 -75 31.5 -126.5t100.5 -73.5v-30q-105 13 -175 58q-98 63 -98 172h-69q0 -83 5 -120q7 -36 11 -64q1 -4 1 -10q0 -10 -10.5 -14.5t-41.5 -4.5h-47q-26 0 -32.5 41.5t-6.5 224.5
q0 132 8 165.5t31 33.5h30l46 1h10q7 -2 10.5 -4.5t3.5 -11.5q-6 -26 -11.5 -74t-5.5 -125z" />
    <glyph glyph-name="c128" 
 />
    <glyph glyph-name="c128" unicode="&#x402;" 
 />
    <glyph glyph-name="c129" horiz-adv-x="603" 
d="M39 700h376q49 0 108 8q13 2 23.5 4t15.5 2q18 0 25.5 -11t7.5 -28q0 -9 -6 -24l-14 -36.5t-9 -28t-8 -45.5t-5 -36q-6 -21 -25 -21q-18 0 -25 18q-2 5 -7 24q-23 84 -63 113q-26 19 -76 19h-23h-57v-616h83v-42h-321v42h83v616h-83v42z" />
    <glyph glyph-name="c129" unicode="&#x403;" horiz-adv-x="603" 
d="M39 700h376q49 0 108 8q13 2 23.5 4t15.5 2q18 0 25.5 -11t7.5 -28q0 -9 -6 -24l-14 -36.5t-9 -28t-8 -45.5t-5 -36q-6 -21 -25 -21q-18 0 -25 18q-2 5 -7 24q-23 84 -63 113q-26 19 -76 19h-23h-57v-616h83v-42h-321v42h83v616h-83v42z" />
    <glyph glyph-name="quotesinglbase" unicode="&#x201a;" horiz-adv-x="249" 
d="M69 -160l-19 21q26 22 40 42q22 30 22 54q0 11 -0.5 22t-3.5 22q-6 -1 -16 -1q-17 0 -22 6t-5 22v16t1 19q0 42 4.5 51.5t18.5 9.5l34 -1l19 1l22 1h10q13 -2 13 -15l-3 -63q0 -52 -15 -92q-27 -71 -100 -115z" />
    <glyph glyph-name="florin" unicode="&#x192;" horiz-adv-x="432" 
d="M246 431h-60q-12 -78 -12 -161q0 -77 5.5 -132t11.5 -109q0 -17 -4 -21q-7 -8 -36 -8h-60q-26 0 -32 40.5t-6 225.5q0 133 7.5 166.5t30.5 33.5l42 -1q56 0 122 1l130 2q24 0 35.5 -3t11.5 -18q0 -14 -17 -44l-19 -39q-9 -18 -12 -26.5t-5 -16.5l-10 -30l-42 4l4 32.5
t2 18.5q0 51 -22 68t-65 17z" />
    <glyph glyph-name="quotedblbase" unicode="&#x201e;" 
 />
    <glyph glyph-name="ellipsis" unicode="&#x2026;" 
 />
    <glyph glyph-name="dagger" unicode="&#x2020;" 
 />
    <glyph glyph-name="daggerdbl" unicode="&#x2021;" horiz-adv-x="1000" 
 />
    <glyph glyph-name="circumflex" unicode="&#x2c6;" horiz-adv-x="1000" 
 />
    <glyph glyph-name="perthousand" unicode="&#x2030;" horiz-adv-x="943" 
d="M627 0h-311v42h83v89l-39 -11q-32 -10 -48.5 -13t-50.5 -3q-85 0 -148 48q-69 52 -69 132q0 85 78 162q43 42 137 101q50 31 65 42q21 15 75 59v10h-84v42h313v-42h-84v-10q54 -44 75 -59q15 -11 65 -42q94 -59 136 -100q79 -78 79 -163q0 -80 -68 -132q-63 -48 -149 -48
q-32 0 -49.5 3t-49.5 13l-39 11v-89h83v-42zM544 599v-433q22 -5 47 -5q68 0 108 56q34 48 34 114q0 51 -25 97q-21 39 -67 85q-32 32 -97 86zM399 599q-100 -83 -135 -127q-54 -68 -54 -141q0 -67 33 -114q39 -56 109 -56q25 0 47 5v433zM572 801h-244q-19 0 -19 -11v-7
q0 -23 -8 -32t-38 -9h-66q-22 0 -28 4q-12 8 -12 40q0 35 19.5 48t57.5 13q15 0 55 -2t48 -2h244h8q9 3 10 5l1 5v3v6q0 26 7.5 33.5t38.5 7.5h66q19 0 28 -6q15 -10 15 -39q0 -37 -22 -49q-16 -9 -57 -9h-27z" />
    <glyph glyph-name="Scaron" unicode="&#x160;" 
 />
    <glyph glyph-name="guilsinglleft" unicode="&#x2039;" 
 />
    <glyph glyph-name="OE" unicode="&#x152;" 
 />
    <glyph glyph-name="c141" horiz-adv-x="719" 
d="M277 391h37l14 28l16 36l21 43q60 121 78 145q52 71 121 71q23 0 46 -5t42 -13q-19 -48 -21 -55t-4 -34q-3 -22 -3 -31.5v-16.5h-20l-32 13q-14 7 -26 9.5t-28 2.5q-60 0 -163 -204q128 -29 190 -88q89 -84 89 -250h60v-42h-272v42h39q0 147 -30 209q-40 83 -154 105
v-314h62v-42h-300v42h83v616h-83v42h307v-42h-69v-267z" />
    <glyph glyph-name="c141" unicode="&#x40c;" horiz-adv-x="719" 
d="M277 391h37l14 28l16 36l21 43q60 121 78 145q52 71 121 71q23 0 46 -5t42 -13q-19 -48 -21 -55t-4 -34q-3 -22 -3 -31.5v-16.5h-20l-32 13q-14 7 -26 9.5t-28 2.5q-60 0 -163 -204q128 -29 190 -88q89 -84 89 -250h60v-42h-272v42h39q0 147 -30 209q-40 83 -154 105
v-314h62v-42h-300v42h83v616h-83v42h307v-42h-69v-267z" />
    <glyph glyph-name="c142" horiz-adv-x="775" 
d="M322 654v-174q64 -46 107 -63q54 -22 121 -22h26q10 0 19.5 1.5t15.5 1.5q4 0 12 -2q22 -7 28 -30q2 -8 2 -35v-289h83v-42h-293v42h55v96v141l-1 24q0 30 -15 42q-7 5 -36 13.5t-65.5 26.5t-58.5 35v-378h56v-42h-294v42h83v612h-148v42h148v156l155 42v-198h268v-42
h-268z" />
    <glyph glyph-name="c142" unicode="&#x40b;" horiz-adv-x="775" 
d="M322 654v-174q64 -46 107 -63q54 -22 121 -22h26q10 0 19.5 1.5t15.5 1.5q4 0 12 -2q22 -7 28 -30q2 -8 2 -35v-289h83v-42h-293v42h55v96v141l-1 24q0 30 -15 42q-7 5 -36 13.5t-65.5 26.5t-58.5 35v-378h56v-42h-294v42h83v612h-148v42h148v156l155 42v-198h268v-42
h-268z" />
    <glyph glyph-name="c143" 
 />
    <glyph glyph-name="c143" unicode="&#x40f;" 
 />
    <glyph glyph-name="c144" 
 />
    <glyph glyph-name="c144" unicode="&#x452;" 
 />
    <glyph glyph-name="quoteleft" unicode="&#x2018;" 
 />
    <glyph glyph-name="quoteright" unicode="&#x2019;" horiz-adv-x="249" 
d="M69 453l-19 21q28 26 40 43q22 29 22 54q0 10 -0.5 21.5t-3.5 22.5q-6 -1 -16 -1q-17 0 -22 6t-5 22q1 20 1 34q0 40 4.5 51t18.5 11l34 -1h19l22 2h10q13 -2 13 -16q0 -115 -17 -160q-23 -60 -101 -110z" />
    <glyph glyph-name="quotedblleft" unicode="&#x201c;" 
 />
    <glyph glyph-name="quotedblright" unicode="&#x201d;" 
 />
    <glyph glyph-name="bullet" unicode="&#x2022;" horiz-adv-x="526" 
d="M152 243q0 49 34 80t77 31q42 0 76.5 -31.5t34.5 -79.5t-34 -79t-77 -31t-77 31t-34 79z" />
    <glyph glyph-name="endash" unicode="&#x2013;" horiz-adv-x="638" 
d="M297 465h71h10h5q5 -1 9 -21.5t9.5 -32t18.5 -28t39 -44.5q56 -60 100 -130q65 -104 65 -181q0 -19 -4 -24t-18 -5q-16 1 -27 1h-547q-14 0 -14 15v12q0 79 57 154q26 35 92 93q72 65 90 94t18 63l-1 15q-1 15 5 17t22 2zM187 211h236q-14 22 -20 30l-22 27l-30 38
l-55 79q-11 -43 -40.5 -90.5t-68.5 -83.5zM145 38h344q1 8 1 12q0 28 -12 58.5t-32 62.5h-277q-25 -45 -25 -115q0 -12 1 -18z" />
    <glyph glyph-name="emdash" unicode="&#x2014;" horiz-adv-x="1051" 
d="M95 242h861v-55h-861v55z" />
    <glyph glyph-name="tilde" unicode="&#x2dc;" horiz-adv-x="1000" 
 />
    <glyph glyph-name="trademark" unicode="&#x2122;" 
 />
    <glyph glyph-name="scaron" unicode="&#x161;" 
 />
    <glyph glyph-name="guilsinglright" unicode="&#x203a;" 
 />
    <glyph glyph-name="oe" unicode="&#x153;" 
 />
    <glyph glyph-name="c157" horiz-adv-x="471" 
d="M174 252h8q68 123 129 178q51 46 95 46q17 0 30 -5t13 -11q-11 -20 -20 -42t-9 -61l-1 -21l-26 -1q-6 14 -19.5 22.5t-26.5 8.5q-25 0 -58 -28t-56 -66l-21 -30q130 -37 195 -122q45 -59 45 -110q0 -14 -21 -14q-11 0 -16 1l-36 3q-21 0 -35 -2t-17 -2q-9 0 -13 8t-8 35
q-10 64 -45 112.5t-87 65.5q0 -47 3 -94t7 -96q1 -6 1 -9q0 -9 -9.5 -13.5t-37.5 -4.5h-47q-27 0 -32.5 39.5t-5.5 226.5q0 135 7.5 168t30.5 33l26 -2l50 3h11q12 -3 12 -16q0 -9 -4.5 -39t-8 -65.5t-3.5 -95.5z" />
    <glyph glyph-name="c157" unicode="&#x45c;" horiz-adv-x="471" 
d="M174 252h8q68 123 129 178q51 46 95 46q17 0 30 -5t13 -11q-11 -20 -20 -42t-9 -61l-1 -21l-26 -1q-6 14 -19.5 22.5t-26.5 8.5q-25 0 -58 -28t-56 -66l-21 -30q130 -37 195 -122q45 -59 45 -110q0 -14 -21 -14q-11 0 -16 1l-36 3q-21 0 -35 -2t-17 -2q-9 0 -13 8t-8 35
q-10 64 -45 112.5t-87 65.5q0 -47 3 -94t7 -96q1 -6 1 -9q0 -9 -9.5 -13.5t-37.5 -4.5h-47q-27 0 -32.5 39.5t-5.5 226.5q0 135 7.5 168t30.5 33l26 -2l50 3h11q12 -3 12 -16q0 -9 -4.5 -39t-8 -65.5t-3.5 -95.5z" />
    <glyph glyph-name="c158" horiz-adv-x="553" 
d="M441 425h-191l-4 -59l-2 -39l-2 -49q71 0 119.5 -16t84.5 -45q51 -40 69 -100q10 -33 10 -78q0 -21 -8 -28q-12 -11 -49 -11h-57q-16 0 -19 7t-3 37q0 92 -31 139q-36 55 -117 55q-3 -39 -3 -104v-43q0 -13 2.5 -35.5t2.5 -26.5q0 -18 -6.5 -23.5t-45.5 -5.5h-38
q-22 0 -28 13.5t-6 60.5v97l5 123l7 131h-120l1 38h120l8 113q0 110 7 137t32 27l30 -1l46 1h11q12 -2 12 -15q0 -6 -6 -46t-9 -64q-11 -79 -11 -152h189v-38z" />
    <glyph glyph-name="c158" unicode="&#x45b;" horiz-adv-x="553" 
d="M441 425h-191l-4 -59l-2 -39l-2 -49q71 0 119.5 -16t84.5 -45q51 -40 69 -100q10 -33 10 -78q0 -21 -8 -28q-12 -11 -49 -11h-57q-16 0 -19 7t-3 37q0 92 -31 139q-36 55 -117 55q-3 -39 -3 -104v-43q0 -13 2.5 -35.5t2.5 -26.5q0 -18 -6.5 -23.5t-45.5 -5.5h-38
q-22 0 -28 13.5t-6 60.5v97l5 123l7 131h-120l1 38h120l8 113q0 110 7 137t32 27l30 -1l46 1h11q12 -2 12 -15q0 -6 -6 -46t-9 -64q-11 -79 -11 -152h189v-38z" />
    <glyph glyph-name="Ydieresis" unicode="&#x178;" 
 />
    <glyph glyph-name="nonbreakingspace" unicode="&#xa0;" horiz-adv-x="500" 
 />
    <glyph glyph-name="exclamdown" unicode="&#xa1;" 
 />
    <glyph glyph-name="exclamdown" unicode="&#x40e;" 
 />
    <glyph glyph-name="cent" unicode="&#xa2;" 
 />
    <glyph glyph-name="cent" unicode="&#x45e;" 
 />
    <glyph glyph-name="sterling" unicode="&#xa3;" horiz-adv-x="948" 
d="M571 199h33l18 68l18 64q41 152 48 172q31 96 70 148q47 63 109 63q22 0 44.5 -4.5t36.5 -15.5q-2 -8 -3.5 -12.5l-6.5 -19t-8.5 -34.5t-3.5 -65l-15 -1q-15 8 -30 13t-30 5q-54 0 -94 -64q-31 -50 -60 -150l-44 -167h37v-42h-119v-115h83v-42h-307v42h83v115h-186
l-162 512h-68v31h299v-31h-69l147 -470h39v621l141 32v-653z" />
    <glyph glyph-name="sterling" unicode="&#x408;" horiz-adv-x="948" 
d="M571 199h33l18 68l18 64q41 152 48 172q31 96 70 148q47 63 109 63q22 0 44.5 -4.5t36.5 -15.5q-2 -8 -3.5 -12.5l-6.5 -19t-8.5 -34.5t-3.5 -65l-15 -1q-15 8 -30 13t-30 5q-54 0 -94 -64q-31 -50 -60 -150l-44 -167h37v-42h-119v-115h83v-42h-307v42h83v115h-186
l-162 512h-68v31h299v-31h-69l147 -470h39v621l141 32v-653z" />
    <glyph glyph-name="currency" unicode="&#xa4;" horiz-adv-x="968" 
d="M318 700h245q19 -43 48.5 -88t110.5 -149q63 -82 95 -131q49 -74 73 -139q29 -77 29 -151h29v-42h-246v42h38q0 65 -21 129t-73 147q-26 -12 -47 -18t-49 -11v-247h55v-42h-264v42h55v247q-49 9 -87 23q-21 8 -39 18q-28 -37 -43 -116q-11 -59 -11 -124q0 -27 4 -48h38
v-42h-238v42h30q0 98 30 175q25 64 78 129q33 41 102.5 107.5t106.5 115.5q33 44 51 89h-100v42zM450 613q-13 -32 -35 -65.5t-80 -108.5q-32 -41 -46 -65q33 -19 88 -31t93 -12q43 0 81.5 7t67.5 26q-28 49 -48 79q-32 49 -60 84q-16 19 -31.5 40t-29.5 46z" />
    <glyph glyph-name="yen" unicode="&#xa5;" 
 />
    <glyph glyph-name="yen" unicode="&#x490;" 
 />
    <glyph glyph-name="brokenbar" unicode="&#xa6;" horiz-adv-x="277" 
d="M77 413q0 42 5 51.5t19 9.5l34 -1l41 2h11q13 -2 13 -15l-1 -48l1 -47q0 -13 -13 -15h-11l-41 2l-34 -1q-18 0 -20 7t-3 25t-1 30zM77 63q0 42 5 51.5t19 9.5l34 -1l41 2h11q13 -2 13 -15l-1 -48l1 -47q0 -13 -13 -15h-11l-41 2l-34 -1q-18 0 -20 7t-3 25t-1 30z" />
    <glyph glyph-name="section" unicode="&#xa7;" 
 />
    <glyph glyph-name="dieresis" unicode="&#xa8;" horiz-adv-x="723" 
d="M362 350h37q-9 29 -27.5 44.5t-35.5 15.5q-32 0 -62.5 -11.5t-50.5 -34.5q6 -39 10.5 -60.5t14.5 -53.5q17 -57 21 -76q8 -38 8 -86q0 -20 -1.5 -28t-8.5 -25q14 -7 37 -7q86 0 136 52q37 39 50 98h-50v41h262v-41l-37 -1q-47 -83 -122 -135q-82 -56 -170 -56
q-42 0 -87.5 4.5t-76.5 14.5q2 7 2 14.5v11.5q0 35 -18 70q-14 27 -43 62q-68 84 -88 127.5t-20 101.5q0 170 116 255q92 67 226 67q84 0 149 -28q93 -40 128 -129h48v-42h-248v42h31q-8 45 -34 74q-36 41 -98 41q-73 0 -111 -72q-32 -61 -32 -148q0 -26 3 -49
q38 33 80.5 48t86.5 15q59 0 111 -31t71 -85h41v-42h-248v42zM440 844q0 39 5 47t18 8l34 -1l47 1h12q13 -2 13 -15l-1 -41l1 -45q0 -14 -13 -17h-12l-47 2l-34 -1q-15 0 -19 9t-4 53zM184 844q0 39 5 47t18 8l34 -1l47 1h12q13 -2 13 -15l-1 -41l1 -45q0 -14 -13 -17h-12
l-47 2l-34 -1q-15 0 -19 9t-4 53z" />
    <glyph glyph-name="dieresis" unicode="&#x401;" horiz-adv-x="723" 
d="M362 350h37q-9 29 -27.5 44.5t-35.5 15.5q-32 0 -62.5 -11.5t-50.5 -34.5q6 -39 10.5 -60.5t14.5 -53.5q17 -57 21 -76q8 -38 8 -86q0 -20 -1.5 -28t-8.5 -25q14 -7 37 -7q86 0 136 52q37 39 50 98h-50v41h262v-41l-37 -1q-47 -83 -122 -135q-82 -56 -170 -56
q-42 0 -87.5 4.5t-76.5 14.5q2 7 2 14.5v11.5q0 35 -18 70q-14 27 -43 62q-68 84 -88 127.5t-20 101.5q0 170 116 255q92 67 226 67q84 0 149 -28q93 -40 128 -129h48v-42h-248v42h31q-8 45 -34 74q-36 41 -98 41q-73 0 -111 -72q-32 -61 -32 -148q0 -26 3 -49
q38 33 80.5 48t86.5 15q59 0 111 -31t71 -85h41v-42h-248v42zM440 844q0 39 5 47t18 8l34 -1l47 1h12q13 -2 13 -15l-1 -41l1 -45q0 -14 -13 -17h-12l-47 2l-34 -1q-15 0 -19 9t-4 53zM184 844q0 39 5 47t18 8l34 -1l47 1h12q13 -2 13 -15l-1 -41l1 -45q0 -14 -13 -17h-12
l-47 2l-34 -1q-15 0 -19 9t-4 53z" />
    <glyph glyph-name="copyright" unicode="&#xa9;" 
 />
    <glyph glyph-name="ordfeminine" unicode="&#xaa;" 
 />
    <glyph glyph-name="ordfeminine" unicode="&#x404;" 
 />
    <glyph glyph-name="guillemotleft" unicode="&#xab;" 
 />
    <glyph glyph-name="logicalnot" unicode="&#xac;" 
 />
    <glyph glyph-name="minus" unicode="&#xad;" horiz-adv-x="1000" 
 />
    <glyph glyph-name="registered" unicode="&#xae;" 
 />
    <glyph glyph-name="macron" unicode="&#xaf;" 
 />
    <glyph glyph-name="macron" unicode="&#x407;" 
 />
    <glyph glyph-name="degree" unicode="&#xb0;" 
 />
    <glyph glyph-name="plusminus" unicode="&#xb1;" horiz-adv-x="1245" 
d="M360 700v-42h-83v-287h202q30 37 55 65l37 40q63 65 98 117q23 34 35 65h-100v42h233q17 -38 44 -78q36 -54 120 -159q68 -86 99 -131q50 -74 75 -139q29 -75 29 -151h30v-42h-246v42h38q0 63 -26 139.5t-69 136.5q-48 -20 -94 -27v-249h54v-42h-264v42h55v247
q-36 6 -57.5 13.5t-55.5 27.5q-25 -39 -39 -105t-14 -135q0 -27 4 -48h38v-42h-519v42h83v616h-83v42h321zM277 325v-283h73q0 101 35 183q22 52 61 100h-169zM735 613q-18 -46 -42 -79q-73 -100 -104 -160q28 -19 80 -31t87 -12q48 0 85.5 7.5t62.5 25.5q-35 60 -51 84
q-20 30 -57 79l-35 47.5t-26 38.5z" />
    <glyph glyph-name="twosuperior" unicode="&#xb2;" horiz-adv-x="415" 
d="M130 42v616h-83v42h321v-42h-83v-616h83v-42h-321v42h83z" />
    <glyph glyph-name="twosuperior" unicode="&#x406;" horiz-adv-x="415" 
d="M130 42v616h-83v42h321v-42h-83v-616h83v-42h-321v42h83z" />
    <glyph glyph-name="threesuperior" unicode="&#xb3;" horiz-adv-x="262" 
d="M154 0h-47q-19 0 -26 13t-7 61q0 46 -1 74q-4 111 -4 119q0 133 8 166t30 33l34 -1l41 2h11q13 -2 13 -16q-6 -29 -11 -75.5t-5 -104.5q0 -98 2.5 -133t12.5 -109q1 -4 1 -10q0 -10 -10.5 -14.5t-41.5 -4.5zM107 650h34l52 1q13 0 13 -15l-1 -48l1 -46q0 -14 -13 -16h-11
l-41 2l-34 -1q-16 0 -20 9t-4 53q0 42 7 54q4 7 17 7z" />
    <glyph glyph-name="threesuperior" unicode="&#x456;" horiz-adv-x="262" 
d="M154 0h-47q-19 0 -26 13t-7 61q0 46 -1 74q-4 111 -4 119q0 133 8 166t30 33l34 -1l41 2h11q13 -2 13 -16q-6 -29 -11 -75.5t-5 -104.5q0 -98 2.5 -133t12.5 -109q1 -4 1 -10q0 -10 -10.5 -14.5t-41.5 -4.5zM107 650h34l52 1q13 0 13 -15l-1 -48l1 -46q0 -14 -13 -16h-11
l-41 2l-34 -1q-16 0 -20 9t-4 53q0 42 7 54q4 7 17 7z" />
    <glyph glyph-name="acute" unicode="&#xb4;" 
 />
    <glyph glyph-name="acute" unicode="&#x491;" 
 />
    <glyph glyph-name="mu" unicode="&#xb5;" 
 />
    <glyph glyph-name="paragraph" unicode="&#xb6;" 
 />
    <glyph glyph-name="periodcentered" unicode="&#xb7;" 
 />
    <glyph glyph-name="periodcentered" unicode="&#x2219;" 
 />
    <glyph glyph-name="cedilla" unicode="&#xb8;" horiz-adv-x="498" 
d="M462 420l26 -31q-24 -16 -48 -25.5t-45 -9.5q-19 0 -35 8q-24 12 -52 44q-15 17 -23 24q-15 13 -29 13q-56 0 -71 -107q-6 -43 -6 -98q23 18 62 36q45 21 71 21q19 0 37 -6.5t42 -21.5q16 -10 26 -10q20 0 38 16l20 -27q-16 -18 -30 -31q-9 -8 -24 -19t-26.5 -17
t-26.5 -6q-16 0 -23 3t-24 14q-24 16 -40.5 23.5t-33.5 7.5q-21 0 -43 -12q-12 -7 -24 -17q0 -76 36.5 -128t102.5 -52q28 0 58.5 11.5t70.5 40.5l19 -21q-32 -34 -77.5 -55.5t-102.5 -21.5q-91 0 -156 44q-92 62 -92 193v34q0 81 50 153q62 89 164 89q46 0 92 -19
q24 -10 58 -31q12 -9 20.5 -13t16.5 -4q13 0 22 8zM133 650h34l54 1q13 0 13 -15l-2 -48l2 -46q0 -14 -13 -16h-11l-43 2l-34 -1q-17 0 -20 10.5t-3 38.5q0 10 -0.5 19.5t-0.5 18.5v11.5t4 14.5t20 10zM317 650h34l53 1q13 0 13 -15l-2 -48l2 -46q0 -14 -13 -16h-11l-42 2
l-34 -1q-17 0 -20 10.5t-3 38.5q0 10 -0.5 19.5t-0.5 18.5v11.5t4 14.5t20 10z" />
    <glyph glyph-name="cedilla" unicode="&#x451;" horiz-adv-x="498" 
d="M462 420l26 -31q-24 -16 -48 -25.5t-45 -9.5q-19 0 -35 8q-24 12 -52 44q-15 17 -23 24q-15 13 -29 13q-56 0 -71 -107q-6 -43 -6 -98q23 18 62 36q45 21 71 21q19 0 37 -6.5t42 -21.5q16 -10 26 -10q20 0 38 16l20 -27q-16 -18 -30 -31q-9 -8 -24 -19t-26.5 -17
t-26.5 -6q-16 0 -23 3t-24 14q-24 16 -40.5 23.5t-33.5 7.5q-21 0 -43 -12q-12 -7 -24 -17q0 -76 36.5 -128t102.5 -52q28 0 58.5 11.5t70.5 40.5l19 -21q-32 -34 -77.5 -55.5t-102.5 -21.5q-91 0 -156 44q-92 62 -92 193v34q0 81 50 153q62 89 164 89q46 0 92 -19
q24 -10 58 -31q12 -9 20.5 -13t16.5 -4q13 0 22 8zM133 650h34l54 1q13 0 13 -15l-2 -48l2 -46q0 -14 -13 -16h-11l-43 2l-34 -1q-17 0 -20 10.5t-3 38.5q0 10 -0.5 19.5t-0.5 18.5v11.5t4 14.5t20 10zM317 650h34l53 1q13 0 13 -15l-2 -48l2 -46q0 -14 -13 -16h-11l-42 2
l-34 -1q-17 0 -20 10.5t-3 38.5q0 10 -0.5 19.5t-0.5 18.5v11.5t4 14.5t20 10z" />
    <glyph glyph-name="onesuperior" unicode="&#xb9;" 
 />
    <glyph glyph-name="onesuperior" unicode="&#x2116;" 
 />
    <glyph glyph-name="ordmasculine" unicode="&#xba;" 
 />
    <glyph glyph-name="ordmasculine" unicode="&#x454;" 
 />
    <glyph glyph-name="guillemotright" unicode="&#xbb;" 
 />
    <glyph glyph-name="onequarter" unicode="&#xbc;" horiz-adv-x="664" 
d="M351 -1v-255h-82v255h-141q-15 0 -17 1.5t-2 17.5v22q0 53 -16 147q-19 114 -53 211q-11 31 -13 39.5t-2 17.5q0 8 8 12q4 2 14 0l50 -2h50q11 0 17.5 -17t17.5 -88l11 -69l9.5 -55t10.5 -70l13 -97l4 -36h39l-8 506q0 5 -2.5 32.5t-2.5 44.5q0 50 -3.5 59t-3.5 33
q0 22 7 28t20 6l29 -1l46 1h11q12 -2 12 -6l-3 -26t-2 -45l-5 -126l-12 -506h47q5 24 6.5 34.5t1.5 37.5q0 206 64 301q47 70 120 70q27 0 37.5 -5.5t10.5 -14.5t-6.5 -21.5l-12.5 -23.5q-2 -5 -3.5 -14.5t-1.5 -19.5v-11l-2 -40l-23 -1q-7 26 -39 26q-42 0 -65 -52
q-12 -27 -20.5 -72.5t-11.5 -63.5q-11 -60 -11 -94q0 -37 -2.5 -52t-7.5 -18h-11h-71z" />
    <glyph glyph-name="onequarter" unicode="&#x458;" horiz-adv-x="664" 
d="M351 -1v-255h-82v255h-141q-15 0 -17 1.5t-2 17.5v22q0 53 -16 147q-19 114 -53 211q-11 31 -13 39.5t-2 17.5q0 8 8 12q4 2 14 0l50 -2h50q11 0 17.5 -17t17.5 -88l11 -69l9.5 -55t10.5 -70l13 -97l4 -36h39l-8 506q0 5 -2.5 32.5t-2.5 44.5q0 50 -3.5 59t-3.5 33
q0 22 7 28t20 6l29 -1l46 1h11q12 -2 12 -6l-3 -26t-2 -45l-5 -126l-12 -506h47q5 24 6.5 34.5t1.5 37.5q0 206 64 301q47 70 120 70q27 0 37.5 -5.5t10.5 -14.5t-6.5 -21.5l-12.5 -23.5q-2 -5 -3.5 -14.5t-1.5 -19.5v-11l-2 -40l-23 -1q-7 26 -39 26q-42 0 -65 -52
q-12 -27 -20.5 -72.5t-11.5 -63.5q-11 -60 -11 -94q0 -37 -2.5 -52t-7.5 -18h-11h-71z" />
    <glyph glyph-name="onehalf" unicode="&#xbd;" horiz-adv-x="636" 
d="M567 499l-135 1q-13 0 -13 20q0 90 -30 129q-21 27 -52 27q-50 0 -71 -53q-13 -33 -13 -81l-3 -57q0 -85 47 -114q22 -14 97 -25q111 -17 162 -76q38 -45 38 -102q0 -74 -30 -123q-46 -76 -154 -76q-34 0 -59 4t-57 15.5t-58 20t-41 8.5q-44 0 -44 -69q0 -14 1 -22t2 -15
q0 -6 -14 -6q-4 0 -18 1t-22 1q-9 0 -20 -2t-33 -11q-12 -5 -14 -5q-8 0 -15 18.5t-7 43.5q0 55 32 91t91 36q47 0 153 -37q23 -8 31.5 -10.5t21.5 -2.5q47 0 66 58q12 37 12 102q0 56 -24 86q-32 40 -117 48.5t-123 28.5q-80 41 -80 145q0 109 85 168q72 50 173 50
q113 0 185 -66q63 -57 63 -128q0 -21 -13 -21z" />
    <glyph glyph-name="onehalf" unicode="&#x405;" horiz-adv-x="636" 
d="M567 499l-135 1q-13 0 -13 20q0 90 -30 129q-21 27 -52 27q-50 0 -71 -53q-13 -33 -13 -81l-3 -57q0 -85 47 -114q22 -14 97 -25q111 -17 162 -76q38 -45 38 -102q0 -74 -30 -123q-46 -76 -154 -76q-34 0 -59 4t-57 15.5t-58 20t-41 8.5q-44 0 -44 -69q0 -14 1 -22t2 -15
q0 -6 -14 -6q-4 0 -18 1t-22 1q-9 0 -20 -2t-33 -11q-12 -5 -14 -5q-8 0 -15 18.5t-7 43.5q0 55 32 91t91 36q47 0 153 -37q23 -8 31.5 -10.5t21.5 -2.5q47 0 66 58q12 37 12 102q0 56 -24 86q-32 40 -117 48.5t-123 28.5q-80 41 -80 145q0 109 85 168q72 50 173 50
q113 0 185 -66q63 -57 63 -128q0 -21 -13 -21z" />
    <glyph glyph-name="threequarters" unicode="&#xbe;" horiz-adv-x="582" 
d="M38 -90l-26 22q50 82 100 111q30 17 70 17q22 0 40 -5q24 -9 36.5 -12.5t26.5 -6.5t24 -3q48 0 72 42q19 33 19 77q0 33 -24.5 55.5t-69.5 22.5q-12 0 -26 -3t-21 -4q-67 -13 -109 -13q-43 0 -75 23q-45 32 -45 97q0 85 83 122q54 24 126 24q79 0 148 -35q61 -31 61 -54
q0 -9 -44 -29t-61 -20q-3 0 -6 6t-8 19q-16 39 -32.5 54t-40.5 15q-41 0 -65.5 -22.5t-24.5 -58.5q0 -37 28.5 -61.5t76.5 -24.5q18 0 33 3q22 6 33 8l39 10q24 6 37 6q69 0 103 -51q24 -37 24 -82q0 -62 -37 -109q-55 -70 -172 -70q-15 0 -37 4t-42 7l-43 3q-52 0 -87 -17
q-24 -11 -54 -40z" />
    <glyph glyph-name="threequarters" unicode="&#x455;" horiz-adv-x="582" 
d="M38 -90l-26 22q50 82 100 111q30 17 70 17q22 0 40 -5q24 -9 36.5 -12.5t26.5 -6.5t24 -3q48 0 72 42q19 33 19 77q0 33 -24.5 55.5t-69.5 22.5q-12 0 -26 -3t-21 -4q-67 -13 -109 -13q-43 0 -75 23q-45 32 -45 97q0 85 83 122q54 24 126 24q79 0 148 -35q61 -31 61 -54
q0 -9 -44 -29t-61 -20q-3 0 -6 6t-8 19q-16 39 -32.5 54t-40.5 15q-41 0 -65.5 -22.5t-24.5 -58.5q0 -37 28.5 -61.5t76.5 -24.5q18 0 33 3q22 6 33 8l39 10q24 6 37 6q69 0 103 -51q24 -37 24 -82q0 -62 -37 -109q-55 -70 -172 -70q-15 0 -37 4t-42 7l-43 3q-52 0 -87 -17
q-24 -11 -54 -40z" />
    <glyph glyph-name="questiondown" unicode="&#xbf;" horiz-adv-x="219" 
d="M41 267q0 134 7.5 166.5t30.5 32.5l34 -1l42 2h11q12 -3 12 -16q0 -10 -5.5 -43.5t-8 -64t-2.5 -72.5q0 -81 2 -120t13 -122q1 -4 1 -10q0 -10 -10.5 -14.5t-41.5 -4.5h-47q-27 0 -32.5 39.5t-5.5 227.5zM-6 650h34l53 1q13 0 13 -15l-2 -48l2 -46q0 -14 -13 -16h-11
l-42 2l-34 -1q-17 0 -20 10.5t-3 38.5v19.5t-1 18.5v11.5t4 14.5t20 10zM177 650h34l53 1q13 0 13 -15l-2 -48l2 -46q0 -14 -13 -16h-11l-42 2l-34 -1q-17 0 -20 10.5t-3 38.5q0 10 -0.5 19.5t-0.5 18.5v11.5t3.5 14.5t20.5 10z" />
    <glyph glyph-name="questiondown" unicode="&#x457;" horiz-adv-x="219" 
d="M41 267q0 134 7.5 166.5t30.5 32.5l34 -1l42 2h11q12 -3 12 -16q0 -10 -5.5 -43.5t-8 -64t-2.5 -72.5q0 -81 2 -120t13 -122q1 -4 1 -10q0 -10 -10.5 -14.5t-41.5 -4.5h-47q-27 0 -32.5 39.5t-5.5 227.5zM-6 650h34l53 1q13 0 13 -15l-2 -48l2 -46q0 -14 -13 -16h-11
l-42 2l-34 -1q-17 0 -20 10.5t-3 38.5v19.5t-1 18.5v11.5t4 14.5t20 10zM177 650h34l53 1q13 0 13 -15l-2 -48l2 -46q0 -14 -13 -16h-11l-42 2l-34 -1q-17 0 -20 10.5t-3 38.5q0 10 -0.5 19.5t-0.5 18.5v11.5t3.5 14.5t20.5 10z" />
    <glyph glyph-name="Agrave" unicode="&#xc0;" horiz-adv-x="691" 
d="M276 672h-77v42h311v-42h-79l184 -630h69v-42h-300v42h76l-75 259q-24 -115 -85 -207q-71 -108 -152 -108q-47 0 -77 27q-35 32 -35 93q0 54 25 122q22 59 63 132q29 50 81 130l43 64q31 48 31 89q0 12 -3 29zM356 396l-45 159q-33 -45 -58 -86q-21 -34 -38 -65
q-28 -49 -41 -81q-25 -59 -30 -107v-26q4 -27 19.5 -38t37.5 -11q55 0 104 98q41 82 51 157z" />
    <glyph glyph-name="Agrave" unicode="&#x410;" horiz-adv-x="691" 
d="M276 672h-77v42h311v-42h-79l184 -630h69v-42h-300v42h76l-75 259q-24 -115 -85 -207q-71 -108 -152 -108q-47 0 -77 27q-35 32 -35 93q0 54 25 122q22 59 63 132q29 50 81 130l43 64q31 48 31 89q0 12 -3 29zM356 396l-45 159q-33 -45 -58 -86q-21 -34 -38 -65
q-28 -49 -41 -81q-25 -59 -30 -107v-26q4 -27 19.5 -38t37.5 -11q55 0 104 98q41 82 51 157z" />
    <glyph glyph-name="Aacute" unicode="&#xc1;" horiz-adv-x="638" 
d="M39 700h357q74 0 76 8.5t71 8.5q15 0 24 -11t9 -28q0 -9 -6 -24l-14 -36.5t-9 -29t-8 -47t-5 -36.5q-6 -21 -25 -21q-18 0 -25 18q-2 5 -7 24q-23 84 -63 113q-26 19 -76 19h-23h-38v-251q33 -31 98.5 -55t118.5 -24l41 2q6 1 18 1q23 0 34.5 -13t11.5 -53v-195
q0 -40 -8 -52q-12 -18 -55 -18h-497v42h83v616h-83v42zM277 42h123q25 0 34.5 13t9.5 54v113q0 23 -6 32.5t-37 26.5q-48 26 -70 41q-32 22 -54 47v-327z" />
    <glyph glyph-name="Aacute" unicode="&#x411;" horiz-adv-x="638" 
d="M39 700h357q74 0 76 8.5t71 8.5q15 0 24 -11t9 -28q0 -9 -6 -24l-14 -36.5t-9 -29t-8 -47t-5 -36.5q-6 -21 -25 -21q-18 0 -25 18q-2 5 -7 24q-23 84 -63 113q-26 19 -76 19h-23h-38v-251q33 -31 98.5 -55t118.5 -24l41 2q6 1 18 1q23 0 34.5 -13t11.5 -53v-195
q0 -40 -8 -52q-12 -18 -55 -18h-497v42h83v616h-83v42zM277 42h123q25 0 34.5 13t9.5 54v113q0 23 -6 32.5t-37 26.5q-48 26 -70 41q-32 22 -54 47v-327z" />
    <glyph glyph-name="Acircumflex" unicode="&#xc2;" horiz-adv-x="650" 
d="M111 42v317q0 181 51 260q61 95 218 95q96 0 154 -49q54 -46 54 -112q0 -75 -51 -112q-41 -30 -105 -30q-24 0 -45.5 8t-45.5 24l-44 -55q52 -42 101.5 -60t109.5 -18h9q45 0 60 -15q11 -11 11 -38v-17v-159l-1 -27q0 -31 -8 -39q-15 -15 -69 -15h-482v42h83zM266 42h123
q25 0 34.5 13t9.5 54v113q0 23 -6 32.5t-37 26.5q-48 26 -70 41q-32 22 -54 47v-327zM266 404l58 79q13 -7 26.5 -12t19.5 -5q21 0 38 19q25 28 25 84q0 53 -22.5 78t-56.5 25q-55 0 -75 -69q-14 -47 -14 -140v-30.5t1 -28.5z" />
    <glyph glyph-name="Acircumflex" unicode="&#x412;" horiz-adv-x="650" 
d="M111 42v317q0 181 51 260q61 95 218 95q96 0 154 -49q54 -46 54 -112q0 -75 -51 -112q-41 -30 -105 -30q-24 0 -45.5 8t-45.5 24l-44 -55q52 -42 101.5 -60t109.5 -18h9q45 0 60 -15q11 -11 11 -38v-17v-159l-1 -27q0 -31 -8 -39q-15 -15 -69 -15h-482v42h83zM266 42h123
q25 0 34.5 13t9.5 54v113q0 23 -6 32.5t-37 26.5q-48 26 -70 41q-32 22 -54 47v-327zM266 404l58 79q13 -7 26.5 -12t19.5 -5q21 0 38 19q25 28 25 84q0 53 -22.5 78t-56.5 25q-55 0 -75 -69q-14 -47 -14 -140v-30.5t1 -28.5z" />
    <glyph glyph-name="Atilde" unicode="&#xc3;" horiz-adv-x="603" 
d="M39 700h376q49 0 108 8q13 2 23.5 4t15.5 2q18 0 25.5 -11t7.5 -28q0 -9 -6 -24l-14 -36.5t-9 -28t-8 -45.5t-5 -36q-6 -21 -25 -21q-18 0 -25 18q-2 5 -7 24q-23 84 -63 113q-26 19 -76 19h-23h-57v-616h83v-42h-321v42h83v616h-83v42z" />
    <glyph glyph-name="Atilde" unicode="&#x413;" horiz-adv-x="603" 
d="M39 700h376q49 0 108 8q13 2 23.5 4t15.5 2q18 0 25.5 -11t7.5 -28q0 -9 -6 -24l-14 -36.5t-9 -28t-8 -45.5t-5 -36q-6 -21 -25 -21q-18 0 -25 18q-2 5 -7 24q-23 84 -63 113q-26 19 -76 19h-23h-57v-616h83v-42h-321v42h83v616h-83v42z" />
    <glyph glyph-name="Adieresis" unicode="&#xc4;" horiz-adv-x="692" 
d="M522 700v-42h-56q7 -75 33.5 -225.5t54.5 -258.5q34 -131 55 -131q5 0 15 6t31 6q14 0 21.5 -10.5t7.5 -23.5q0 -7 -1.5 -11.5t-10 -26.5t-13 -37t-9.5 -41q-10 -55 -10 -56q-9 -27 -28 -27q-16 0 -22.5 13t-8.5 31q-13 88 -68 117q-32 17 -102 17h-102
q-106 0 -140.5 -21t-51.5 -90q-11 -40 -12 -43q-10 -24 -28 -24q-16 0 -23 18q-3 8 -6 32t-11.5 59.5t-18.5 57.5q-4 10 -7 19t-3 18q0 15 12.5 22t26.5 7q8 0 19 -2t17 -2q21 0 29 25q3 8 8 49q9 71 35 145q32 92 95 198q28 46 37 68q18 41 18 77q0 18 -8 28q-14 17 -51 17
h-54v42h330zM260 42h174l-20 75q-23 86 -38.5 152t-34.5 170l-10 55q-66 -84 -113 -210q-42 -113 -42 -177q0 -40 18 -52.5t66 -12.5z" />
    <glyph glyph-name="Adieresis" unicode="&#x414;" horiz-adv-x="692" 
d="M522 700v-42h-56q7 -75 33.5 -225.5t54.5 -258.5q34 -131 55 -131q5 0 15 6t31 6q14 0 21.5 -10.5t7.5 -23.5q0 -7 -1.5 -11.5t-10 -26.5t-13 -37t-9.5 -41q-10 -55 -10 -56q-9 -27 -28 -27q-16 0 -22.5 13t-8.5 31q-13 88 -68 117q-32 17 -102 17h-102
q-106 0 -140.5 -21t-51.5 -90q-11 -40 -12 -43q-10 -24 -28 -24q-16 0 -23 18q-3 8 -6 32t-11.5 59.5t-18.5 57.5q-4 10 -7 19t-3 18q0 15 12.5 22t26.5 7q8 0 19 -2t17 -2q21 0 29 25q3 8 8 49q9 71 35 145q32 92 95 198q28 46 37 68q18 41 18 77q0 18 -8 28q-14 17 -51 17
h-54v42h330zM260 42h174l-20 75q-23 86 -38.5 152t-34.5 170l-10 55q-66 -84 -113 -210q-42 -113 -42 -177q0 -40 18 -52.5t66 -12.5z" />
    <glyph glyph-name="Aring" unicode="&#xc5;" horiz-adv-x="723" 
d="M362 350h37q-9 29 -27.5 44.5t-35.5 15.5q-32 0 -62.5 -11.5t-50.5 -34.5q6 -39 10.5 -60.5t14.5 -53.5q17 -57 21 -76q8 -38 8 -86q0 -20 -1.5 -28t-8.5 -25q14 -7 37 -7q86 0 136 52q37 39 50 98h-50v41h262v-41l-37 -1q-47 -83 -122 -135q-82 -56 -170 -56
q-42 0 -87.5 4.5t-76.5 14.5q2 7 2 14.5v11.5q0 35 -18 70q-14 27 -43 62q-68 84 -88 127.5t-20 101.5q0 170 116 255q92 67 226 67q84 0 149 -28q93 -40 128 -129h48v-42h-248v42h31q-8 45 -34 74q-36 41 -98 41q-73 0 -111 -72q-32 -61 -32 -148q0 -26 3 -49
q38 33 80.5 48t86.5 15q59 0 111 -31t71 -85h41v-42h-248v42z" />
    <glyph glyph-name="Aring" unicode="&#x415;" horiz-adv-x="723" 
d="M362 350h37q-9 29 -27.5 44.5t-35.5 15.5q-32 0 -62.5 -11.5t-50.5 -34.5q6 -39 10.5 -60.5t14.5 -53.5q17 -57 21 -76q8 -38 8 -86q0 -20 -1.5 -28t-8.5 -25q14 -7 37 -7q86 0 136 52q37 39 50 98h-50v41h262v-41l-37 -1q-47 -83 -122 -135q-82 -56 -170 -56
q-42 0 -87.5 4.5t-76.5 14.5q2 7 2 14.5v11.5q0 35 -18 70q-14 27 -43 62q-68 84 -88 127.5t-20 101.5q0 170 116 255q92 67 226 67q84 0 149 -28q93 -40 128 -129h48v-42h-248v42h31q-8 45 -34 74q-36 41 -98 41q-73 0 -111 -72q-32 -61 -32 -148q0 -26 3 -49
q38 33 80.5 48t86.5 15q59 0 111 -31t71 -85h41v-42h-248v42z" />
    <glyph glyph-name="AE" unicode="&#xc6;" horiz-adv-x="995" 
d="M365 700h265v-42h-55v-262h7l64 130q47 97 68 124q49 64 117 64q26 0 44.5 -3.5t42.5 -14.5q-2 -9 -9.5 -27.5l-9.5 -23.5q-7 -19 -7 -56l-2 -30h-20l-32 13q-6 3 -15 6q-17 6 -38 6q-38 0 -71 -40q-36 -44 -92 -164q65 -10 115 -34q75 -36 117 -100q53 -81 53 -204h61
v-42h-284v42h47q0 160 -50 241q-40 65 -106 71v-312h51v-42h-257v42h51v312q-66 -6 -106 -71q-50 -81 -50 -241h47v-42h-284v42h61q0 174 107 263q71 59 178 75q-56 121 -90.5 162.5t-72.5 41.5q-19 0 -28 -2t-25 -10l-32 -13h-20l-2 30q0 34 -1 39t-16 41q-7 18 -9 27
q20 9 42.5 13.5t44.5 4.5q79 0 136 -93q13 -21 49 -95l64 -130h7v262h-55v42z" />
    <glyph glyph-name="AE" unicode="&#x416;" horiz-adv-x="995" 
d="M365 700h265v-42h-55v-262h7l64 130q47 97 68 124q49 64 117 64q26 0 44.5 -3.5t42.5 -14.5q-2 -9 -9.5 -27.5l-9.5 -23.5q-7 -19 -7 -56l-2 -30h-20l-32 13q-6 3 -15 6q-17 6 -38 6q-38 0 -71 -40q-36 -44 -92 -164q65 -10 115 -34q75 -36 117 -100q53 -81 53 -204h61
v-42h-284v42h47q0 160 -50 241q-40 65 -106 71v-312h51v-42h-257v42h51v312q-66 -6 -106 -71q-50 -81 -50 -241h47v-42h-284v42h61q0 174 107 263q71 59 178 75q-56 121 -90.5 162.5t-72.5 41.5q-19 0 -28 -2t-25 -10l-32 -13h-20l-2 30q0 34 -1 39t-16 41q-7 18 -9 27
q20 9 42.5 13.5t44.5 4.5q79 0 136 -93q13 -21 49 -95l64 -130h7v262h-55v42z" />
    <glyph glyph-name="Ccedilla" unicode="&#xc7;" horiz-adv-x="635" 
d="M217 320l-2 58q113 0 147.5 26t34.5 98v33q0 60 -13 90q-21 47 -74 47q-54 0 -80 -34q-21 -27 -21 -75q0 -11 2 -23t2 -16q0 -12 -14 -12h-18q-33 0 -54 -1.5t-73 -9.5q-9 -2 -12 0q-2 2 -2 20q0 109 106 159q73 34 170 34q107 0 182 -49.5t75 -132.5q0 -80 -66 -125
q-30 -21 -102 -43l-9 -3v-18q19 -2 56 -13q59 -18 90 -44q54 -46 54 -124q0 -86 -58.5 -139.5t-140.5 -53.5q-27 0 -57.5 6t-110.5 29q-25 7 -37 7q-18 0 -29 -15t-11 -47q0 -8 2 -20t2 -15q0 -14 -10 -14l-23 2q-9 2 -20 2h-17q-14 0 -26 -7t-18 -7q-11 0 -20 15t-9 54
q0 56 31 90.5t72 34.5q25 0 61 -12.5l73 -25.5q26 -8 51.5 -13.5t38.5 -5.5q47 0 66 45q14 33 14 90v20.5t1 21.5q0 9 -1 14q-5 51 -36.5 76.5t-79.5 25.5h-87z" />
    <glyph glyph-name="Ccedilla" unicode="&#x417;" horiz-adv-x="635" 
d="M217 320l-2 58q113 0 147.5 26t34.5 98v33q0 60 -13 90q-21 47 -74 47q-54 0 -80 -34q-21 -27 -21 -75q0 -11 2 -23t2 -16q0 -12 -14 -12h-18q-33 0 -54 -1.5t-73 -9.5q-9 -2 -12 0q-2 2 -2 20q0 109 106 159q73 34 170 34q107 0 182 -49.5t75 -132.5q0 -80 -66 -125
q-30 -21 -102 -43l-9 -3v-18q19 -2 56 -13q59 -18 90 -44q54 -46 54 -124q0 -86 -58.5 -139.5t-140.5 -53.5q-27 0 -57.5 6t-110.5 29q-25 7 -37 7q-18 0 -29 -15t-11 -47q0 -8 2 -20t2 -15q0 -14 -10 -14l-23 2q-9 2 -20 2h-17q-14 0 -26 -7t-18 -7q-11 0 -20 15t-9 54
q0 56 31 90.5t72 34.5q25 0 61 -12.5l73 -25.5q26 -8 51.5 -13.5t38.5 -5.5q47 0 66 45q14 33 14 90v20.5t1 21.5q0 9 -1 14q-5 51 -36.5 76.5t-79.5 25.5h-87z" />
    <glyph glyph-name="Egrave" unicode="&#xc8;" horiz-adv-x="775" 
d="M498 485l-221 -270v-173h69v-42h-307v42h83v616h-83v42h307v-42h-69v-377l221 271v106h-69v42h307v-42h-83v-616h83v-42h-307v42h69v443z" />
    <glyph glyph-name="Egrave" unicode="&#x418;" horiz-adv-x="775" 
d="M498 485l-221 -270v-173h69v-42h-307v42h83v616h-83v42h307v-42h-69v-377l221 271v106h-69v42h307v-42h-83v-616h83v-42h-307v42h69v443z" />
    <glyph glyph-name="Eacute" unicode="&#xc9;" horiz-adv-x="775" 
d="M498 485l-221 -270v-173h69v-42h-307v42h83v616h-83v42h296v-42h-58v-377l221 271v106h-58v42h296v-42h-83v-616h83v-42h-307v42h69v443zM506 892l44 -16q-24 -62 -68.5 -104.5t-93.5 -42.5q-55 0 -95 50q-35 45 -46 112l39 11q12 -32 32 -53q27 -29 63 -29q48 0 83 24
q26 18 42 48z" />
    <glyph glyph-name="Eacute" unicode="&#x419;" horiz-adv-x="775" 
d="M498 485l-221 -270v-173h69v-42h-307v42h83v616h-83v42h296v-42h-58v-377l221 271v106h-58v42h296v-42h-83v-616h83v-42h-307v42h69v443zM506 892l44 -16q-24 -62 -68.5 -104.5t-93.5 -42.5q-55 0 -95 50q-35 45 -46 112l39 11q12 -32 32 -53q27 -29 63 -29q48 0 83 24
q26 18 42 48z" />
    <glyph glyph-name="Ecircumflex" unicode="&#xca;" horiz-adv-x="719" 
d="M277 391h37l14 28l16 36l21 43q60 121 78 145q52 71 121 71q23 0 46 -5t42 -13q-19 -48 -21 -55t-4 -34q-3 -22 -3 -31.5v-16.5h-20l-32 13q-14 7 -26 9.5t-28 2.5q-60 0 -163 -204q128 -29 190 -88q89 -84 89 -250h60v-42h-272v42h39q0 147 -30 209q-40 83 -154 105
v-314h62v-42h-300v42h83v616h-83v42h307v-42h-69v-267z" />
    <glyph glyph-name="Ecircumflex" unicode="&#x41a;" horiz-adv-x="719" 
d="M277 391h37l14 28l16 36l21 43q60 121 78 145q52 71 121 71q23 0 46 -5t42 -13q-19 -48 -21 -55t-4 -34q-3 -22 -3 -31.5v-16.5h-20l-32 13q-14 7 -26 9.5t-28 2.5q-60 0 -163 -204q128 -29 190 -88q89 -84 89 -250h60v-42h-272v42h39q0 147 -30 209q-40 83 -154 105
v-314h62v-42h-300v42h83v616h-83v42h307v-42h-69v-267z" />
    <glyph glyph-name="Edieresis" unicode="&#xcb;" horiz-adv-x="664" 
d="M356 42h65q-35 107 -66 244q-16 73 -36 180l-17 83q-19 -22 -28.5 -38t-28.5 -52q-30 -57 -49 -107q-28 -76 -28 -134q0 -66 8 -87q5 -14 18 -14q15 0 20 -10q9 -20 9 -93q0 -15 -11.5 -20t-24.5 -5q-8 0 -18.5 1.5l-22 3t-20.5 1.5q-10 0 -18 -0.5t-13.5 -1.5t-18.5 -1
q-19 0 -27 9t-10 27v35q0 56 18 110t76 167l66 128q34 62 52.5 104.5t18.5 60.5q0 16 -8.5 20.5t-25.5 4.5h-69v42h330v-42h-61q16 -122 52 -280q32 -144 70 -267l19 -69h73v-42h-294v42z" />
    <glyph glyph-name="Edieresis" unicode="&#x41b;" horiz-adv-x="664" 
d="M356 42h65q-35 107 -66 244q-16 73 -36 180l-17 83q-19 -22 -28.5 -38t-28.5 -52q-30 -57 -49 -107q-28 -76 -28 -134q0 -66 8 -87q5 -14 18 -14q15 0 20 -10q9 -20 9 -93q0 -15 -11.5 -20t-24.5 -5q-8 0 -18.5 1.5l-22 3t-20.5 1.5q-10 0 -18 -0.5t-13.5 -1.5t-18.5 -1
q-19 0 -27 9t-10 27v35q0 56 18 110t76 167l66 128q34 62 52.5 104.5t18.5 60.5q0 16 -8.5 20.5t-25.5 4.5h-69v42h330v-42h-61q16 -122 52 -280q32 -144 70 -267l19 -69h73v-42h-294v42z" />
    <glyph glyph-name="Igrave" unicode="&#xcc;" horiz-adv-x="1079" 
d="M434 42l-109 508q-59 -92 -85 -161q-29 -78 -29 -159q0 -28 7 -85t7 -81v-19t1 -18q0 -9 -1 -16t-3 -10.5t-11 -7.5t-22 -4q-9 0 -19.5 1.5t-22.5 3t-21 1.5h-15q-11 -2 -20.5 -3t-15.5 -1q-19 0 -27.5 14t-8.5 58q0 75 21 137q18 52 57 113q21 32 78 108.5t76 111.5
q30 54 30 100q0 9 -2 25h-74v42h286v-42h-56l127 -587l111 587h-44v42h269v-42h-65l134 -616h69v-42h-268v42h44l-113 526l-98 -526h53v-42h-292v42h52z" />
    <glyph glyph-name="Igrave" unicode="&#x41c;" horiz-adv-x="1079" 
d="M434 42l-109 508q-59 -92 -85 -161q-29 -78 -29 -159q0 -28 7 -85t7 -81v-19t1 -18q0 -9 -1 -16t-3 -10.5t-11 -7.5t-22 -4q-9 0 -19.5 1.5t-22.5 3t-21 1.5h-15q-11 -2 -20.5 -3t-15.5 -1q-19 0 -27.5 14t-8.5 58q0 75 21 137q18 52 57 113q21 32 78 108.5t76 111.5
q30 54 30 100q0 9 -2 25h-74v42h286v-42h-56l127 -587l111 587h-44v42h269v-42h-65l134 -616h69v-42h-268v42h44l-113 526l-98 -526h53v-42h-292v42h52z" />
    <glyph glyph-name="Iacute" unicode="&#xcd;" horiz-adv-x="775" 
d="M277 485v-443h69v-42h-307v42h83v616h-83v42h307v-42h-69v-106l221 -271v377h-69v42h307v-42h-83v-616h83v-42h-307v42h69v173z" />
    <glyph glyph-name="Iacute" unicode="&#x41d;" horiz-adv-x="775" 
d="M277 485v-443h69v-42h-307v42h83v616h-83v42h307v-42h-69v-106l221 -271v377h-69v42h307v-42h-83v-616h83v-42h-307v42h69v173z" />
    <glyph glyph-name="Icircumflex" unicode="&#xce;" horiz-adv-x="637" 
d="M325 727q8 0 19 -10q3 -2 23 -24l35 -34.5t60 -53.5q66 -57 94 -103q40 -64 40 -147q0 -71 -27 -127q-22 -46 -75 -102l-107 -104q-49 -49 -67 -49q-11 0 -29 13t-73 60q-66 56 -81 72q-44 44 -67 92q-29 59 -29 129q0 107 71 204q44 61 125 124l29 24q7 6 14 13
q11 12 23 17.5t22 5.5zM259 595q-53 -7 -87 -51.5t-34 -95.5q0 -47 39 -104q35 -52 112 -127q49 -48 63.5 -68t17.5 -47q45 17 81.5 55.5t43.5 82.5q2 10 2 17q0 5 -2 17q-7 42 -65 111q-8 10 -68 77l-62 68.5t-41 64.5z" />
    <glyph glyph-name="Icircumflex" unicode="&#x41e;" horiz-adv-x="637" 
d="M325 727q8 0 19 -10q3 -2 23 -24l35 -34.5t60 -53.5q66 -57 94 -103q40 -64 40 -147q0 -71 -27 -127q-22 -46 -75 -102l-107 -104q-49 -49 -67 -49q-11 0 -29 13t-73 60q-66 56 -81 72q-44 44 -67 92q-29 59 -29 129q0 107 71 204q44 61 125 124l29 24q7 6 14 13
q11 12 23 17.5t22 5.5zM259 595q-53 -7 -87 -51.5t-34 -95.5q0 -47 39 -104q35 -52 112 -127q49 -48 63.5 -68t17.5 -47q45 17 81.5 55.5t43.5 82.5q2 10 2 17q0 5 -2 17q-7 42 -65 111q-8 10 -68 77l-62 68.5t-41 64.5z" />
    <glyph glyph-name="Idieresis" unicode="&#xcf;" horiz-adv-x="775" 
d="M277 658v-616h69v-42h-307v42h83v616h-83v42h697v-42h-83v-616h83v-42h-307v42h69v616h-221z" />
    <glyph glyph-name="Idieresis" unicode="&#x41f;" horiz-adv-x="775" 
d="M277 658v-616h69v-42h-307v42h83v616h-83v42h697v-42h-83v-616h83v-42h-307v42h69v616h-221z" />
    <glyph glyph-name="Eth" unicode="&#xd0;" horiz-adv-x="663" 
d="M277 267v-225h83v-42h-321v42h83v366q0 40 1 78l2 74q29 71 95 112.5t146 41.5q119 0 188 -58q65 -55 65 -142q0 -83 -48.5 -138.5t-120.5 -55.5q-26 0 -45 7q-5 2 -37 19l-22 11zM277 327l64 81q21 -17 37 -17q24 0 40 20q25 32 25 105t-15 109q-20 47 -69 47
q-66 0 -78 -102q-4 -35 -4 -108v-135z" />
    <glyph glyph-name="Eth" unicode="&#x420;" horiz-adv-x="663" 
d="M277 267v-225h83v-42h-321v42h83v366q0 40 1 78l2 74q29 71 95 112.5t146 41.5q119 0 188 -58q65 -55 65 -142q0 -83 -48.5 -138.5t-120.5 -55.5q-26 0 -45 7q-5 2 -37 19l-22 11zM277 327l64 81q21 -17 37 -17q24 0 40 20q25 32 25 105t-15 109q-20 47 -69 47
q-66 0 -78 -102q-4 -35 -4 -108v-135z" />
    <glyph glyph-name="Ntilde" unicode="&#xd1;" horiz-adv-x="693" 
d="M665 452h-262v42h43q0 99 -35 144q-27 34 -73 34q-50 0 -81 -43q-39 -54 -39 -172q0 -62 9 -120q6 -38 27.5 -126t21.5 -145q0 -12 -3.5 -25t-4.5 -17l-4 -14q9 -6 24 -6q56 0 107.5 77t51.5 168q0 17 -1 25h-43v42h262v-42h-41q0 -122 -113 -212q-105 -84 -226 -84
q-30 0 -42.5 2.5t-30.5 9.5v14q0 41 -8 64q-14 40 -67 108q-61 78 -81 134q-14 39 -14 94q0 142 91 228q86 82 215 82q141 0 214 -83q48 -54 62 -137h41v-42z" />
    <glyph glyph-name="Ntilde" unicode="&#x421;" horiz-adv-x="693" 
d="M665 452h-262v42h43q0 99 -35 144q-27 34 -73 34q-50 0 -81 -43q-39 -54 -39 -172q0 -62 9 -120q6 -38 27.5 -126t21.5 -145q0 -12 -3.5 -25t-4.5 -17l-4 -14q9 -6 24 -6q56 0 107.5 77t51.5 168q0 17 -1 25h-43v42h262v-42h-41q0 -122 -113 -212q-105 -84 -226 -84
q-30 0 -42.5 2.5t-30.5 9.5v14q0 41 -8 64q-14 40 -67 108q-61 78 -81 134q-14 39 -14 94q0 142 91 228q86 82 215 82q141 0 214 -83q48 -54 62 -137h41v-42z" />
    <glyph glyph-name="Ograve" unicode="&#xd2;" horiz-adv-x="775" 
d="M310 42v616h-43q-60 0 -76 -14q-29 -24 -56 -132q-4 -15 -7 -29q-7 -21 -26 -21q-17 0 -23 14t-6 32q0 20 -5 42.5t-11.5 40t-21.5 51.5q-10 22 -10 34q0 14 11 26t33 12q26 -6 58.5 -10.5t75.5 -4.5l36 1h297l36 -1q48 0 76.5 4.5t57.5 10.5q21 0 32.5 -11.5t11.5 -26.5
q0 -9 -6 -24l-24 -57q-8 -21 -13.5 -45.5t-5.5 -41.5q0 -22 -2 -28q-6 -18 -26 -18q-19 0 -28 31q-4 13 -14 52q-20 72 -47 96q-19 17 -57 17h-19h-43v-616h83v-42h-321v42h83z" />
    <glyph glyph-name="Ograve" unicode="&#x422;" horiz-adv-x="775" 
d="M310 42v616h-43q-60 0 -76 -14q-29 -24 -56 -132q-4 -15 -7 -29q-7 -21 -26 -21q-17 0 -23 14t-6 32q0 20 -5 42.5t-11.5 40t-21.5 51.5q-10 22 -10 34q0 14 11 26t33 12q26 -6 58.5 -10.5t75.5 -4.5l36 1h297l36 -1q48 0 76.5 4.5t57.5 10.5q21 0 32.5 -11.5t11.5 -26.5
q0 -9 -6 -24l-24 -57q-8 -21 -13.5 -45.5t-5.5 -41.5q0 -22 -2 -28q-6 -18 -26 -18q-19 0 -28 31q-4 13 -14 52q-20 72 -47 96q-19 17 -57 17h-19h-43v-616h83v-42h-321v42h83z" />
    <glyph glyph-name="Oacute" unicode="&#xd3;" horiz-adv-x="684" 
d="M428 0h-52l-5 -77v-45q0 -31 3 -52.5t9 -50.5q2 -10 2 -14q0 -3 -2 -11l-93 -7q0 41 4 94.5t10 97.5l8 65h-91l-159 658h-41v42h269v-42h-69l125 -533q30 141 60.5 265.5t50.5 187t41 90.5q34 46 89 46q20 0 49 -8t37 -20q-2 -10 -3 -13.5t-6 -16.5q-7 -14 -9.5 -34
t-2.5 -73h-15l-18 9q-16 9 -19 10q-11 5 -22 5q-47 0 -85 -76q-27 -54 -52 -162q-1 -2 -30 -144l-15.5 -71l-17.5 -78h50v-42z" />
    <glyph glyph-name="Oacute" unicode="&#x423;" horiz-adv-x="684" 
d="M428 0h-52l-5 -77v-45q0 -31 3 -52.5t9 -50.5q2 -10 2 -14q0 -3 -2 -11l-93 -7q0 41 4 94.5t10 97.5l8 65h-91l-159 658h-41v42h269v-42h-69l125 -533q30 141 60.5 265.5t50.5 187t41 90.5q34 46 89 46q20 0 49 -8t37 -20q-2 -10 -3 -13.5t-6 -16.5q-7 -14 -9.5 -34
t-2.5 -73h-15l-18 9q-16 9 -19 10q-11 5 -22 5q-47 0 -85 -76q-27 -54 -52 -162q-1 -2 -30 -144l-15.5 -71l-17.5 -78h50v-42z" />
    <glyph glyph-name="Ocircumflex" unicode="&#xd4;" horiz-adv-x="937" 
d="M624 0h-311v42h83v89l-39 -11q-32 -10 -48.5 -13t-50.5 -3q-85 0 -148 48q-69 52 -69 132q0 85 78 162q43 42 137 101q50 31 65 42q21 15 75 59v10h-84v42h313v-42h-84v-10q54 -44 75 -59q15 -11 65 -42q94 -59 136 -100q79 -78 79 -163q0 -80 -68 -132q-63 -48 -149 -48
q-32 0 -49.5 3t-49.5 13l-39 11v-89h83v-42zM541 599v-433q22 -5 47 -5q68 0 108 56q34 48 34 114q0 51 -25 97q-21 39 -67 85q-32 32 -97 86zM396 599q-100 -83 -135 -127q-54 -68 -54 -141q0 -67 33 -114q39 -56 109 -56q25 0 47 5v433z" />
    <glyph glyph-name="Ocircumflex" unicode="&#x424;" horiz-adv-x="937" 
d="M624 0h-311v42h83v89l-39 -11q-32 -10 -48.5 -13t-50.5 -3q-85 0 -148 48q-69 52 -69 132q0 85 78 162q43 42 137 101q50 31 65 42q21 15 75 59v10h-84v42h313v-42h-84v-10q54 -44 75 -59q15 -11 65 -42q94 -59 136 -100q79 -78 79 -163q0 -80 -68 -132q-63 -48 -149 -48
q-32 0 -49.5 3t-49.5 13l-39 11v-89h83v-42zM541 599v-433q22 -5 47 -5q68 0 108 56q34 48 34 114q0 51 -25 97q-21 39 -67 85q-32 32 -97 86zM396 599q-100 -83 -135 -127q-54 -68 -54 -141q0 -67 33 -114q39 -56 109 -56q25 0 47 5v433z" />
    <glyph glyph-name="Otilde" unicode="&#xd5;" horiz-adv-x="720" 
d="M254 658l105 -170l24 54l17 38q34 75 61 99q39 35 113 35q27 0 62.5 -9.5t35.5 -21.5q0 -8 -8 -21l-9 -19l-8 -16q-6 -14 -7 -18q-5 -14 -5 -26v-8q1 -13 -3 -25h-29q-30 22 -45 28t-36 6q-30 0 -48.5 -13t-49.5 -74l-13 -26l-18 -37l228 -392h85v-42h-357v42h95
l-155 264l-58 -111q-14 -27 -29.5 -70t-15.5 -60q0 -14 12.5 -19t33.5 -5h16q6 1 9 1v-42h-243v42q10 -1 15 -1q54 0 90 45q22 28 64 119l14 30l60 124l-175 299h-66v42h312v-42h-74z" />
    <glyph glyph-name="Otilde" unicode="&#x425;" horiz-adv-x="720" 
d="M254 658l105 -170l24 54l17 38q34 75 61 99q39 35 113 35q27 0 62.5 -9.5t35.5 -21.5q0 -8 -8 -21l-9 -19l-8 -16q-6 -14 -7 -18q-5 -14 -5 -26v-8q1 -13 -3 -25h-29q-30 22 -45 28t-36 6q-30 0 -48.5 -13t-49.5 -74l-13 -26l-18 -37l228 -392h85v-42h-357v42h95
l-155 264l-58 -111q-14 -27 -29.5 -70t-15.5 -60q0 -14 12.5 -19t33.5 -5h16q6 1 9 1v-42h-243v42q10 -1 15 -1q54 0 90 45q22 28 64 119l14 30l60 124l-175 299h-66v42h312v-42h-74z" />
    <glyph glyph-name="Odieresis" unicode="&#xd6;" horiz-adv-x="825" 
d="M732 700v-42h-83v-616h34q26 0 59.5 4.5t36.5 4.5q21 0 33.5 -15.5t12.5 -38.5q0 -16 -4.5 -32.5t-12.5 -39t-18.5 -59.5t-12.5 -58t-6 -29q-8 -17 -25 -17q-18 0 -27 26l-24 92q-16 63 -35 85q-30 35 -98 35h-523v42h83v616h-83v42h307v-42h-69v-616h217v616h-69v42h307
z" />
    <glyph glyph-name="Odieresis" unicode="&#x426;" horiz-adv-x="825" 
d="M732 700v-42h-83v-616h34q26 0 59.5 4.5t36.5 4.5q21 0 33.5 -15.5t12.5 -38.5q0 -16 -4.5 -32.5t-12.5 -39t-18.5 -59.5t-12.5 -58t-6 -29q-8 -17 -25 -17q-18 0 -27 26l-24 92q-16 63 -35 85q-30 35 -98 35h-523v42h83v616h-83v42h307v-42h-69v-616h217v616h-69v42h307
z" />
    <glyph glyph-name="multiply" unicode="&#xd7;" horiz-adv-x="775" 
d="M498 42v267q-113 0 -176 14.5t-106 41.5q-64 41 -93 124q-24 69 -24 169h-60v42h300v-42h-67q0 -152 37 -223q45 -86 156 -86h15q12 2 18 2v307h-62v42h300v-42h-83v-616h83v-42h-307v42h69z" />
    <glyph glyph-name="multiply" unicode="&#x427;" horiz-adv-x="775" 
d="M498 42v267q-113 0 -176 14.5t-106 41.5q-64 41 -93 124q-24 69 -24 169h-60v42h300v-42h-67q0 -152 37 -223q45 -86 156 -86h15q12 2 18 2v307h-62v42h300v-42h-83v-616h83v-42h-307v42h69z" />
    <glyph glyph-name="Oslash" unicode="&#xd8;" horiz-adv-x="1107" 
d="M274 42h202v616h-69v42h293v-42h-69v-616h202v616h-69v42h307v-42h-83v-616h83v-42h-1035v42h83v616h-83v42h307v-42h-69v-616z" />
    <glyph glyph-name="Oslash" unicode="&#x428;" horiz-adv-x="1107" 
d="M274 42h202v616h-69v42h293v-42h-69v-616h202v616h-69v42h307v-42h-83v-616h83v-42h-1035v42h83v616h-83v42h307v-42h-69v-616z" />
    <glyph glyph-name="Ugrave" unicode="&#xd9;" horiz-adv-x="1163" 
d="M277 42h202v616h-69v42h293v-42h-69v-616h202v616h-69v42h307v-42h-83v-616h34q20 0 51.5 4.5t35.5 4.5q21 0 33.5 -15.5t12.5 -38.5q0 -16 -4.5 -32.5t-12.5 -39t-18.5 -59.5t-12.5 -58q-4 -25 -6 -30q-7 -16 -25 -16q-14 0 -20.5 11.5t-18.5 58.5q-25 95 -43 121
q-32 47 -110 47h-848v42h83v616h-83v42h307v-42h-69v-616z" />
    <glyph glyph-name="Ugrave" unicode="&#x429;" horiz-adv-x="1163" 
d="M277 42h202v616h-69v42h293v-42h-69v-616h202v616h-69v42h307v-42h-83v-616h34q20 0 51.5 4.5t35.5 4.5q21 0 33.5 -15.5t12.5 -38.5q0 -16 -4.5 -32.5t-12.5 -39t-18.5 -59.5t-12.5 -58q-4 -25 -6 -30q-7 -16 -25 -16q-14 0 -20.5 11.5t-18.5 58.5q-25 95 -43 121
q-32 47 -110 47h-848v42h83v616h-83v42h307v-42h-69v-616z" />
    <glyph glyph-name="Uacute" unicode="&#xda;" horiz-adv-x="829" 
d="M553 700v-42h-83v-247q40 -34 102.5 -56.5t115.5 -22.5l41 2q43 0 55 -22q6 -11 6 -43v-199q0 -46 -17 -60q-12 -10 -43 -10h-498v42h83v616h-66q-64 0 -98 -47q-20 -27 -36 -86l-6 -22q-7 -19 -26 -19q-14 0 -20.5 11t-11 58.5t-20 54t-15.5 65.5q0 16 9 28t24 12
q4 0 12.5 -2.5t24 -5t26.5 -4t21 -1.5h420zM470 42h90q33 0 48 7q27 12 27 49v119l-1 24q0 26 -7 34.5t-41.5 19.5t-58.5 23q-30 15 -57 38v-314z" />
    <glyph glyph-name="Uacute" unicode="&#x42a;" horiz-adv-x="829" 
d="M553 700v-42h-83v-247q40 -34 102.5 -56.5t115.5 -22.5l41 2q43 0 55 -22q6 -11 6 -43v-199q0 -46 -17 -60q-12 -10 -43 -10h-498v42h83v616h-66q-64 0 -98 -47q-20 -27 -36 -86l-6 -22q-7 -19 -26 -19q-14 0 -20.5 11t-11 58.5t-20 54t-15.5 65.5q0 16 9 28t24 12
q4 0 12.5 -2.5t24 -5t26.5 -4t21 -1.5h420zM470 42h90q33 0 48 7q27 12 27 49v119l-1 24q0 26 -7 34.5t-41.5 19.5t-58.5 23q-30 15 -57 38v-314z" />
    <glyph glyph-name="Ucircumflex" unicode="&#xdb;" horiz-adv-x="996" 
d="M360 700v-42h-83v-247q40 -37 113 -62q62 -21 104 -21l41 2q6 1 17 1q22 0 33.5 -13t11.5 -53v-195q0 -46 -15 -60q-11 -10 -46 -10h-497v42h83v616h-83v42h321zM719 42v616h-83v42h321v-42h-83v-616h83v-42h-321v42h83zM277 42h90q33 0 48 7q27 12 27 49v119l-1 24
q0 26 -7 34.5t-41.5 19.5t-58.5 23q-30 15 -57 38v-314z" />
    <glyph glyph-name="Ucircumflex" unicode="&#x42b;" horiz-adv-x="996" 
d="M360 700v-42h-83v-247q40 -37 113 -62q62 -21 104 -21l41 2q6 1 17 1q22 0 33.5 -13t11.5 -53v-195q0 -46 -15 -60q-11 -10 -46 -10h-497v42h83v616h-83v42h321zM719 42v616h-83v42h321v-42h-83v-616h83v-42h-321v42h83zM277 42h90q33 0 48 7q27 12 27 49v119l-1 24
q0 26 -7 34.5t-41.5 19.5t-58.5 23q-30 15 -57 38v-314z" />
    <glyph glyph-name="Udieresis" unicode="&#xdc;" horiz-adv-x="636" 
d="M360 700v-42h-83v-247q40 -37 113 -62q62 -21 104 -21l41 2q6 1 17 1q22 0 33.5 -13t11.5 -53v-195q0 -46 -15 -60q-11 -10 -46 -10h-497v42h83v616h-83v42h321zM277 42h90q33 0 48 7q27 12 27 49v119l-1 24q0 26 -7 34.5t-41.5 19.5t-58.5 23q-30 15 -57 38v-314z" />
    <glyph glyph-name="Udieresis" unicode="&#x42c;" horiz-adv-x="636" 
d="M360 700v-42h-83v-247q40 -37 113 -62q62 -21 104 -21l41 2q6 1 17 1q22 0 33.5 -13t11.5 -53v-195q0 -46 -15 -60q-11 -10 -46 -10h-497v42h83v616h-83v42h321zM277 42h90q33 0 48 7q27 12 27 49v119l-1 24q0 26 -7 34.5t-41.5 19.5t-58.5 23q-30 15 -57 38v-314z" />
    <glyph glyph-name="Yacute" unicode="&#xdd;" horiz-adv-x="730" 
d="M14 515v42h48q34 88 127 128q67 29 150 29q81 0 145 -22q90 -31 141 -103q63 -89 63 -240q0 -210 -108 -306q-83 -74 -216 -74q-9 0 -21.5 2t-22.5 4q-24 6 -64 21q-12 4 -26.5 9.5t-27.5 5.5q-23 0 -31 -16.5t-8 -45.5q0 -20 3 -35v-10l-7 -5q-12 0 -29 2.5t-34 2.5
q-16 0 -30 -9q-8 -5 -13 -5q-12 0 -21 19.5t-9 49.5q0 55 32 90t72 35q20 0 61 -18l48 -20.5t38 -13t37 -6.5q79 0 132 57q69 74 69 228q-23 -14 -39 -22q-26 -13 -42 -13q-6 0 -20 -1t-21 -1q-12 0 -24 3t-59 22q-37 15 -67 15q-21 0 -50.5 -10.5t-53.5 -25.5l-23 30
q43 58 70 80q40 32 95 32q35 0 55 -6t49 -23q36 -21 59 -31.5t37 -10.5q16 0 34 16q0 176 -54 251q-40 56 -109 56q-56 0 -88 -40q-24 -30 -30 -75h31v-42h-248z" />
    <glyph glyph-name="Yacute" unicode="&#x42d;" horiz-adv-x="730" 
d="M14 515v42h48q34 88 127 128q67 29 150 29q81 0 145 -22q90 -31 141 -103q63 -89 63 -240q0 -210 -108 -306q-83 -74 -216 -74q-9 0 -21.5 2t-22.5 4q-24 6 -64 21q-12 4 -26.5 9.5t-27.5 5.5q-23 0 -31 -16.5t-8 -45.5q0 -20 3 -35v-10l-7 -5q-12 0 -29 2.5t-34 2.5
q-16 0 -30 -9q-8 -5 -13 -5q-12 0 -21 19.5t-9 49.5q0 55 32 90t72 35q20 0 61 -18l48 -20.5t38 -13t37 -6.5q79 0 132 57q69 74 69 228q-23 -14 -39 -22q-26 -13 -42 -13q-6 0 -20 -1t-21 -1q-12 0 -24 3t-59 22q-37 15 -67 15q-21 0 -50.5 -10.5t-53.5 -25.5l-23 30
q43 58 70 80q40 32 95 32q35 0 55 -6t49 -23q36 -21 59 -31.5t37 -10.5q16 0 34 16q0 176 -54 251q-40 56 -109 56q-56 0 -88 -40q-24 -30 -30 -75h31v-42h-248z" />
    <glyph glyph-name="Thorn" unicode="&#xde;" horiz-adv-x="998" 
d="M276 400h134q12 74 72 152q47 60 116 115q22 17 28.5 22.5t16 16t21.5 16t22 5.5q8 0 19 -10q3 -2 23 -24l35 -34.5t60 -53.5q66 -57 94 -103q40 -64 40 -147q0 -71 -27 -127q-22 -46 -75 -102l-107 -104q-49 -49 -67 -49q-12 0 -31 14q-14 10 -79 66q-80 68 -107 103
q-62 80 -62 174q0 18 1 28h-127v-316h83v-42h-321v42h83v616h-83v42h321v-42h-83v-258zM620 595q-54 -7 -87.5 -51.5t-33.5 -95.5q0 -38 24 -80q36 -63 126 -150q75 -74 84 -118q46 20 78 53q39 39 45 87q2 10 2 17q0 5 -2 17q-7 42 -65 111q-21 25 -68 77l-62 68.5
t-41 64.5z" />
    <glyph glyph-name="Thorn" unicode="&#x42e;" horiz-adv-x="998" 
d="M276 400h134q12 74 72 152q47 60 116 115q22 17 28.5 22.5t16 16t21.5 16t22 5.5q8 0 19 -10q3 -2 23 -24l35 -34.5t60 -53.5q66 -57 94 -103q40 -64 40 -147q0 -71 -27 -127q-22 -46 -75 -102l-107 -104q-49 -49 -67 -49q-12 0 -31 14q-14 10 -79 66q-80 68 -107 103
q-62 80 -62 174q0 18 1 28h-127v-316h83v-42h-321v42h83v616h-83v42h321v-42h-83v-258zM620 595q-54 -7 -87.5 -51.5t-33.5 -95.5q0 -38 24 -80q36 -63 126 -150q75 -74 84 -118q46 20 78 53q39 39 45 87q2 10 2 17q0 5 -2 17q-7 42 -65 111q-21 25 -68 77l-62 68.5
t-41 64.5z" />
    <glyph glyph-name="germandbls" unicode="&#xdf;" horiz-adv-x="720" 
d="M681 700v-42h-83v-616h83v-42h-287v42h49v306q-88 0 -141 -63q-66 -78 -66 -243h39v-42h-258v42h46q0 157 100 243q87 75 212 75v15q-154 20 -232 92q-66 61 -66 143q0 60 42 78q29 12 112 12h450zM443 422v236h-114q-29 0 -46 -8q-30 -15 -30 -53q0 -67 52 -119
q56 -56 138 -56z" />
    <glyph glyph-name="germandbls" unicode="&#x42f;" horiz-adv-x="720" 
d="M681 700v-42h-83v-616h83v-42h-287v42h49v306q-88 0 -141 -63q-66 -78 -66 -243h39v-42h-258v42h46q0 157 100 243q87 75 212 75v15q-154 20 -232 92q-66 61 -66 143q0 60 42 78q29 12 112 12h450zM443 422v236h-114q-29 0 -46 -8q-30 -15 -30 -53q0 -67 52 -119
q56 -56 138 -56z" />
    <glyph glyph-name="agrave" unicode="&#xe0;" horiz-adv-x="498" 
d="M235 465h102q10 0 12 -6q0 -7 0.5 -15t6.5 -32l15 -57l8 -30q32 -130 61 -216l36 -100q0 -6 -7 -7.5t-13 -1.5h-102q-7 0 -11 16l-13 52l-12 38l-13 45q-22 -73 -55 -112q-42 -50 -103 -50q-56 0 -85 47q-22 36 -22 83q0 50 48 118q19 28 77 93l43 47q17 18 17 28
q0 6 -2 15t-5 19t-3 20q0 5 8.5 5.5t11.5 0.5zM243 366q-59 -64 -84 -121q-16 -36 -16 -62q0 -25 14.5 -46.5t44.5 -21.5q39 0 64 29q21 24 21 52q0 18 -16 73l-13 44q-5 25 -15 53z" />
    <glyph glyph-name="agrave" unicode="&#x430;" horiz-adv-x="498" 
d="M235 465h102q10 0 12 -6q0 -7 0.5 -15t6.5 -32l15 -57l8 -30q32 -130 61 -216l36 -100q0 -6 -7 -7.5t-13 -1.5h-102q-7 0 -11 16l-13 52l-12 38l-13 45q-22 -73 -55 -112q-42 -50 -103 -50q-56 0 -85 47q-22 36 -22 83q0 50 48 118q19 28 77 93l43 47q17 18 17 28
q0 6 -2 15t-5 19t-3 20q0 5 8.5 5.5t11.5 0.5zM243 366q-59 -64 -84 -121q-16 -36 -16 -62q0 -25 14.5 -46.5t44.5 -21.5q39 0 64 29q21 24 21 52q0 18 -16 73l-13 44q-5 25 -15 53z" />
    <glyph glyph-name="aacute" unicode="&#xe1;" horiz-adv-x="526" 
d="M252 431h-63q-3 -21 -7 -74t-4 -100q63 0 120 -13.5t98 -45.5t62 -81q18 -42 18 -79q0 -31 -24 -36q-10 -2 -33 -2h-334q-20 0 -25 14t-5 59q0 52 2.5 137t4.5 147q0 60 2 84t31 24h220q26 0 56.5 1t65.5 3q47 0 47 -23q0 -9 -6.5 -23.5t-16.5 -32.5q-14 -25 -41 -93
l-46 2q4 23 4 43v32q-5 38 -33 47.5t-93 9.5zM177 34h143h17q2 7 2 17.5v14.5q0 72 -40 109t-121 37q-2 -12 -2 -21.5v-16.5v-34v-57z" />
    <glyph glyph-name="aacute" unicode="&#x431;" horiz-adv-x="526" 
d="M252 431h-63q-3 -21 -7 -74t-4 -100q63 0 120 -13.5t98 -45.5t62 -81q18 -42 18 -79q0 -31 -24 -36q-10 -2 -33 -2h-334q-20 0 -25 14t-5 59q0 52 2.5 137t4.5 147q0 60 2 84t31 24h220q26 0 56.5 1t65.5 3q47 0 47 -23q0 -9 -6.5 -23.5t-16.5 -32.5q-14 -25 -41 -93
l-46 2q4 23 4 43v32q-5 38 -33 47.5t-93 9.5zM177 34h143h17q2 7 2 17.5v14.5q0 72 -40 109t-121 37q-2 -12 -2 -21.5v-16.5v-34v-57z" />
    <glyph glyph-name="acircumflex" unicode="&#xe2;" horiz-adv-x="527" 
d="M97 465h240q43 0 56 -3q39 -9 39 -54q0 -55 -55 -93q-40 -27 -124 -53v-6q85 -20 141 -55q89 -55 89 -134q0 -43 -27 -57q-19 -10 -63 -10h-306q-21 0 -26.5 28t-5.5 144q0 204 7 248.5t35 44.5zM178 281q54 0 91 38q32 33 32 72q0 24 -17 32t-51 8q-12 0 -24 -0.5
t-24 -0.5q-7 -70 -7 -149zM179 36l63 -2q54 0 71 8q24 11 24 51q0 47 -41 94q-48 55 -118 55l-2 -83z" />
    <glyph glyph-name="acircumflex" unicode="&#x432;" horiz-adv-x="527" 
d="M97 465h240q43 0 56 -3q39 -9 39 -54q0 -55 -55 -93q-40 -27 -124 -53v-6q85 -20 141 -55q89 -55 89 -134q0 -43 -27 -57q-19 -10 -63 -10h-306q-21 0 -26.5 28t-5.5 144q0 204 7 248.5t35 44.5zM178 281q54 0 91 38q32 33 32 72q0 24 -17 32t-51 8q-12 0 -24 -0.5
t-24 -0.5q-7 -70 -7 -149zM179 36l63 -2q54 0 71 8q24 11 24 51q0 47 -41 94q-48 55 -118 55l-2 -83z" />
    <glyph glyph-name="atilde" unicode="&#xe3;" horiz-adv-x="432" 
d="M246 431h-60q-12 -78 -12 -161q0 -77 5.5 -132t11.5 -109q0 -17 -4 -21q-7 -8 -36 -8h-60q-26 0 -32 40.5t-6 225.5q0 133 7.5 166.5t30.5 33.5l42 -1q56 0 122 1l130 2q24 0 35.5 -3t11.5 -18q0 -14 -17 -44l-19 -39q-9 -18 -12 -26.5t-5 -16.5l-10 -30l-42 4l4 32.5
t2 18.5q0 51 -22 68t-65 17z" />
    <glyph glyph-name="atilde" unicode="&#x433;" horiz-adv-x="432" 
d="M246 431h-60q-12 -78 -12 -161q0 -77 5.5 -132t11.5 -109q0 -17 -4 -21q-7 -8 -36 -8h-60q-26 0 -32 40.5t-6 225.5q0 133 7.5 166.5t30.5 33.5l42 -1q56 0 122 1l130 2q24 0 35.5 -3t11.5 -18q0 -14 -17 -44l-19 -39q-9 -18 -12 -26.5t-5 -16.5l-10 -30l-42 4l4 32.5
t2 18.5q0 51 -22 68t-65 17z" />
    <glyph glyph-name="adieresis" unicode="&#xe4;" horiz-adv-x="553" 
d="M307 -1h-76q-47 0 -74.5 -19t-27.5 -58q0 -19 7.5 -47.5t19.5 -55.5l-51 -7q-36 86 -77 141q-12 17 -20 33t-8 29q0 8 8.5 14.5t19.5 7.5h19q25 0 36.5 5.5t20.5 17.5q27 38 67 164.5t40 171.5q0 17 -2 24t-8 18.5t-6 20.5q0 5 7.5 6.5t15.5 1.5l60 -2q24 0 40 1l33 2
q8 0 14 -2t6 -21q0 -42 15 -106q8 -34 29 -102q43 -137 65 -176q15 -27 35 -25l9 1q12 0 20.5 -6.5t8.5 -15.5q0 -12 -7.5 -27.5t-18.5 -30.5q-17 -23 -32 -48q-26 -44 -48 -97l-51 7q10 24 18.5 55.5t8.5 47.5q0 38 -29.5 57.5t-86.5 19.5zM137 33h227q-9 16 -17 33t-17 43
q-23 60 -38.5 116.5t-22.5 106.5l-7 44h-15q-10 -58 -27 -118l-27 -84q-21 -61 -32.5 -90t-23.5 -51z" />
    <glyph glyph-name="adieresis" unicode="&#x434;" horiz-adv-x="553" 
d="M307 -1h-76q-47 0 -74.5 -19t-27.5 -58q0 -19 7.5 -47.5t19.5 -55.5l-51 -7q-36 86 -77 141q-12 17 -20 33t-8 29q0 8 8.5 14.5t19.5 7.5h19q25 0 36.5 5.5t20.5 17.5q27 38 67 164.5t40 171.5q0 17 -2 24t-8 18.5t-6 20.5q0 5 7.5 6.5t15.5 1.5l60 -2q24 0 40 1l33 2
q8 0 14 -2t6 -21q0 -42 15 -106q8 -34 29 -102q43 -137 65 -176q15 -27 35 -25l9 1q12 0 20.5 -6.5t8.5 -15.5q0 -12 -7.5 -27.5t-18.5 -30.5q-17 -23 -32 -48q-26 -44 -48 -97l-51 7q10 24 18.5 55.5t8.5 47.5q0 38 -29.5 57.5t-86.5 19.5zM137 33h227q-9 16 -17 33t-17 43
q-23 60 -38.5 116.5t-22.5 106.5l-7 44h-15q-10 -58 -27 -118l-27 -84q-21 -61 -32.5 -90t-23.5 -51z" />
    <glyph glyph-name="aring" unicode="&#xe5;" horiz-adv-x="498" 
d="M462 420l26 -31q-24 -16 -48 -25.5t-45 -9.5q-19 0 -35 8q-24 12 -52 44q-15 17 -23 24q-15 13 -29 13q-56 0 -71 -107q-6 -43 -6 -98q23 18 62 36q45 21 71 21q19 0 37 -6.5t42 -21.5q16 -10 26 -10q20 0 38 16l20 -27q-16 -18 -30 -31q-9 -8 -24 -19t-26.5 -17
t-26.5 -6q-16 0 -23 3t-24 14q-24 16 -40.5 23.5t-33.5 7.5q-21 0 -43 -12q-12 -7 -24 -17q0 -76 36.5 -128t102.5 -52q28 0 58.5 11.5t70.5 40.5l19 -21q-32 -34 -77.5 -55.5t-102.5 -21.5q-91 0 -156 44q-92 62 -92 193v34q0 81 50 153q62 89 164 89q46 0 92 -19
q24 -10 58 -31q12 -9 20.5 -13t16.5 -4q13 0 22 8z" />
    <glyph glyph-name="aring" unicode="&#x435;" horiz-adv-x="498" 
d="M462 420l26 -31q-24 -16 -48 -25.5t-45 -9.5q-19 0 -35 8q-24 12 -52 44q-15 17 -23 24q-15 13 -29 13q-56 0 -71 -107q-6 -43 -6 -98q23 18 62 36q45 21 71 21q19 0 37 -6.5t42 -21.5q16 -10 26 -10q20 0 38 16l20 -27q-16 -18 -30 -31q-9 -8 -24 -19t-26.5 -17
t-26.5 -6q-16 0 -23 3t-24 14q-24 16 -40.5 23.5t-33.5 7.5q-21 0 -43 -12q-12 -7 -24 -17q0 -76 36.5 -128t102.5 -52q28 0 58.5 11.5t70.5 40.5l19 -21q-32 -34 -77.5 -55.5t-102.5 -21.5q-91 0 -156 44q-92 62 -92 193v34q0 81 50 153q62 89 164 89q46 0 92 -19
q24 -10 58 -31q12 -9 20.5 -13t16.5 -4q13 0 22 8z" />
    <glyph glyph-name="ae" unicode="&#xe6;" horiz-adv-x="720" 
d="M420 206q0 -39 3 -79q7 -93 7 -101q1 -5 1 -7q0 -10 -7.5 -14.5t-32.5 -4.5h-56q-24 0 -29.5 17t-5.5 106l-2 83q-33 -6 -60 -33q-40 -40 -71 -129q-13 -36 -14 -38q-4 -7 -16 -7l-22 1h-21l-24 -1l-29 -2q-13 0 -18.5 3t-5.5 15q0 14 16 47q30 63 67 100q64 64 160 75
q-33 70 -76 99q-29 20 -57 20q-11 0 -16.5 -3t-14.5 -10q-9 -9 -19 -9q-12 0 -12 22q0 39 -11 70t-11 33q0 17 29 17q43 0 103 -59q66 -65 124 -175l1 71v44v38q0 45 7 57.5t25 12.5h71q24 0 24 -15q-4 -13 -6.5 -36.5t-2.5 -61.5v-40v-31v-39l21 36q48 82 107.5 140
t100.5 58q14 0 21.5 -4.5t7.5 -12.5q-9 -22 -15.5 -46.5t-6.5 -56.5q0 -12 -2.5 -17t-9.5 -5q-4 0 -9 2.5t-10.5 7.5t-9.5 7q-9 5 -20 5q-34 0 -64 -24q-36 -29 -69 -95q58 -7 103 -32q35 -19 66 -52q28 -30 51 -75t23 -63q0 -11 -7 -14.5t-18 -3.5l-28 2l-25 1l-43 -1
q-10 0 -13.5 4.5t-12.5 29.5q-32 93 -71 135q-29 32 -65 38z" />
    <glyph glyph-name="ae" unicode="&#x436;" horiz-adv-x="720" 
d="M420 206q0 -39 3 -79q7 -93 7 -101q1 -5 1 -7q0 -10 -7.5 -14.5t-32.5 -4.5h-56q-24 0 -29.5 17t-5.5 106l-2 83q-33 -6 -60 -33q-40 -40 -71 -129q-13 -36 -14 -38q-4 -7 -16 -7l-22 1h-21l-24 -1l-29 -2q-13 0 -18.5 3t-5.5 15q0 14 16 47q30 63 67 100q64 64 160 75
q-33 70 -76 99q-29 20 -57 20q-11 0 -16.5 -3t-14.5 -10q-9 -9 -19 -9q-12 0 -12 22q0 39 -11 70t-11 33q0 17 29 17q43 0 103 -59q66 -65 124 -175l1 71v44v38q0 45 7 57.5t25 12.5h71q24 0 24 -15q-4 -13 -6.5 -36.5t-2.5 -61.5v-40v-31v-39l21 36q48 82 107.5 140
t100.5 58q14 0 21.5 -4.5t7.5 -12.5q-9 -22 -15.5 -46.5t-6.5 -56.5q0 -12 -2.5 -17t-9.5 -5q-4 0 -9 2.5t-10.5 7.5t-9.5 7q-9 5 -20 5q-34 0 -64 -24q-36 -29 -69 -95q58 -7 103 -32q35 -19 66 -52q28 -30 51 -75t23 -63q0 -11 -7 -14.5t-18 -3.5l-28 2l-25 1l-43 -1
q-10 0 -13.5 4.5t-12.5 29.5q-32 93 -71 135q-29 32 -65 38z" />
    <glyph glyph-name="ccedilla" unicode="&#xe7;" horiz-adv-x="526" 
d="M199 198v42q67 0 97 24q34 27 34 89q0 40 -17 64.5t-52 24.5q-38 0 -60 -29q-18 -24 -18 -55l1 -14l2 -14q0 -15 -40.5 -27t-78.5 -12q-2 0 -2 17q0 83 67 128q60 40 151 40q73 0 122 -28q57 -33 57 -93q0 -66 -50 -99q-36 -23 -106 -32v-6l24 -5q61 -9 95 -28
q59 -34 59 -101q0 -60 -36.5 -96.5t-104.5 -36.5q-26 0 -47 5q-5 1 -34.5 11.5l-50.5 17.5t-33 7q-41 0 -93 -17q-43 -14 -78 -34l-21 25q46 51 65 65q39 30 80 30q23 0 43 -13l20 -14q17 -12 38.5 -17.5t38.5 -5.5q29 0 48 21q24 26 24 76q0 41 -29.5 65.5t-69.5 24.5h-45z
" />
    <glyph glyph-name="ccedilla" unicode="&#x437;" horiz-adv-x="526" 
d="M199 198v42q67 0 97 24q34 27 34 89q0 40 -17 64.5t-52 24.5q-38 0 -60 -29q-18 -24 -18 -55l1 -14l2 -14q0 -15 -40.5 -27t-78.5 -12q-2 0 -2 17q0 83 67 128q60 40 151 40q73 0 122 -28q57 -33 57 -93q0 -66 -50 -99q-36 -23 -106 -32v-6l24 -5q61 -9 95 -28
q59 -34 59 -101q0 -60 -36.5 -96.5t-104.5 -36.5q-26 0 -47 5q-5 1 -34.5 11.5l-50.5 17.5t-33 7q-41 0 -93 -17q-43 -14 -78 -34l-21 25q46 51 65 65q39 30 80 30q23 0 43 -13l20 -14q17 -12 38.5 -17.5t38.5 -5.5q29 0 48 21q24 26 24 76q0 41 -29.5 65.5t-69.5 24.5h-45z
" />
    <glyph glyph-name="egrave" unicode="&#xe8;" horiz-adv-x="528" 
d="M172 270l170 101q0 65 5 79.5t29 14.5h87q13 0 13 -16l-5 -41q-7 -42 -9.5 -67t-2.5 -71q0 -74 3.5 -124.5t12.5 -116.5q2 -16 -4.5 -22.5t-35.5 -6.5h-59q-23 0 -29.5 53.5t-6.5 276.5l-168 -101q0 -41 3 -84t13 -116q2 -16 -4.5 -22.5t-35.5 -6.5h-59q-14 0 -20 6
q-9 9 -9 33l-4 63q0 37 -1 58q-4 83 -4 106q0 135 9 172q6 27 27 27h89q13 0 13 -16l-5 -41q-5 -35 -8.5 -65.5t-3.5 -72.5z" />
    <glyph glyph-name="egrave" unicode="&#x438;" horiz-adv-x="528" 
d="M172 270l170 101q0 65 5 79.5t29 14.5h87q13 0 13 -16l-5 -41q-7 -42 -9.5 -67t-2.5 -71q0 -74 3.5 -124.5t12.5 -116.5q2 -16 -4.5 -22.5t-35.5 -6.5h-59q-23 0 -29.5 53.5t-6.5 276.5l-168 -101q0 -41 3 -84t13 -116q2 -16 -4.5 -22.5t-35.5 -6.5h-59q-14 0 -20 6
q-9 9 -9 33l-4 63q0 37 -1 58q-4 83 -4 106q0 135 9 172q6 27 27 27h89q13 0 13 -16l-5 -41q-5 -35 -8.5 -65.5t-3.5 -72.5z" />
    <glyph glyph-name="eacute" unicode="&#xe9;" horiz-adv-x="528" 
d="M172 270l170 101q0 65 5 79.5t29 14.5h87q13 0 13 -16l-5 -41q-7 -42 -9.5 -67t-2.5 -71q0 -74 3.5 -124.5t12.5 -116.5q2 -16 -4.5 -22.5t-35.5 -6.5h-59q-23 0 -29.5 53.5t-6.5 276.5l-168 -101q0 -41 3 -84t13 -116q2 -16 -4.5 -22.5t-35.5 -6.5h-59q-14 0 -20 6
q-9 9 -9 33l-4 63q0 37 -1 58q-4 83 -4 106q0 135 9 172q6 27 27 27h89q13 0 13 -16l-5 -41q-5 -35 -8.5 -65.5t-3.5 -72.5zM377 640l22 -14q-31 -69 -70 -99q-29 -22 -55 -22q-22 0 -46 34.5t-37 93.5l-6 27l27 7q10 -28 25 -46q22 -26 50 -26q59 0 81 32z" />
    <glyph glyph-name="eacute" unicode="&#x439;" horiz-adv-x="528" 
d="M172 270l170 101q0 65 5 79.5t29 14.5h87q13 0 13 -16l-5 -41q-7 -42 -9.5 -67t-2.5 -71q0 -74 3.5 -124.5t12.5 -116.5q2 -16 -4.5 -22.5t-35.5 -6.5h-59q-23 0 -29.5 53.5t-6.5 276.5l-168 -101q0 -41 3 -84t13 -116q2 -16 -4.5 -22.5t-35.5 -6.5h-59q-14 0 -20 6
q-9 9 -9 33l-4 63q0 37 -1 58q-4 83 -4 106q0 135 9 172q6 27 27 27h89q13 0 13 -16l-5 -41q-5 -35 -8.5 -65.5t-3.5 -72.5zM377 640l22 -14q-31 -69 -70 -99q-29 -22 -55 -22q-22 0 -46 34.5t-37 93.5l-6 27l27 7q10 -28 25 -46q22 -26 50 -26q59 0 81 32z" />
    <glyph glyph-name="ecircumflex" unicode="&#xea;" horiz-adv-x="471" 
d="M174 252h8q68 123 129 178q51 46 95 46q17 0 30 -5t13 -11q-11 -20 -20 -42t-9 -61l-1 -21l-26 -1q-6 14 -19.5 22.5t-26.5 8.5q-25 0 -58 -28t-56 -66l-21 -30q130 -37 195 -122q45 -59 45 -110q0 -14 -21 -14q-11 0 -16 1l-36 3q-21 0 -35 -2t-17 -2q-9 0 -13 8t-8 35
q-10 64 -45 112.5t-87 65.5q0 -47 3 -94t7 -96q1 -6 1 -9q0 -9 -9.5 -13.5t-37.5 -4.5h-47q-27 0 -32.5 39.5t-5.5 226.5q0 135 7.5 168t30.5 33l26 -2l50 3h11q12 -3 12 -16q0 -9 -4.5 -39t-8 -65.5t-3.5 -95.5z" />
    <glyph glyph-name="ecircumflex" unicode="&#x43a;" horiz-adv-x="471" 
d="M174 252h8q68 123 129 178q51 46 95 46q17 0 30 -5t13 -11q-11 -20 -20 -42t-9 -61l-1 -21l-26 -1q-6 14 -19.5 22.5t-26.5 8.5q-25 0 -58 -28t-56 -66l-21 -30q130 -37 195 -122q45 -59 45 -110q0 -14 -21 -14q-11 0 -16 1l-36 3q-21 0 -35 -2t-17 -2q-9 0 -13 8t-8 35
q-10 64 -45 112.5t-87 65.5q0 -47 3 -94t7 -96q1 -6 1 -9q0 -9 -9.5 -13.5t-37.5 -4.5h-47q-27 0 -32.5 39.5t-5.5 226.5q0 135 7.5 168t30.5 33l26 -2l50 3h11q12 -3 12 -16q0 -9 -4.5 -39t-8 -65.5t-3.5 -95.5z" />
    <glyph glyph-name="edieresis" unicode="&#xeb;" horiz-adv-x="471" 
d="M215 387q-6 -21 -13 -38l-16 -35q-32 -71 -44 -112.5t-12 -76.5q0 -24 3 -37.5t14 -37.5q6 -12 15 -25q6 -8 6 -14q0 -12 -19 -12l-53 1l-47 -2q-21 0 -26.5 5.5t-5.5 28.5q0 58 35 129q17 35 74 123l40 63q26 44 26 67q0 12 -6 30q-2 8 0 12q4 9 20 9h90q24 0 29 -6
q2 -3 2 -20q0 -29 19 -104q11 -43 24 -86q31 -97 56 -160l30 -75q0 -15 -17 -15q-8 1 -11 1l-41 1l-40 -1q-23 0 -33 20q-15 30 -51 166l-13 50q-9 31 -15 56q-2 8 -6 27l-7 35z" />
    <glyph glyph-name="edieresis" unicode="&#x43b;" horiz-adv-x="471" 
d="M215 387q-6 -21 -13 -38l-16 -35q-32 -71 -44 -112.5t-12 -76.5q0 -24 3 -37.5t14 -37.5q6 -12 15 -25q6 -8 6 -14q0 -12 -19 -12l-53 1l-47 -2q-21 0 -26.5 5.5t-5.5 28.5q0 58 35 129q17 35 74 123l40 63q26 44 26 67q0 12 -6 30q-2 8 0 12q4 9 20 9h90q24 0 29 -6
q2 -3 2 -20q0 -29 19 -104q11 -43 24 -86q31 -97 56 -160l30 -75q0 -15 -17 -15q-8 1 -11 1l-41 1l-40 -1q-23 0 -33 20q-15 30 -51 166l-13 50q-9 31 -15 56q-2 8 -6 27l-7 35z" />
    <glyph glyph-name="igrave" unicode="&#xec;" horiz-adv-x="691" 
d="M190 465h78q20 0 24.5 -7t9.5 -51.5t25 -135.5q12 -54 35 -142q8 49 27 104q11 31 24 59q27 59 27 76q0 35 -4 62t-4 29q0 6 23 6h82q19 0 23.5 -3.5t5.5 -13.5q11 -127 25 -188q22 -97 76 -213q3 -7 6 -16.5t3 -16.5q0 -11 -4.5 -12.5t-17.5 -1.5h-68q-42 0 -88 153
q-20 67 -28 111l-8 41q-30 -65 -50 -136t-20 -123v-22q1 -6 1 -11q0 -13 -9 -13h-77q-19 0 -27 9.5t-17 37.5q-15 48 -31 115q-21 87 -39 181q-43 -53 -66.5 -113t-23.5 -116q0 -24 6 -45q9 -24 12 -34q10 -23 10 -29t-11 -6h-87q-9 0 -12.5 13t-3.5 32q0 51 33 125
q21 46 54 100q63 101 63 143q-1 8 -1 12q-2 12 -2 17q0 4 2.5 12t7 9.5t16.5 1.5z" />
    <glyph glyph-name="igrave" unicode="&#x43c;" horiz-adv-x="691" 
d="M190 465h78q20 0 24.5 -7t9.5 -51.5t25 -135.5q12 -54 35 -142q8 49 27 104q11 31 24 59q27 59 27 76q0 35 -4 62t-4 29q0 6 23 6h82q19 0 23.5 -3.5t5.5 -13.5q11 -127 25 -188q22 -97 76 -213q3 -7 6 -16.5t3 -16.5q0 -11 -4.5 -12.5t-17.5 -1.5h-68q-42 0 -88 153
q-20 67 -28 111l-8 41q-30 -65 -50 -136t-20 -123v-22q1 -6 1 -11q0 -13 -9 -13h-77q-19 0 -27 9.5t-17 37.5q-15 48 -31 115q-21 87 -39 181q-43 -53 -66.5 -113t-23.5 -116q0 -24 6 -45q9 -24 12 -34q10 -23 10 -29t-11 -6h-87q-9 0 -12.5 13t-3.5 32q0 51 33 125
q21 46 54 100q63 101 63 143q-1 8 -1 12q-2 12 -2 17q0 4 2.5 12t7 9.5t16.5 1.5z" />
    <glyph glyph-name="iacute" unicode="&#xed;" horiz-adv-x="522" 
d="M333 226l-161 87v-62q0 -72 4.5 -121l9.5 -101q0 -18 -7.5 -23.5t-45.5 -5.5h-47q-23 0 -29 44.5t-6 221.5q0 140 6.5 170t28.5 30l30 -1l45 2h11q13 -2 13 -16q0 -29 -5.5 -39t-5.5 -58l159 -88q0 131 8 165.5t30 34.5l30 -1h17h15q10 2 14 2h11q13 -2 13 -16
q0 -9 -2 -18q-7 -30 -9 -45.5t-4 -52.5t-2 -65q0 -83 5 -134.5t11 -106.5q0 -18 -6.5 -23.5t-45.5 -5.5h-47q-27 0 -32.5 33.5t-5.5 192.5z" />
    <glyph glyph-name="iacute" unicode="&#x43d;" horiz-adv-x="522" 
d="M333 226l-161 87v-62q0 -72 4.5 -121l9.5 -101q0 -18 -7.5 -23.5t-45.5 -5.5h-47q-23 0 -29 44.5t-6 221.5q0 140 6.5 170t28.5 30l30 -1l45 2h11q13 -2 13 -16q0 -29 -5.5 -39t-5.5 -58l159 -88q0 131 8 165.5t30 34.5l30 -1h17h15q10 2 14 2h11q13 -2 13 -16
q0 -9 -2 -18q-7 -30 -9 -45.5t-4 -52.5t-2 -65q0 -83 5 -134.5t11 -106.5q0 -18 -6.5 -23.5t-45.5 -5.5h-47q-27 0 -32.5 33.5t-5.5 192.5z" />
    <glyph glyph-name="icircumflex" unicode="&#xee;" horiz-adv-x="443" 
d="M39 203q0 115 72 213q62 84 107 84q50 0 109 -56q77 -73 77 -183q0 -91 -64.5 -193t-116.5 -102t-116 77q-68 82 -68 160zM141 388q-31 -39 -31 -80q0 -69 41 -135q52 -84 134 -84q13 0 20 1q9 17 13 35.5t4 37.5q0 84 -48 148q-51 68 -133 77z" />
    <glyph glyph-name="icircumflex" unicode="&#x43e;" horiz-adv-x="443" 
d="M39 203q0 115 72 213q62 84 107 84q50 0 109 -56q77 -73 77 -183q0 -91 -64.5 -193t-116.5 -102t-116 77q-68 82 -68 160zM141 388q-31 -39 -31 -80q0 -69 41 -135q52 -84 134 -84q13 0 20 1q9 17 13 35.5t4 37.5q0 84 -48 148q-51 68 -133 77z" />
    <glyph glyph-name="idieresis" unicode="&#xef;" horiz-adv-x="525" 
d="M342 431h-151q-15 -86 -15 -161q0 -69 5 -124t11 -114q0 -18 -4 -23q-8 -9 -36 -9h-58q-26 0 -32.5 41.5t-6.5 224.5q0 131 8 165t31 34h318l19 1l16 1q23 0 23 -17q0 -10 -5.5 -43.5t-8 -64t-2.5 -72.5q0 -68 2 -112t13 -129q2 -16 -4.5 -22.5t-35.5 -6.5h-58
q-26 0 -32 38.5t-6 227.5q0 59 1 86.5t8 78.5z" />
    <glyph glyph-name="idieresis" unicode="&#x43f;" horiz-adv-x="525" 
d="M342 431h-151q-15 -86 -15 -161q0 -69 5 -124t11 -114q0 -18 -4 -23q-8 -9 -36 -9h-58q-26 0 -32.5 41.5t-6.5 224.5q0 131 8 165t31 34h318l19 1l16 1q23 0 23 -17q0 -10 -5.5 -43.5t-8 -64t-2.5 -72.5q0 -68 2 -112t13 -129q2 -16 -4.5 -22.5t-35.5 -6.5h-58
q-26 0 -32 38.5t-6 227.5q0 59 1 86.5t8 78.5z" />
    <glyph glyph-name="eth" unicode="&#xf0;" horiz-adv-x="471" 
d="M147 72l4 -34q2 -13 5.5 -58t3.5 -102q0 -75 -16.5 -104.5t-46.5 -29.5q-20 0 -23 10v6q1 7 1 23.5v28.5v30v26v21q0 16 -1 37t-4 49l-14 148.5t-4 87.5q0 119 76 211q64 77 112 77q52 0 112 -92q67 -102 67 -220q0 -89 -39.5 -145.5t-100.5 -56.5q-38 0 -75 25.5
t-57 61.5zM175 405q-24 -35 -33 -70t-9 -85q0 -88 45 -150q39 -54 80 -54q20 0 33 13q21 20 21 64v37q0 59 -39 135q-43 83 -98 110z" />
    <glyph glyph-name="eth" unicode="&#x440;" horiz-adv-x="471" 
d="M147 72l4 -34q2 -13 5.5 -58t3.5 -102q0 -75 -16.5 -104.5t-46.5 -29.5q-20 0 -23 10v6q1 7 1 23.5v28.5v30v26v21q0 16 -1 37t-4 49l-14 148.5t-4 87.5q0 119 76 211q64 77 112 77q52 0 112 -92q67 -102 67 -220q0 -89 -39.5 -145.5t-100.5 -56.5q-38 0 -75 25.5
t-57 61.5zM175 405q-24 -35 -33 -70t-9 -85q0 -88 45 -150q39 -54 80 -54q20 0 33 13q21 20 21 64v37q0 59 -39 135q-43 83 -98 110z" />
    <glyph glyph-name="ntilde" unicode="&#xf1;" horiz-adv-x="416" 
d="M341 164l33 -26q-33 -70 -81 -121t-79 -51q-48 0 -110 96.5t-62 178.5q0 85 62 175q58 84 100 84q20 0 90.5 -34.5t70.5 -58.5q0 -10 -28 -39q-18 -19 -30 -37t-14 -18q-5 0 -21 22q-21 28 -39 41q-32 24 -79 34q-7 -15 -12 -40t-5 -47q0 -70 44.5 -141.5t102.5 -93.5
q15 15 22 24t21 31z" />
    <glyph glyph-name="ntilde" unicode="&#x441;" horiz-adv-x="416" 
d="M341 164l33 -26q-33 -70 -81 -121t-79 -51q-48 0 -110 96.5t-62 178.5q0 85 62 175q58 84 100 84q20 0 90.5 -34.5t70.5 -58.5q0 -10 -28 -39q-18 -19 -30 -37t-14 -18q-5 0 -21 22q-21 28 -39 41q-32 24 -79 34q-7 -15 -12 -40t-5 -47q0 -70 44.5 -141.5t102.5 -93.5
q15 15 22 24t21 31z" />
    <glyph glyph-name="ograve" unicode="&#xf2;" horiz-adv-x="632" 
d="M550 277l-52 9q5 14 9 29t4 28q0 56 -45 77q-26 12 -73 12h-18l-1 -94l-2 -68q0 -40 2.5 -113l4.5 -129q0 -18 -4 -23q-8 -9 -36 -9h-59q-21 0 -25 18t-4 96l1 62v43l2 114l3 103h-18q-61 0 -89.5 -22t-28.5 -67q0 -10 4 -26q1 -3 9 -31l-52 -9q-12 37 -23.5 61.5
t-34.5 57.5q-7 11 -12 21.5t-5 23.5q0 14 9 25t20 11q9 0 24.5 -2.5t39 -5.5t57 -3.5t66.5 -0.5h186h33h24q18 0 36.5 1t29 3t32.5 5t32 3q12 0 20.5 -10.5t8.5 -25.5q0 -13 -3.5 -22t-13.5 -23q-23 -33 -34.5 -57.5t-23.5 -61.5z" />
    <glyph glyph-name="ograve" unicode="&#x442;" horiz-adv-x="632" 
d="M550 277l-52 9q5 14 9 29t4 28q0 56 -45 77q-26 12 -73 12h-18l-1 -94l-2 -68q0 -40 2.5 -113l4.5 -129q0 -18 -4 -23q-8 -9 -36 -9h-59q-21 0 -25 18t-4 96l1 62v43l2 114l3 103h-18q-61 0 -89.5 -22t-28.5 -67q0 -10 4 -26q1 -3 9 -31l-52 -9q-12 37 -23.5 61.5
t-34.5 57.5q-7 11 -12 21.5t-5 23.5q0 14 9 25t20 11q9 0 24.5 -2.5t39 -5.5t57 -3.5t66.5 -0.5h186h33h24q18 0 36.5 1t29 3t32.5 5t32 3q12 0 20.5 -10.5t8.5 -25.5q0 -13 -3.5 -22t-13.5 -23q-23 -33 -34.5 -57.5t-23.5 -61.5z" />
    <glyph glyph-name="oacute" unicode="&#xf3;" horiz-adv-x="506" 
d="M224 34h40q8 92 18 151q7 41 21 98q18 77 41 117q43 76 115 76q22 0 34.5 -3.5t12.5 -16.5q0 -9 -6 -21l-11 -22.5t-6 -17t-1 -16.5v-13v-21q0 -12 -2 -19l-23 -1q-8 26 -38 26q-41 0 -68 -61q-39 -89 -39 -292q0 -127 13 -180q7 -29 7 -67q0 -11 -15.5 -17t-70.5 -6
q-13 0 -15.5 5.5t-2.5 17.5q0 48 3 81.5t16 117.5l7 50h-58q-42 0 -56.5 -1t-26.5 -2q-10 0 -11 10q1 8 1 11v22q0 71 -22 181.5t-51 189.5q-5 13 -8 25.5t-3 18.5q0 12 19 12q13 -1 17 -1q6 -1 15.5 -1h15.5h13h25h15q10 0 14 -6.5t8 -33.5l7 -34l17 -90q10 -53 23.5 -137
t13.5 -113z" />
    <glyph glyph-name="oacute" unicode="&#x443;" horiz-adv-x="506" 
d="M224 34h40q8 92 18 151q7 41 21 98q18 77 41 117q43 76 115 76q22 0 34.5 -3.5t12.5 -16.5q0 -9 -6 -21l-11 -22.5t-6 -17t-1 -16.5v-13v-21q0 -12 -2 -19l-23 -1q-8 26 -38 26q-41 0 -68 -61q-39 -89 -39 -292q0 -127 13 -180q7 -29 7 -67q0 -11 -15.5 -17t-70.5 -6
q-13 0 -15.5 5.5t-2.5 17.5q0 48 3 81.5t16 117.5l7 50h-58q-42 0 -56.5 -1t-26.5 -2q-10 0 -11 10q1 8 1 11v22q0 71 -22 181.5t-51 189.5q-5 13 -8 25.5t-3 18.5q0 12 19 12q13 -1 17 -1q6 -1 15.5 -1h15.5h13h25h15q10 0 14 -6.5t8 -33.5l7 -34l17 -90q10 -53 23.5 -137
t13.5 -113z" />
    <glyph glyph-name="ocircumflex" unicode="&#xf4;" horiz-adv-x="741" 
d="M329 -257v280q-26 -19 -56.5 -26.5t-60.5 -7.5q-71 0 -120 42q-53 46 -53 120q0 106 183 241q68 51 88 85q13 23 13 64l-4 78l-4 55q0 14 34.5 24t60.5 10q17 0 17 -24q-1 -11 -1 -16l-7 -127q0 -50 26 -84q19 -24 74 -65q96 -71 128 -108q55 -62 55 -133q0 -58 -39 -104
q-49 -58 -134 -58q-33 0 -61.5 7t-55.5 27v-280h-83zM328 58l-7 363l-39 -36q-64 -55 -83 -80q-35 -46 -35 -104q0 -75 39 -116q34 -36 84 -36q14 0 22 2t19 7zM420 421l-7 -363q5 -2 18 -5.5t23 -3.5q48 0 82 35q41 42 41 117q0 56 -29 97q-17 24 -63 62q-17 14 -24 21
l-16 16z" />
    <glyph glyph-name="ocircumflex" unicode="&#x444;" horiz-adv-x="741" 
d="M329 -257v280q-26 -19 -56.5 -26.5t-60.5 -7.5q-71 0 -120 42q-53 46 -53 120q0 106 183 241q68 51 88 85q13 23 13 64l-4 78l-4 55q0 14 34.5 24t60.5 10q17 0 17 -24q-1 -11 -1 -16l-7 -127q0 -50 26 -84q19 -24 74 -65q96 -71 128 -108q55 -62 55 -133q0 -58 -39 -104
q-49 -58 -134 -58q-33 0 -61.5 7t-55.5 27v-280h-83zM328 58l-7 363l-39 -36q-64 -55 -83 -80q-35 -46 -35 -104q0 -75 39 -116q34 -36 84 -36q14 0 22 2t19 7zM420 421l-7 -363q5 -2 18 -5.5t23 -3.5q48 0 82 35q41 42 41 117q0 56 -29 97q-17 24 -63 62q-17 14 -24 21
l-16 16z" />
    <glyph glyph-name="otilde" unicode="&#xf5;" horiz-adv-x="470" 
d="M41 465h65q8 0 13.5 1l11.5 2q7 0 12 -5.5t9.5 -17l11.5 -28.5l33.5 -83.5t24.5 -56.5l18 -41q42 144 72.5 192t77.5 48q21 0 45 -11t24 -21q0 -13 -12 -25t-12 -59q-1 -16 -1 -25l2 -16l-19 -12q-16 17 -28 22.5t-24 5.5q-29 0 -49.5 -33t-49.5 -120l38 -89
q31 -71 46.5 -103.5l33.5 -69.5l26.5 -54.5t35.5 -62.5q13 -21 13 -34q0 -14 -13 -14h-93q-13 0 -21.5 9.5t-20.5 40.5q-5 14 -15 36q-6 14 -20 42l-46 102l-30 69q-57 -198 -96 -261q-24 -38 -53 -38q-21 0 -29 6.5t-8 16.5q0 8 7 20l15 23q35 48 77 141t58 158l-30 68
l-13.5 27.5t-14.5 33.5l-33 70l-27 58q-10 23 -19 39q-12 23 -12 29q0 14 4 17t15 3z" />
    <glyph glyph-name="otilde" unicode="&#x445;" horiz-adv-x="470" 
d="M41 465h65q8 0 13.5 1l11.5 2q7 0 12 -5.5t9.5 -17l11.5 -28.5l33.5 -83.5t24.5 -56.5l18 -41q42 144 72.5 192t77.5 48q21 0 45 -11t24 -21q0 -13 -12 -25t-12 -59q-1 -16 -1 -25l2 -16l-19 -12q-16 17 -28 22.5t-24 5.5q-29 0 -49.5 -33t-49.5 -120l38 -89
q31 -71 46.5 -103.5l33.5 -69.5l26.5 -54.5t35.5 -62.5q13 -21 13 -34q0 -14 -13 -14h-93q-13 0 -21.5 9.5t-20.5 40.5q-5 14 -15 36q-6 14 -20 42l-46 102l-30 69q-57 -198 -96 -261q-24 -38 -53 -38q-21 0 -29 6.5t-8 16.5q0 8 7 20l15 23q35 48 77 141t58 158l-30 68
l-13.5 27.5t-14.5 33.5l-33 70l-27 58q-10 23 -19 39q-12 23 -12 29q0 14 4 17t15 3z" />
    <glyph glyph-name="odieresis" unicode="&#xf6;" horiz-adv-x="569" 
d="M185 34h152l-3 109l-3 123q0 132 8 166t30 34l41 -1l35 2h11q13 -2 13 -16q0 -5 -3.5 -20.5t-7 -43t-5 -57.5t-1.5 -60v-94q0 -61 2.5 -91t24.5 -36q6 -2 18 0q5 1 20.5 5t23.5 4q14 0 21 -8t7 -16q0 -9 -3 -20t-14.5 -42t-24.5 -72.5l-27 -85.5h-55q11 44 11 73
q0 61 -28 83q-39 30 -160 30l-78 -1q-47 0 -64.5 -1.5t-38.5 -3.5q-24 0 -28 35t-4 237q0 132 11 173q7 27 27 27l41 -1l35 2h10q13 -2 13 -16q0 -10 -5 -42.5t-8 -65t-3 -73.5q0 -44 2 -76q7 -112 7 -160z" />
    <glyph glyph-name="odieresis" unicode="&#x446;" horiz-adv-x="569" 
d="M185 34h152l-3 109l-3 123q0 132 8 166t30 34l41 -1l35 2h11q13 -2 13 -16q0 -5 -3.5 -20.5t-7 -43t-5 -57.5t-1.5 -60v-94q0 -61 2.5 -91t24.5 -36q6 -2 18 0q5 1 20.5 5t23.5 4q14 0 21 -8t7 -16q0 -9 -3 -20t-14.5 -42t-24.5 -72.5l-27 -85.5h-55q11 44 11 73
q0 61 -28 83q-39 30 -160 30l-78 -1q-47 0 -64.5 -1.5t-38.5 -3.5q-24 0 -28 35t-4 237q0 132 11 173q7 27 27 27l41 -1l35 2h10q13 -2 13 -16q0 -10 -5 -42.5t-8 -65t-3 -73.5q0 -44 2 -76q7 -112 7 -160z" />
    <glyph glyph-name="divide" unicode="&#xf7;" horiz-adv-x="498" 
d="M305 232q-7 1 -12 1q-14 0 -28 -4.5t-33 -18.5q-12 -9 -25 -13.5t-32 -4.5q-42 0 -88 86q-35 66 -59 152q-3 9 -3 18q0 7 3 10q7 7 28 7h83q15 0 22.5 -6.5t10.5 -31.5q13 -89 46 -131q24 -30 50 -30h12q16 0 24 9q0 127 9 159t34 32l30 -1h16h13q9 2 13 2h11
q13 -2 13 -17q0 -27 -5 -41q-12 -34 -12 -139q0 -78 5 -129.5l11 -111.5q0 -18 -6.5 -23.5t-37.5 -5.5h-54q-29 0 -34 33t-5 199z" />
    <glyph glyph-name="divide" unicode="&#x447;" horiz-adv-x="498" 
d="M305 232q-7 1 -12 1q-14 0 -28 -4.5t-33 -18.5q-12 -9 -25 -13.5t-32 -4.5q-42 0 -88 86q-35 66 -59 152q-3 9 -3 18q0 7 3 10q7 7 28 7h83q15 0 22.5 -6.5t10.5 -31.5q13 -89 46 -131q24 -30 50 -30h12q16 0 24 9q0 127 9 159t34 32l30 -1h16h13q9 2 13 2h11
q13 -2 13 -17q0 -27 -5 -41q-12 -34 -12 -139q0 -78 5 -129.5l11 -111.5q0 -18 -6.5 -23.5t-37.5 -5.5h-54q-29 0 -34 33t-5 199z" />
    <glyph glyph-name="oslash" unicode="&#xf8;" horiz-adv-x="803" 
d="M463 34h156q-4 48 -7 117.5t-3 115.5q0 134 7.5 166.5t30.5 32.5l30 -1h17h15q10 2 14 2h11q13 -2 13 -16q0 -9 -2 -18q-7 -31 -9 -46t-4 -44.5t-2 -72.5q0 -78 5 -129.5l11 -111.5q0 -18 -6.5 -23.5t-45.5 -5.5h-600q-25 0 -31.5 41.5t-6.5 225.5q0 134 7.5 166.5
t30.5 32.5l30 -1h17h15q10 2 14 2h11q13 -2 13 -16q0 -9 -2 -18q-7 -31 -8 -39t-4 -42.5t-3 -81.5t2 -84q7 -130 7 -152h156q-4 32 -6.5 81.5t-2.5 151.5q0 135 11 174q7 25 28 25l30 -1l46 2h10q13 -2 13 -16q0 -9 -5.5 -44.5t-8.5 -65t-3 -71.5q0 -29 2.5 -78.5t2.5 -61.5
z" />
    <glyph glyph-name="oslash" unicode="&#x448;" horiz-adv-x="803" 
d="M463 34h156q-4 48 -7 117.5t-3 115.5q0 134 7.5 166.5t30.5 32.5l30 -1h17h15q10 2 14 2h11q13 -2 13 -16q0 -9 -2 -18q-7 -31 -9 -46t-4 -44.5t-2 -72.5q0 -78 5 -129.5l11 -111.5q0 -18 -6.5 -23.5t-45.5 -5.5h-600q-25 0 -31.5 41.5t-6.5 225.5q0 134 7.5 166.5
t30.5 32.5l30 -1h17h15q10 2 14 2h11q13 -2 13 -16q0 -9 -2 -18q-7 -31 -8 -39t-4 -42.5t-3 -81.5t2 -84q7 -130 7 -152h156q-4 32 -6.5 81.5t-2.5 151.5q0 135 11 174q7 25 28 25l30 -1l46 2h10q13 -2 13 -16q0 -9 -5.5 -44.5t-8.5 -65t-3 -71.5q0 -29 2.5 -78.5t2.5 -61.5
z" />
    <glyph glyph-name="ugrave" unicode="&#xf9;" horiz-adv-x="858" 
d="M462 34h156q-4 48 -7 117.5t-3 115.5q0 134 7.5 166.5t30.5 32.5l30 -1h17h15q10 2 14 2h11q13 -2 13 -16q0 -9 -2 -18q-7 -32 -9 -48t-4 -45t-2 -67q0 -214 28 -222q5 -2 17 0q13 3 18 4q18 5 27 5q13 0 20.5 -7.5t7.5 -16.5q0 -10 -2.5 -19t-16.5 -48l-18 -53l-32 -100
h-55q5 19 8 39t3 36q0 68 -43 94q-24 15 -60 15h-538q-25 0 -31.5 41.5t-6.5 225.5q0 134 7.5 166.5t30.5 32.5l30 -1h17h15q10 2 14 2h11q13 -2 13 -16q0 -9 -2 -18q-7 -30 -8 -37.5t-4 -46t-3 -78.5q0 -47 2 -84q7 -128 7 -153h156q-4 32 -6.5 81.5t-2.5 151.5
q0 135 11 174q7 25 28 25l30 -1l46 2h10q13 -2 13 -16q0 -9 -5.5 -44.5t-8.5 -64t-3 -71.5q0 -29 2.5 -78.5t2.5 -61.5z" />
    <glyph glyph-name="ugrave" unicode="&#x449;" horiz-adv-x="858" 
d="M462 34h156q-4 48 -7 117.5t-3 115.5q0 134 7.5 166.5t30.5 32.5l30 -1h17h15q10 2 14 2h11q13 -2 13 -16q0 -9 -2 -18q-7 -32 -9 -48t-4 -45t-2 -67q0 -214 28 -222q5 -2 17 0q13 3 18 4q18 5 27 5q13 0 20.5 -7.5t7.5 -16.5q0 -10 -2.5 -19t-16.5 -48l-18 -53l-32 -100
h-55q5 19 8 39t3 36q0 68 -43 94q-24 15 -60 15h-538q-25 0 -31.5 41.5t-6.5 225.5q0 134 7.5 166.5t30.5 32.5l30 -1h17h15q10 2 14 2h11q13 -2 13 -16q0 -9 -2 -18q-7 -30 -8 -37.5t-4 -46t-3 -78.5q0 -47 2 -84q7 -128 7 -153h156q-4 32 -6.5 81.5t-2.5 151.5
q0 135 11 174q7 25 28 25l30 -1l46 2h10q13 -2 13 -16q0 -9 -5.5 -44.5t-8.5 -64t-3 -71.5q0 -29 2.5 -78.5t2.5 -61.5z" />
    <glyph glyph-name="uacute" unicode="&#xfa;" horiz-adv-x="692" 
d="M138 286l-52 -9q-12 37 -23.5 61.5t-34.5 57.5q-7 11 -12 21.5t-5 23.5q0 15 9 26t20 11q8 0 25.5 -3t35 -5t55.5 -3.5t75 -1.5h93l57 1q13 0 13 -16q0 -8 -4 -21q-10 -32 -10 -77q-3 -39 -3 -75v-21q68 0 123 -20q39 -14 71 -39q49 -38 68 -93q11 -32 11 -65
q0 -26 -14 -35q-9 -6 -31 -6h-12l-34 1l-23 1h-248q-18 0 -26 10t-8 29v132q0 105 2 152.5t9 107.5h-22q-73 0 -99 -29q-18 -20 -18 -59q0 -17 4 -32t8 -25zM378 34h114l17 1l1 32q0 47 -20 80q-34 55 -113 65q-1 -9 -1.5 -19t-0.5 -17v-17q0 -36 1.5 -79t1.5 -46z" />
    <glyph glyph-name="uacute" unicode="&#x44a;" horiz-adv-x="692" 
d="M138 286l-52 -9q-12 37 -23.5 61.5t-34.5 57.5q-7 11 -12 21.5t-5 23.5q0 15 9 26t20 11q8 0 25.5 -3t35 -5t55.5 -3.5t75 -1.5h93l57 1q13 0 13 -16q0 -8 -4 -21q-10 -32 -10 -77q-3 -39 -3 -75v-21q68 0 123 -20q39 -14 71 -39q49 -38 68 -93q11 -32 11 -65
q0 -26 -14 -35q-9 -6 -31 -6h-12l-34 1l-23 1h-248q-18 0 -26 10t-8 29v132q0 105 2 152.5t9 107.5h-22q-73 0 -99 -29q-18 -20 -18 -59q0 -17 4 -32t8 -25zM378 34h114l17 1l1 32q0 47 -20 80q-34 55 -113 65q-1 -9 -1.5 -19t-0.5 -17v-17q0 -36 1.5 -79t1.5 -46z" />
    <glyph glyph-name="ucircumflex" unicode="&#xfb;" horiz-adv-x="694" 
d="M348 0h-258q-18 0 -26.5 9.5t-8.5 29.5v132q0 201 6.5 248t34.5 47l30 -1h17h15q10 2 14 2h11q13 -2 13 -16q0 -8 -4 -20q-10 -31 -10 -78q0 -27 -1 -50.5l-2 -45.5q60 0 111.5 -14t92.5 -46q45 -36 65 -85q14 -35 14 -73q0 -29 -20 -37q-10 -4 -37 -4h-17l-17 1z
M501 267q0 134 7.5 166.5t31.5 32.5l29 -1l46 2h11q13 -2 13 -16q-6 -45 -11.5 -90.5t-5.5 -89.5q0 -79 5 -139t11 -103q1 -4 1 -10q0 -10 -10.5 -14.5t-41.5 -4.5h-47q-20 0 -27 13t-7 61q0 45 -1 73q-4 110 -4 120zM179 34h114l17 1l1 32q0 47 -20 80q-34 55 -113 65
q-1 -9 -1.5 -19t-0.5 -17v-17q0 -36 1.5 -79t1.5 -46z" />
    <glyph glyph-name="ucircumflex" unicode="&#x44b;" horiz-adv-x="694" 
d="M348 0h-258q-18 0 -26.5 9.5t-8.5 29.5v132q0 201 6.5 248t34.5 47l30 -1h17h15q10 2 14 2h11q13 -2 13 -16q0 -8 -4 -20q-10 -31 -10 -78q0 -27 -1 -50.5l-2 -45.5q60 0 111.5 -14t92.5 -46q45 -36 65 -85q14 -35 14 -73q0 -29 -20 -37q-10 -4 -37 -4h-17l-17 1z
M501 267q0 134 7.5 166.5t31.5 32.5l29 -1l46 2h11q13 -2 13 -16q-6 -45 -11.5 -90.5t-5.5 -89.5q0 -79 5 -139t11 -103q1 -4 1 -10q0 -10 -10.5 -14.5t-41.5 -4.5h-47q-20 0 -27 13t-7 61q0 45 -1 73q-4 110 -4 120zM179 34h114l17 1l1 32q0 47 -20 80q-34 55 -113 65
q-1 -9 -1.5 -19t-0.5 -17v-17q0 -36 1.5 -79t1.5 -46z" />
    <glyph glyph-name="udieresis" unicode="&#xfc;" horiz-adv-x="517" 
d="M348 0h-258q-18 0 -26.5 9.5t-8.5 29.5v133q0 200 6.5 247t34.5 47l30 -1h17h15q10 2 14 2h11q13 -2 13 -16q0 -7 -4 -20q-10 -32 -10 -78q-3 -39 -3 -75v-21q60 0 111.5 -14t92.5 -46q45 -36 65 -85q14 -35 14 -73q0 -29 -20 -37q-10 -4 -37 -4h-17l-17 1zM179 34h114
l17 1l1 32q0 47 -20 80q-34 55 -113 65q-1 -9 -1.5 -19t-0.5 -17v-17q0 -36 1.5 -79t1.5 -46z" />
    <glyph glyph-name="udieresis" unicode="&#x44c;" horiz-adv-x="517" 
d="M348 0h-258q-18 0 -26.5 9.5t-8.5 29.5v133q0 200 6.5 247t34.5 47l30 -1h17h15q10 2 14 2h11q13 -2 13 -16q0 -7 -4 -20q-10 -32 -10 -78q-3 -39 -3 -75v-21q60 0 111.5 -14t92.5 -46q45 -36 65 -85q14 -35 14 -73q0 -29 -20 -37q-10 -4 -37 -4h-17l-17 1zM179 34h114
l17 1l1 32q0 47 -20 80q-34 55 -113 65q-1 -9 -1.5 -19t-0.5 -17v-17q0 -36 1.5 -79t1.5 -46z" />
    <glyph glyph-name="yacute" unicode="&#xfd;" horiz-adv-x="494" 
d="M21 59l19 21q31 -23 68 -36.5t65 -13.5q72 0 105 61q24 44 34 138q-28 -26 -62 -40t-61 -14q-19 0 -36 5.5t-39.5 18t-32.5 12.5q-20 0 -39 -15l-21 25q39 39 65.5 54.5t44.5 15.5q17 0 39 -11q24 -15 35.5 -21.5t23.5 -10t27 -3.5q14 0 27.5 5t27.5 22q0 81 -46 123
q-37 34 -86 34q-32 0 -69 -15q-30 -12 -64 -34l-19 20q50 42 90.5 57.5t94.5 15.5q118 0 184 -75q56 -63 56 -149q0 -121 -70 -195q-64 -68 -176 -68q-41 0 -76 10q-62 18 -109 63z" />
    <glyph glyph-name="yacute" unicode="&#x44d;" horiz-adv-x="494" 
d="M21 59l19 21q31 -23 68 -36.5t65 -13.5q72 0 105 61q24 44 34 138q-28 -26 -62 -40t-61 -14q-19 0 -36 5.5t-39.5 18t-32.5 12.5q-20 0 -39 -15l-21 25q39 39 65.5 54.5t44.5 15.5q17 0 39 -11q24 -15 35.5 -21.5t23.5 -10t27 -3.5q14 0 27.5 5t27.5 22q0 81 -46 123
q-37 34 -86 34q-32 0 -69 -15q-30 -12 -64 -34l-19 20q50 42 90.5 57.5t94.5 15.5q118 0 184 -75q56 -63 56 -149q0 -121 -70 -195q-64 -68 -176 -68q-41 0 -76 10q-62 18 -109 63z" />
    <glyph glyph-name="thorn" unicode="&#xfe;" horiz-adv-x="684" 
d="M172 263h109q15 96 82 172q57 65 93 65q47 0 107 -56q79 -73 79 -183q0 -92 -63.5 -193.5t-116.5 -101.5q-51 0 -114 75q-71 85 -71 181h-105q0 -48 4 -89q10 -102 10 -104q0 -18 -7.5 -23.5t-45.5 -5.5h-47q-23 0 -29 44.5t-6 221.5q0 134 6 167t29 33l30 -1h17h14
q10 2 14 2h11q13 -3 13 -17q-5 -40 -9 -83.5t-4 -103.5zM384 388q-10 -11 -17 -26q-11 -24 -14 -54v-31q6 -65 50 -121q52 -67 126 -67q12 0 18 1q18 35 18 73q0 72 -42 136q-52 78 -139 89z" />
    <glyph glyph-name="thorn" unicode="&#x44e;" horiz-adv-x="684" 
d="M172 263h109q15 96 82 172q57 65 93 65q47 0 107 -56q79 -73 79 -183q0 -92 -63.5 -193.5t-116.5 -101.5q-51 0 -114 75q-71 85 -71 181h-105q0 -48 4 -89q10 -102 10 -104q0 -18 -7.5 -23.5t-45.5 -5.5h-47q-23 0 -29 44.5t-6 221.5q0 134 6 167t29 33l30 -1h17h14
q10 2 14 2h11q13 -3 13 -17q-5 -40 -9 -83.5t-4 -103.5zM384 388q-10 -11 -17 -26q-11 -24 -14 -54v-31q6 -65 50 -121q52 -67 126 -67q12 0 18 1q18 35 18 73q0 72 -42 136q-52 78 -139 89z" />
    <glyph glyph-name="ydieresis" unicode="&#xff;" horiz-adv-x="530" 
d="M181 465h251l31 1q12 0 12 -16l-4 -61q0 -72 -2.5 -120.5l-4.5 -85.5q0 -31 3 -76t8 -78q1 -7 1 -10q0 -10 -8 -14.5t-36 -4.5h-52q-26 0 -31 23t-5 122l-3 75q-85 -19 -118 -82q-19 -37 -19 -91q0 -28 -8.5 -37.5t-48.5 -9.5h-40q-37 0 -47 5.5t-10 20.5q0 57 54 121
q65 77 163 89v5q-86 17 -130 46q-59 39 -59 105q0 47 28 62q20 11 75 11zM293 431q-50 0 -62.5 -10.5t-12.5 -41.5q0 -51 36 -85t89 -34q0 67 1.5 93t6.5 78h-58z" />
    <glyph glyph-name="ydieresis" unicode="&#x44f;" horiz-adv-x="530" 
d="M181 465h251l31 1q12 0 12 -16l-4 -61q0 -72 -2.5 -120.5l-4.5 -85.5q0 -31 3 -76t8 -78q1 -7 1 -10q0 -10 -8 -14.5t-36 -4.5h-52q-26 0 -31 23t-5 122l-3 75q-85 -19 -118 -82q-19 -37 -19 -91q0 -28 -8.5 -37.5t-48.5 -9.5h-40q-37 0 -47 5.5t-10 20.5q0 57 54 121
q65 77 163 89v5q-86 17 -130 46q-59 39 -59 105q0 47 28 62q20 11 75 11zM293 431q-50 0 -62.5 -10.5t-12.5 -41.5q0 -51 36 -85t89 -34q0 67 1.5 93t6.5 78h-58z" />
  </font>
</defs>
</svg>
